<svg width="59" height="66" viewBox="0 0 59 66" fill="none" xmlns="http://www.w3.org/2000/svg">
<g filter="url(#filter0_d_4_3025)">
<path d="M55.0329 27.8509L10.1035 1.90934C9.20128 1.38845 8.17787 1.11424 7.13608 1.11426C6.0943 1.11428 5.07088 1.38853 4.16867 1.90944C3.26647 2.43036 2.51726 3.17959 1.99636 4.08184C1.47545 4.98408 1.20121 6.00757 1.20117 7.04941V58.9324C1.20127 59.9744 1.47556 60.9978 1.99648 61.9001C2.51741 62.8019 3.26663 63.5512 4.16882 64.0724C5.07102 64.5932 6.09443 64.8673 7.13617 64.8673C8.17791 64.8673 9.20128 64.5932 10.1035 64.0724L55.0329 38.1307C55.9351 37.6097 56.6839 36.8604 57.2051 35.9582C57.7258 35.056 57.9999 34.0326 57.9999 32.9908C57.9999 31.949 57.7258 30.9256 57.2051 30.0233C56.6839 29.1211 55.9351 28.3719 55.0329 27.8509Z" fill="#1FA45E"/>
</g>
<path d="M26.8802 11.1793L9.97794 1.785C5.98753 -0.4454 1 2.34252 1 6.80367V57.4606C1 61.9214 5.98788 64.7094 9.97794 62.479L27.7858 52.4714C44.7416 43.1563 63.1002 29.8526 26.8802 11.1793Z" fill="#0C2B41"/>
<path d="M53.8686 28.0826L10.6635 3.13683C9.7959 2.63585 8.81174 2.3721 7.80988 2.37207C6.80806 2.37204 5.82385 2.63575 4.95622 3.13668C4.08859 3.63761 3.36811 4.35811 2.86718 5.22577C2.36626 6.09346 2.10254 7.07767 2.10254 8.07959V57.9713C2.10254 58.9734 2.36626 59.9577 2.86718 60.8254C3.36811 61.6931 4.08859 62.4135 4.95622 62.9143C5.82385 63.4151 6.80806 63.6791 7.80988 63.6791C8.81174 63.6791 9.7959 63.4151 10.6635 62.9143L53.8686 37.9684C54.7362 37.4675 55.4566 36.747 55.9578 35.8794C56.4586 35.0117 56.7221 34.0274 56.7221 33.0255C56.7221 32.0236 56.4586 31.0394 55.9578 30.1717C55.4566 29.304 54.7362 28.5835 53.8686 28.0826Z" fill="url(#paint0_linear_4_3025)"/>
<path d="M51.5554 27.4665L33.9818 16.542C13.5739 26.404 2.28516 43.3821 2.28516 47.7023V56.8582C2.28516 61.1785 6.81209 63.8787 10.4334 61.7201L51.5558 37.1905C55.1767 35.0279 55.1767 29.6267 51.5554 27.4665Z" fill="url(#paint1_linear_4_3025)"/>
<path d="M54.9388 37.5459C55.8065 37.045 56.5268 36.3245 57.0276 35.4568C57.5289 34.5892 57.7924 33.6049 57.7924 32.603C57.7924 31.6011 57.5289 30.6169 57.0276 29.7492C56.5268 28.8815 55.8065 28.161 54.9388 27.6601L35.1021 15.9385C34.717 16.1185 34.3423 16.3199 33.9797 16.5418C52.4091 30.7369 43.3618 44.322 28.7129 52.6326" fill="#1FA45E"/>
<path d="M19.0798 34.6937C19.0798 35.417 18.9473 36.0294 18.6823 36.5308C18.4245 37.025 18.0986 37.4297 17.7047 37.7448C17.318 38.0528 16.8954 38.2748 16.4371 38.4109C15.9787 38.547 15.5526 38.615 15.1587 38.615H6.19922V35.8217H15.1587C15.5383 35.8217 15.8176 35.725 15.9966 35.5317C16.1828 35.3383 16.2759 35.0589 16.2759 34.6937V32.3194H6.19922V29.5046H16.2759V27.1518C16.2759 26.3855 15.9035 26.0023 15.1587 26.0023H6.19922V23.209H15.1587C15.6385 23.209 16.0683 23.2699 16.4478 23.3917C16.8274 23.5134 17.1604 23.6781 17.4469 23.8858C17.7405 24.0864 17.9912 24.3191 18.1989 24.5841C18.4066 24.8492 18.5749 25.1285 18.7038 25.4221C18.8327 25.7086 18.9258 26.0023 18.9831 26.3031C19.0476 26.5968 19.0798 26.8725 19.0798 27.1303V34.6937ZM26.6857 38.615H23.8818V26.0023H21.3573V23.209H26.6857V38.615ZM45.217 37.2076C45.217 37.4081 45.1812 37.5944 45.1096 37.7663C45.038 37.9382 44.9377 38.0886 44.8088 38.2175C44.687 38.3393 44.5402 38.4359 44.3683 38.5076C44.1964 38.5792 44.0102 38.615 43.8097 38.615H33.733C33.4751 38.615 33.1958 38.5863 32.895 38.529C32.6014 38.4646 32.3078 38.3679 32.0141 38.239C31.7276 38.1101 31.4519 37.9453 31.1869 37.7448C30.9219 37.5371 30.6856 37.29 30.4779 37.0035C30.2774 36.7098 30.1162 36.3732 29.9945 35.9936C29.8727 35.6069 29.8118 35.1735 29.8118 34.6937V27.1303C29.8118 26.8725 29.8405 26.5968 29.8978 26.3031C29.9623 26.0023 30.0589 25.7086 30.1879 25.4221C30.3168 25.1285 30.4851 24.8492 30.6927 24.5841C30.9005 24.3191 31.1475 24.0864 31.434 23.8858C31.7276 23.6781 32.0642 23.5134 32.4438 23.3917C32.8234 23.2699 33.2531 23.209 33.733 23.209H45.0881V26.0023H33.733C33.3677 26.0023 33.0884 26.099 32.895 26.2924C32.7017 26.4857 32.605 26.7722 32.605 27.1518V34.6937C32.605 35.0518 32.7017 35.3311 32.895 35.5317C33.0956 35.725 33.3749 35.8217 33.733 35.8217H42.4239V32.3194H34.9899V29.5046H43.8097C44.0102 29.5046 44.1964 29.544 44.3683 29.6228C44.5402 29.6944 44.687 29.7947 44.8088 29.9236C44.9377 30.0525 45.038 30.2029 45.1096 30.3748C45.1812 30.5396 45.217 30.7186 45.217 30.912V37.2076Z" fill="white"/>
<defs>
<filter id="filter0_d_4_3025" x="0.602581" y="0.582177" width="58.3951" height="65.3492" filterUnits="userSpaceOnUse" color-interpolation-filters="sRGB">
<feFlood flood-opacity="0" result="BackgroundImageFix"/>
<feColorMatrix in="SourceAlpha" type="matrix" values="0 0 0 0 0 0 0 0 0 0 0 0 0 0 0 0 0 0 127 0" result="hardAlpha"/>
<feOffset dx="0.19953" dy="0.26604"/>
<feGaussianBlur stdDeviation="0.39906"/>
<feComposite in2="hardAlpha" operator="out"/>
<feColorMatrix type="matrix" values="0 0 0 0 0 0 0 0 0 0 0 0 0 0 0 0 0 0 0.39 0"/>
<feBlend mode="normal" in2="BackgroundImageFix" result="effect1_dropShadow_4_3025"/>
<feBlend mode="normal" in="SourceGraphic" in2="effect1_dropShadow_4_3025" result="shape"/>
</filter>
<linearGradient id="paint0_linear_4_3025" x1="32.2527" y1="50.4367" x2="0.304073" y2="6.54559" gradientUnits="userSpaceOnUse">
<stop stop-color="#0C2B41"/>
<stop offset="1" stop-color="#1FA45E"/>
</linearGradient>
<linearGradient id="paint1_linear_4_3025" x1="4.88448" y1="61.8363" x2="38.2096" y2="19.193" gradientUnits="userSpaceOnUse">
<stop offset="0.063" stop-color="#1FA45E"/>
<stop offset="0.181" stop-color="#198356"/>
<stop offset="0.341" stop-color="#135D4D"/>
<stop offset="0.489" stop-color="#0F4146"/>
<stop offset="0.619" stop-color="#0C3042"/>
<stop offset="0.717" stop-color="#0C2B41"/>
</linearGradient>
</defs>
</svg>
