<svg width="59" height="60" viewBox="0 0 59 60" fill="none" xmlns="http://www.w3.org/2000/svg">
<path d="M34.2545 22.1574C28.1443 22.1574 23.1758 17.1862 23.1758 11.0787C23.1758 4.97121 28.147 0 34.2545 0C40.362 0 45.3332 4.97121 45.3332 11.0787C45.3332 17.1862 40.362 22.1574 34.2545 22.1574ZM34.2545 3.39275C30.0176 3.39275 26.5685 6.8391 26.5685 11.0787C26.5685 15.3183 30.0149 18.7647 34.2545 18.7647C38.4941 18.7647 41.9404 15.3183 41.9404 11.0787C41.9404 6.8391 38.4941 3.39275 34.2545 3.39275Z" fill="white"/>
<path d="M16.1088 27.7825C15.1387 27.7825 14.6027 27.7825 14.056 27.6753C11.7888 27.2224 10.0362 25.4698 9.58595 23.2079C9.47608 22.6586 9.47607 22.1226 9.47607 21.1498V20.2011C9.47607 19.1532 10.3256 18.3064 11.3708 18.3064C12.4159 18.3064 13.2655 19.1532 13.2655 20.2011V21.1498C13.2655 21.8331 13.2655 22.2834 13.3003 22.4683C13.4504 23.224 14.0373 23.8056 14.7903 23.9583C14.9725 23.9931 15.4228 23.9931 16.1061 23.9931C16.7895 23.9931 17.2424 23.9931 17.4273 23.9556C18.1777 23.8056 18.7619 23.2213 18.912 22.4683C18.9495 22.286 18.9495 21.8331 18.9495 21.1498V20.2011C18.9495 19.1532 19.799 18.3064 20.8442 18.3064C21.8894 18.3064 22.7389 19.1532 22.7389 20.2011V21.1498C22.7389 22.1226 22.7389 22.6586 22.629 23.2079C22.1788 25.4698 20.4261 27.2224 18.1616 27.6753C17.6096 27.7852 17.0763 27.7852 16.1035 27.7852L16.1088 27.7825Z" fill="white"/>
<path d="M43.7143 59.574C42.3771 59.574 41.0425 59.1318 39.9518 58.2475C39.7454 58.0786 39.5283 57.8669 39.0969 57.4381C38.652 56.996 38.4457 56.7789 38.2849 56.5806C36.5161 54.4045 36.5161 51.2395 38.2902 49.0554C38.4457 48.8625 38.6547 48.6454 39.0728 48.23L40.3055 49.4092L39.0996 48.2032L47.627 39.6758C48.0558 39.247 48.2755 39.0353 48.4738 38.8718C50.6606 37.095 53.8283 37.0977 56.007 38.8664C56.2134 39.0353 56.4305 39.247 56.8619 39.6758C57.3068 40.1179 57.5131 40.335 57.6739 40.5333C59.4427 42.7094 59.4427 45.8744 57.6686 48.0585C57.5131 48.2514 57.3041 48.4685 56.8861 48.8839L48.3318 57.4381C47.903 57.8669 47.6833 58.0786 47.485 58.2421C46.3916 59.1318 45.0516 59.574 43.7143 59.574ZM52.2471 40.9434C51.6736 40.9434 51.1001 41.1336 50.6312 41.5142C50.4945 41.6267 50.3444 41.7795 50.0389 42.0877L41.5115 50.6151L41.4847 50.6419C41.2006 50.926 41.0505 51.0653 40.9433 51.202C40.1796 52.1427 40.1796 53.4987 40.938 54.4313C41.0532 54.5733 41.2006 54.7154 41.4847 54.9968C41.817 55.3291 41.967 55.4845 42.1091 55.6024C43.039 56.3581 44.395 56.3581 45.3303 55.5971C45.467 55.4845 45.6171 55.3317 45.9226 55.0236L54.45 46.4961C54.7609 46.1852 54.9083 46.0459 55.0182 45.9092C55.7819 44.9686 55.7819 43.6125 55.0235 42.6799C54.9083 42.5379 54.7609 42.3959 54.4768 42.1145C54.1445 41.7822 53.9944 41.6267 53.8524 41.5088C53.3888 41.1336 52.818 40.9434 52.2471 40.9434Z" fill="white"/>
<path d="M50.5401 52.8207C50.1033 52.8207 49.6665 52.6546 49.3342 52.3223L44.2182 47.2063C43.5509 46.539 43.5509 45.4617 44.2182 44.7944C44.8855 44.1271 45.9629 44.1271 46.6302 44.7944L51.7461 49.9103C52.4134 50.5776 52.4134 51.655 51.7461 52.3223C51.4138 52.6546 50.977 52.8207 50.5401 52.8207Z" fill="white"/>
<path d="M32.5984 59.0568H27.3994C21.4822 59.0568 18.5129 59.0568 15.9938 57.7704C13.7641 56.6341 11.982 54.8547 10.8457 52.6223C9.56201 50.1032 9.56201 47.1339 9.56201 41.2167V27.0802C9.56201 26.1503 10.3151 25.3972 11.245 25.3972C12.1749 25.3972 12.928 26.1503 12.928 27.0802V41.2167C12.928 46.5952 12.928 49.2939 13.8445 51.0921C14.6565 52.6866 15.9268 53.9569 17.5213 54.7689C19.3222 55.6854 22.0209 55.6855 27.3994 55.6855H32.5984C33.5284 55.6855 34.2814 56.4385 34.2814 57.3684C34.2814 58.2984 33.5284 59.0514 32.5984 59.0514V59.0568Z" fill="white"/>
<path d="M13.8818 44.2453C13.2949 44.2453 12.7107 44.0228 12.2631 43.5753C11.368 42.6802 11.368 41.233 12.2631 40.338L19.129 33.4721C23.1783 29.4227 29.7629 29.4227 33.8095 33.4721C36.0713 35.7339 39.7562 35.7339 42.018 33.4721L50.0283 25.4618C50.9234 24.5668 52.3705 24.5668 53.2656 25.4618C54.1607 26.3569 54.1607 27.8041 53.2656 28.6992L45.2554 36.7094C41.206 40.7587 34.6215 40.7587 30.5749 36.7094C28.313 34.4475 24.6282 34.4475 22.3663 36.7094L15.5004 43.5753C15.0529 44.0228 14.4687 44.2453 13.8818 44.2453Z" fill="white"/>
<path d="M4.22352 16.3203C4.80506 14.916 5.89578 13.8226 7.30005 13.2411C8.34521 12.8069 9.99067 12.8069 13.2655 12.8069H25.0329C24.9284 12.2442 24.8695 11.6653 24.8695 11.0731C24.8695 10.3656 24.9499 9.67683 25.0999 9.01489H13.2655C9.48685 9.01489 7.58948 9.01489 5.84754 9.73578C3.50799 10.7059 1.68566 12.5282 0.720894 14.8651C6.38938e-07 16.6044 0 18.5017 0 22.2804V23.2291C0 24.2019 9.82367e-07 24.7379 0.109877 25.2872C0.5601 27.5491 2.31275 29.3017 4.57995 29.7546C5.12665 29.8618 5.66263 29.8618 6.63275 29.8618C7.60288 29.8618 8.13886 29.8618 8.69092 29.752C10.9554 29.3017 12.7081 27.5464 13.1583 25.2846C13.2682 24.7352 13.2682 24.1992 13.2682 23.2264V22.2777C13.2682 21.2299 12.4187 20.383 11.3735 20.383C10.3283 20.383 9.4788 21.2299 9.4788 22.2777V23.2264C9.4788 23.9098 9.4788 24.36 9.44129 24.5449C9.29121 25.3006 8.707 25.8822 7.95662 26.0323C7.77171 26.0698 7.31881 26.0698 6.63543 26.0698C5.95206 26.0698 5.49916 26.0698 5.3196 26.0349C4.56655 25.8822 3.97965 25.3006 3.82958 24.5449C3.79474 24.3627 3.79474 23.9098 3.79474 23.2264V22.2777C3.79474 19.1047 3.79474 17.3574 4.22888 16.3123L4.22352 16.3203Z" fill="white"/>
<path d="M50.449 16.6471C49.7281 13.032 47.0106 10.202 43.4651 9.31226C43.575 9.88307 43.634 10.4727 43.634 11.0783C43.634 11.8314 43.5429 12.563 43.374 13.2651C45.0865 13.9887 46.3568 15.5135 46.7293 17.3868C46.8391 17.9389 46.8391 18.8098 46.8391 20.3936C46.8391 21.4415 47.6887 22.2883 48.7338 22.2883C49.779 22.2883 50.6285 21.4415 50.6285 20.3936C50.6285 18.5124 50.6285 17.5663 50.4463 16.6498L50.449 16.6471Z" fill="white"/>
<path d="M38.0894 12.9946H30.4169C29.3583 12.9946 28.498 12.137 28.498 11.0758C28.498 10.0145 29.3556 9.15698 30.4169 9.15698H38.0894C39.148 9.15698 40.0082 10.0145 40.0082 11.0758C40.0082 12.137 39.1506 12.9946 38.0894 12.9946Z" fill="white"/>
<path d="M34.2547 16.8319C33.1962 16.8319 32.3359 15.9744 32.3359 14.9131V7.24058C32.3359 6.17934 33.1935 5.32178 34.2547 5.32178C35.316 5.32178 36.1736 6.17934 36.1736 7.24058V14.9131C36.1736 15.9744 35.316 16.8319 34.2547 16.8319Z" fill="white"/>
</svg>
