<svg width="192" height="66" viewBox="0 0 192 66" fill="none" xmlns="http://www.w3.org/2000/svg">
<path d="M4.07313 35.64V41H2.14313V26.67H6.37313C7.27979 26.67 8.06646 26.7767 8.73313 26.99C9.40646 27.1967 9.96313 27.4933 10.4031 27.88C10.8431 28.2667 11.1698 28.7333 11.3831 29.28C11.6031 29.8267 11.7131 30.4367 11.7131 31.11C11.7131 31.7767 11.5965 32.3867 11.3631 32.94C11.1298 33.4933 10.7865 33.97 10.3331 34.37C9.88646 34.77 9.32979 35.0833 8.66313 35.31C7.99646 35.53 7.23313 35.64 6.37313 35.64H4.07313ZM4.07313 34.1H6.37313C6.92646 34.1 7.41313 34.0267 7.83313 33.88C8.25979 33.7333 8.61646 33.53 8.90313 33.27C9.18979 33.0033 9.40646 32.6867 9.55313 32.32C9.69979 31.9533 9.77313 31.55 9.77313 31.11C9.77313 30.1967 9.48979 29.4833 8.92313 28.97C8.36313 28.4567 7.51313 28.2 6.37313 28.2H4.07313V34.1ZM17.6967 30.71C18.4367 30.71 19.1034 30.8333 19.6967 31.08C20.2967 31.3267 20.8034 31.6767 21.2167 32.13C21.6367 32.5833 21.9567 33.1333 22.1767 33.78C22.4034 34.42 22.5167 35.1367 22.5167 35.93C22.5167 36.73 22.4034 37.45 22.1767 38.09C21.9567 38.73 21.6367 39.2767 21.2167 39.73C20.8034 40.1833 20.2967 40.5333 19.6967 40.78C19.1034 41.02 18.4367 41.14 17.6967 41.14C16.9567 41.14 16.2867 41.02 15.6867 40.78C15.0934 40.5333 14.5867 40.1833 14.1667 39.73C13.7467 39.2767 13.4234 38.73 13.1967 38.09C12.9701 37.45 12.8567 36.73 12.8567 35.93C12.8567 35.1367 12.9701 34.42 13.1967 33.78C13.4234 33.1333 13.7467 32.5833 14.1667 32.13C14.5867 31.6767 15.0934 31.3267 15.6867 31.08C16.2867 30.8333 16.9567 30.71 17.6967 30.71ZM17.6967 39.75C18.6967 39.75 19.4434 39.4167 19.9367 38.75C20.4301 38.0767 20.6767 37.14 20.6767 35.94C20.6767 34.7333 20.4301 33.7933 19.9367 33.12C19.4434 32.4467 18.6967 32.11 17.6967 32.11C17.1901 32.11 16.7501 32.1967 16.3767 32.37C16.0034 32.5433 15.6901 32.7933 15.4367 33.12C15.1901 33.4467 15.0034 33.85 14.8767 34.33C14.7567 34.8033 14.6967 35.34 14.6967 35.94C14.6967 36.54 14.7567 37.0767 14.8767 37.55C15.0034 38.0233 15.1901 38.4233 15.4367 38.75C15.6901 39.07 16.0034 39.3167 16.3767 39.49C16.7501 39.6633 17.1901 39.75 17.6967 39.75ZM23.39 30.87H24.79C24.9367 30.87 25.0567 30.9067 25.15 30.98C25.2433 31.0533 25.3067 31.14 25.34 31.24L27.28 37.76C27.3333 38 27.3833 38.2333 27.43 38.46C27.4767 38.68 27.5167 38.9033 27.55 39.13C27.6033 38.9033 27.6633 38.68 27.73 38.46C27.7967 38.2333 27.8667 38 27.94 37.76L30.08 31.2C30.1133 31.1 30.17 31.0167 30.25 30.95C30.3367 30.8833 30.4433 30.85 30.57 30.85H31.34C31.4733 30.85 31.5833 30.8833 31.67 30.95C31.7567 31.0167 31.8167 31.1 31.85 31.2L33.94 37.76C34.0133 37.9933 34.0767 38.2233 34.13 38.45C34.19 38.6767 34.2467 38.9 34.3 39.12C34.3333 38.9 34.3767 38.67 34.43 38.43C34.4833 38.19 34.54 37.9667 34.6 37.76L36.58 31.24C36.6133 31.1333 36.6767 31.0467 36.77 30.98C36.8633 30.9067 36.9733 30.87 37.1 30.87H38.44L35.16 41H33.75C33.5767 41 33.4567 40.8867 33.39 40.66L31.15 33.79C31.0967 33.6367 31.0533 33.4833 31.02 33.33C30.9867 33.17 30.9533 33.0133 30.92 32.86C30.8867 33.0133 30.8533 33.17 30.82 33.33C30.7867 33.49 30.7433 33.6467 30.69 33.8L28.42 40.66C28.3467 40.8867 28.21 41 28.01 41H26.67L23.39 30.87ZM44.0325 30.71C44.6392 30.71 45.1992 30.8133 45.7125 31.02C46.2258 31.22 46.6692 31.5133 47.0425 31.9C47.4158 32.28 47.7058 32.7533 47.9125 33.32C48.1258 33.88 48.2325 34.52 48.2325 35.24C48.2325 35.52 48.2025 35.7067 48.1425 35.8C48.0825 35.8933 47.9692 35.94 47.8025 35.94H41.0625C41.0758 36.58 41.1625 37.1367 41.3225 37.61C41.4825 38.0833 41.7025 38.48 41.9825 38.8C42.2625 39.1133 42.5958 39.35 42.9825 39.51C43.3692 39.6633 43.8025 39.74 44.2825 39.74C44.7292 39.74 45.1125 39.69 45.4325 39.59C45.7592 39.4833 46.0392 39.37 46.2725 39.25C46.5058 39.13 46.6992 39.02 46.8525 38.92C47.0125 38.8133 47.1492 38.76 47.2625 38.76C47.4092 38.76 47.5225 38.8167 47.6025 38.93L48.1025 39.58C47.8825 39.8467 47.6192 40.08 47.3125 40.28C47.0058 40.4733 46.6758 40.6333 46.3225 40.76C45.9758 40.8867 45.6158 40.98 45.2425 41.04C44.8692 41.1067 44.4992 41.14 44.1325 41.14C43.4325 41.14 42.7858 41.0233 42.1925 40.79C41.6058 40.55 41.0958 40.2033 40.6625 39.75C40.2358 39.29 39.9025 38.7233 39.6625 38.05C39.4225 37.3767 39.3025 36.6033 39.3025 35.73C39.3025 35.0233 39.4092 34.3633 39.6225 33.75C39.8425 33.1367 40.1558 32.6067 40.5625 32.16C40.9692 31.7067 41.4658 31.3533 42.0525 31.1C42.6392 30.84 43.2992 30.71 44.0325 30.71ZM44.0725 32.02C43.2125 32.02 42.5358 32.27 42.0425 32.77C41.5492 33.2633 41.2425 33.95 41.1225 34.83H46.6325C46.6325 34.4167 46.5758 34.04 46.4625 33.7C46.3492 33.3533 46.1825 33.0567 45.9625 32.81C45.7425 32.5567 45.4725 32.3633 45.1525 32.23C44.8392 32.09 44.4792 32.02 44.0725 32.02ZM50.5108 41V30.87H51.5308C51.7241 30.87 51.8574 30.9067 51.9308 30.98C52.0041 31.0533 52.0541 31.18 52.0808 31.36L52.2008 32.94C52.5474 32.2333 52.9741 31.6833 53.4808 31.29C53.9941 30.89 54.5941 30.69 55.2808 30.69C55.5608 30.69 55.8141 30.7233 56.0408 30.79C56.2674 30.85 56.4774 30.9367 56.6708 31.05L56.4408 32.38C56.3941 32.5467 56.2908 32.63 56.1308 32.63C56.0374 32.63 55.8941 32.6 55.7008 32.54C55.5074 32.4733 55.2374 32.44 54.8908 32.44C54.2708 32.44 53.7508 32.62 53.3308 32.98C52.9174 33.34 52.5708 33.8633 52.2908 34.55V41H50.5108ZM62.5872 30.71C63.1939 30.71 63.7539 30.8133 64.2672 31.02C64.7805 31.22 65.2239 31.5133 65.5972 31.9C65.9705 32.28 66.2605 32.7533 66.4672 33.32C66.6805 33.88 66.7872 34.52 66.7872 35.24C66.7872 35.52 66.7572 35.7067 66.6972 35.8C66.6372 35.8933 66.5239 35.94 66.3572 35.94H59.6172C59.6305 36.58 59.7172 37.1367 59.8772 37.61C60.0372 38.0833 60.2572 38.48 60.5372 38.8C60.8172 39.1133 61.1505 39.35 61.5372 39.51C61.9239 39.6633 62.3572 39.74 62.8372 39.74C63.2839 39.74 63.6672 39.69 63.9872 39.59C64.3139 39.4833 64.5939 39.37 64.8272 39.25C65.0605 39.13 65.2539 39.02 65.4072 38.92C65.5672 38.8133 65.7039 38.76 65.8172 38.76C65.9639 38.76 66.0772 38.8167 66.1572 38.93L66.6572 39.58C66.4372 39.8467 66.1739 40.08 65.8672 40.28C65.5605 40.4733 65.2305 40.6333 64.8772 40.76C64.5305 40.8867 64.1705 40.98 63.7972 41.04C63.4239 41.1067 63.0539 41.14 62.6872 41.14C61.9872 41.14 61.3405 41.0233 60.7472 40.79C60.1605 40.55 59.6505 40.2033 59.2172 39.75C58.7905 39.29 58.4572 38.7233 58.2172 38.05C57.9772 37.3767 57.8572 36.6033 57.8572 35.73C57.8572 35.0233 57.9639 34.3633 58.1772 33.75C58.3972 33.1367 58.7105 32.6067 59.1172 32.16C59.5239 31.7067 60.0205 31.3533 60.6072 31.1C61.1939 30.84 61.8539 30.71 62.5872 30.71ZM62.6272 32.02C61.7672 32.02 61.0905 32.27 60.5972 32.77C60.1039 33.2633 59.7972 33.95 59.6772 34.83H65.1872C65.1872 34.4167 65.1305 34.04 65.0172 33.7C64.9039 33.3533 64.7372 33.0567 64.5172 32.81C64.2972 32.5567 64.0272 32.3633 63.7072 32.23C63.3939 32.09 63.0339 32.02 62.6272 32.02ZM76.1955 41C75.9421 41 75.7821 40.8767 75.7155 40.63L75.5555 39.4C75.1221 39.9267 74.6255 40.35 74.0655 40.67C73.5121 40.9833 72.8755 41.14 72.1555 41.14C71.5755 41.14 71.0488 41.03 70.5755 40.81C70.1021 40.5833 69.6988 40.2533 69.3655 39.82C69.0321 39.3867 68.7755 38.8467 68.5955 38.2C68.4155 37.5533 68.3255 36.81 68.3255 35.97C68.3255 35.2233 68.4255 34.53 68.6255 33.89C68.8255 33.2433 69.1121 32.6833 69.4855 32.21C69.8655 31.7367 70.3255 31.3667 70.8655 31.1C71.4055 30.8267 72.0188 30.69 72.7055 30.69C73.3255 30.69 73.8555 30.7967 74.2955 31.01C74.7355 31.2167 75.1288 31.51 75.4755 31.89V26.27H77.2555V41H76.1955ZM72.7455 39.7C73.3255 39.7 73.8321 39.5667 74.2655 39.3C74.7055 39.0333 75.1088 38.6567 75.4755 38.17V33.27C75.1488 32.83 74.7888 32.5233 74.3955 32.35C74.0088 32.17 73.5788 32.08 73.1055 32.08C72.1588 32.08 71.4321 32.4167 70.9255 33.09C70.4188 33.7633 70.1655 34.7233 70.1655 35.97C70.1655 36.63 70.2221 37.1967 70.3355 37.67C70.4488 38.1367 70.6155 38.5233 70.8355 38.83C71.0555 39.13 71.3255 39.35 71.6455 39.49C71.9655 39.63 72.3321 39.7 72.7455 39.7ZM84.1645 41V26.27H85.9545V32.33C86.3745 31.8433 86.8545 31.4533 87.3945 31.16C87.9412 30.86 88.5645 30.71 89.2645 30.71C89.8512 30.71 90.3812 30.82 90.8545 31.04C91.3279 31.26 91.7312 31.59 92.0645 32.03C92.3979 32.4633 92.6545 33.0033 92.8345 33.65C93.0145 34.29 93.1045 35.03 93.1045 35.87C93.1045 36.6167 93.0045 37.3133 92.8045 37.96C92.6045 38.6 92.3145 39.1567 91.9345 39.63C91.5612 40.0967 91.1012 40.4667 90.5545 40.74C90.0145 41.0067 89.4045 41.14 88.7245 41.14C88.0712 41.14 87.5145 41.0133 87.0545 40.76C86.6012 40.5067 86.2045 40.1533 85.8645 39.7L85.7745 40.62C85.7212 40.8733 85.5679 41 85.3145 41H84.1645ZM88.6845 32.13C88.1045 32.13 87.5945 32.2633 87.1545 32.53C86.7212 32.7967 86.3212 33.1733 85.9545 33.66V38.56C86.2745 39 86.6279 39.31 87.0145 39.49C87.4079 39.67 87.8445 39.76 88.3245 39.76C89.2712 39.76 89.9979 39.4233 90.5045 38.75C91.0112 38.0767 91.2645 37.1167 91.2645 35.87C91.2645 35.21 91.2045 34.6433 91.0845 34.17C90.9712 33.6967 90.8045 33.31 90.5845 33.01C90.3645 32.7033 90.0945 32.48 89.7745 32.34C89.4545 32.2 89.0912 32.13 88.6845 32.13ZM97.9925 43.99C97.9325 44.1233 97.8558 44.23 97.7625 44.31C97.6758 44.39 97.5392 44.43 97.3525 44.43H96.0325L97.8825 40.41L93.7025 30.87H95.2425C95.3958 30.87 95.5158 30.91 95.6025 30.99C95.6892 31.0633 95.7525 31.1467 95.7925 31.24L98.5025 37.62C98.5625 37.7667 98.6125 37.9133 98.6525 38.06C98.6992 38.2067 98.7392 38.3567 98.7725 38.51C98.8192 38.3567 98.8658 38.2067 98.9125 38.06C98.9592 37.9133 99.0125 37.7633 99.0725 37.61L101.703 31.24C101.743 31.1333 101.809 31.0467 101.903 30.98C102.003 30.9067 102.109 30.87 102.223 30.87H103.643L97.9925 43.99Z" fill="white"/>
<g filter="url(#filter0_d_4_3023)">
<path d="M188.033 27.8509L143.104 1.90934C142.201 1.38845 141.178 1.11424 140.136 1.11426C139.094 1.11428 138.071 1.38853 137.169 1.90944C136.266 2.43036 135.517 3.17959 134.996 4.08184C134.475 4.98408 134.201 6.00757 134.201 7.04941V58.9324C134.201 59.9744 134.476 60.9978 134.996 61.9001C135.517 62.8019 136.267 63.5512 137.169 64.0724C138.071 64.5932 139.094 64.8673 140.136 64.8673C141.178 64.8673 142.201 64.5932 143.104 64.0724L188.033 38.1307C188.935 37.6097 189.684 36.8604 190.205 35.9582C190.726 35.056 191 34.0326 191 32.9908C191 31.949 190.726 30.9256 190.205 30.0233C189.684 29.1211 188.935 28.3719 188.033 27.8509Z" fill="#1FA45E"/>
</g>
<path d="M159.88 11.1793L142.978 1.785C138.988 -0.4454 134 2.34252 134 6.80367V57.4606C134 61.9214 138.988 64.7094 142.978 62.479L160.786 52.4714C177.742 43.1563 196.1 29.8526 159.88 11.1793Z" fill="#0C2B41"/>
<path d="M186.869 28.0826L143.663 3.13683C142.796 2.63585 141.812 2.3721 140.81 2.37207C139.808 2.37204 138.824 2.63575 137.956 3.13668C137.089 3.63761 136.368 4.35811 135.867 5.22577C135.366 6.09346 135.103 7.07767 135.103 8.07959V57.9713C135.103 58.9734 135.366 59.9577 135.867 60.8254C136.368 61.6931 137.089 62.4135 137.956 62.9143C138.824 63.4151 139.808 63.6791 140.81 63.6791C141.812 63.6791 142.796 63.4151 143.663 62.9143L186.869 37.9684C187.736 37.4675 188.457 36.747 188.958 35.8794C189.459 35.0117 189.722 34.0274 189.722 33.0255C189.722 32.0236 189.459 31.0394 188.958 30.1717C188.457 29.304 187.736 28.5835 186.869 28.0826Z" fill="url(#paint0_linear_4_3023)"/>
<path d="M184.555 27.4665L166.982 16.542C146.574 26.404 135.285 43.3821 135.285 47.7023V56.8582C135.285 61.1785 139.812 63.8787 143.433 61.7201L184.556 37.1905C188.177 35.0279 188.177 29.6267 184.555 27.4665Z" fill="url(#paint1_linear_4_3023)"/>
<path d="M187.939 37.5459C188.806 37.045 189.527 36.3245 190.028 35.4568C190.529 34.5892 190.792 33.6049 190.792 32.603C190.792 31.6011 190.529 30.6169 190.028 29.7492C189.527 28.8815 188.806 28.161 187.939 27.6601L168.102 15.9385C167.717 16.1185 167.342 16.3199 166.98 16.5418C185.409 30.7369 176.362 44.322 161.713 52.6326" fill="#1FA45E"/>
<path d="M152.08 34.6937C152.08 35.417 151.947 36.0294 151.682 36.5308C151.424 37.025 151.099 37.4297 150.705 37.7448C150.318 38.0528 149.895 38.2748 149.437 38.4109C148.979 38.547 148.553 38.615 148.159 38.615H139.199V35.8217H148.159C148.538 35.8217 148.818 35.725 148.997 35.5317C149.183 35.3383 149.276 35.0589 149.276 34.6937V32.3194H139.199V29.5046H149.276V27.1518C149.276 26.3855 148.904 26.0023 148.159 26.0023H139.199V23.209H148.159C148.639 23.209 149.068 23.2699 149.448 23.3917C149.827 23.5134 150.16 23.6781 150.447 23.8858C150.741 24.0864 150.991 24.3191 151.199 24.5841C151.407 24.8492 151.575 25.1285 151.704 25.4221C151.833 25.7086 151.926 26.0023 151.983 26.3031C152.048 26.5968 152.08 26.8725 152.08 27.1303V34.6937ZM159.686 38.615H156.882V26.0023H154.357V23.209H159.686V38.615ZM178.217 37.2076C178.217 37.4081 178.181 37.5944 178.11 37.7663C178.038 37.9382 177.938 38.0886 177.809 38.2175C177.687 38.3393 177.54 38.4359 177.368 38.5076C177.196 38.5792 177.01 38.615 176.81 38.615H166.733C166.475 38.615 166.196 38.5863 165.895 38.529C165.601 38.4646 165.308 38.3679 165.014 38.239C164.728 38.1101 164.452 37.9453 164.187 37.7448C163.922 37.5371 163.686 37.29 163.478 37.0035C163.277 36.7098 163.116 36.3732 162.994 35.9936C162.873 35.6069 162.812 35.1735 162.812 34.6937V27.1303C162.812 26.8725 162.84 26.5968 162.898 26.3031C162.962 26.0023 163.059 25.7086 163.188 25.4221C163.317 25.1285 163.485 24.8492 163.693 24.5841C163.9 24.3191 164.148 24.0864 164.434 23.8858C164.728 23.6781 165.064 23.5134 165.444 23.3917C165.823 23.2699 166.253 23.209 166.733 23.209H178.088V26.0023H166.733C166.368 26.0023 166.088 26.099 165.895 26.2924C165.702 26.4857 165.605 26.7722 165.605 27.1518V34.6937C165.605 35.0518 165.702 35.3311 165.895 35.5317C166.096 35.725 166.375 35.8217 166.733 35.8217H175.424V32.3194H167.99V29.5046H176.81C177.01 29.5046 177.196 29.544 177.368 29.6228C177.54 29.6944 177.687 29.7947 177.809 29.9236C177.938 30.0525 178.038 30.2029 178.11 30.3748C178.181 30.5396 178.217 30.7186 178.217 30.912V37.2076Z" fill="white"/>
<defs>
<filter id="filter0_d_4_3023" x="133.603" y="0.582177" width="58.3951" height="65.3492" filterUnits="userSpaceOnUse" color-interpolation-filters="sRGB">
<feFlood flood-opacity="0" result="BackgroundImageFix"/>
<feColorMatrix in="SourceAlpha" type="matrix" values="0 0 0 0 0 0 0 0 0 0 0 0 0 0 0 0 0 0 127 0" result="hardAlpha"/>
<feOffset dx="0.19953" dy="0.26604"/>
<feGaussianBlur stdDeviation="0.39906"/>
<feComposite in2="hardAlpha" operator="out"/>
<feColorMatrix type="matrix" values="0 0 0 0 0 0 0 0 0 0 0 0 0 0 0 0 0 0 0.39 0"/>
<feBlend mode="normal" in2="BackgroundImageFix" result="effect1_dropShadow_4_3023"/>
<feBlend mode="normal" in="SourceGraphic" in2="effect1_dropShadow_4_3023" result="shape"/>
</filter>
<linearGradient id="paint0_linear_4_3023" x1="165.253" y1="50.4367" x2="133.304" y2="6.54559" gradientUnits="userSpaceOnUse">
<stop stop-color="#0C2B41"/>
<stop offset="1" stop-color="#1FA45E"/>
</linearGradient>
<linearGradient id="paint1_linear_4_3023" x1="137.884" y1="61.8363" x2="171.21" y2="19.193" gradientUnits="userSpaceOnUse">
<stop offset="0.063" stop-color="#1FA45E"/>
<stop offset="0.181" stop-color="#198356"/>
<stop offset="0.341" stop-color="#135D4D"/>
<stop offset="0.489" stop-color="#0F4146"/>
<stop offset="0.619" stop-color="#0C3042"/>
<stop offset="0.717" stop-color="#0C2B41"/>
</linearGradient>
</defs>
</svg>
