<svg width="28" height="29" viewBox="0 0 28 29" fill="none" xmlns="http://www.w3.org/2000/svg">
<path d="M12.056 12.9085V8.20829H14.4061V12.9085H19.1063V15.2586H14.4061V19.9588H12.056V15.2586H7.35575V12.9085H12.056ZM13.231 25.8341C6.74119 25.8341 1.48047 20.5734 1.48047 14.0836C1.48047 7.59373 6.74119 2.33301 13.231 2.33301C19.7209 2.33301 24.9816 7.59373 24.9816 14.0836C24.9816 20.5734 19.7209 25.8341 13.231 25.8341ZM13.231 23.484C15.7242 23.484 18.1152 22.4936 19.8781 20.7307C21.6411 18.9678 22.6315 16.5767 22.6315 14.0836C22.6315 11.5904 21.6411 9.19937 19.8781 7.43645C18.1152 5.67352 15.7242 4.68312 13.231 4.68312C10.7379 4.68312 8.34683 5.67352 6.58391 7.43645C4.82098 9.19937 3.83058 11.5904 3.83058 14.0836C3.83058 16.5767 4.82098 18.9678 6.58391 20.7307C8.34683 22.4936 10.7379 23.484 13.231 23.484Z" fill="#425CDA"/>
</svg>
