<svg width="19" height="19" viewBox="0 0 19 19" fill="none" xmlns="http://www.w3.org/2000/svg">
<path d="M17.5864 7.23363C17.2846 6.91813 16.9722 6.59301 16.8545 6.30713C16.7456 6.04527 16.7392 5.61125 16.7328 5.19084C16.7208 4.40928 16.708 3.52361 16.0922 2.90781C15.4764 2.29201 14.5907 2.2792 13.8092 2.26719C13.3888 2.26078 12.9547 2.25437 12.6929 2.14547C12.4078 2.02775 12.0819 1.71545 11.7664 1.41355C11.2138 0.882637 10.586 0.28125 9.75 0.28125C8.91398 0.28125 8.28697 0.882637 7.73363 1.41355C7.41813 1.71545 7.09301 2.02775 6.80713 2.14547C6.54688 2.25437 6.11125 2.26078 5.69084 2.26719C4.90928 2.2792 4.02361 2.29201 3.40781 2.90781C2.79201 3.52361 2.7832 4.40928 2.76719 5.19084C2.76078 5.61125 2.75437 6.04527 2.64547 6.30713C2.52775 6.59221 2.21545 6.91813 1.91355 7.23363C1.38264 7.78617 0.78125 8.41398 0.78125 9.25C0.78125 10.086 1.38264 10.713 1.91355 11.2664C2.21545 11.5819 2.52775 11.907 2.64547 12.1929C2.75437 12.4547 2.76078 12.8888 2.76719 13.3092C2.7792 14.0907 2.79201 14.9764 3.40781 15.5922C4.02361 16.208 4.90928 16.2208 5.69084 16.2328C6.11125 16.2392 6.54527 16.2456 6.80713 16.3545C7.09221 16.4722 7.41813 16.7846 7.73363 17.0864C8.28617 17.6174 8.91398 18.2188 9.75 18.2188C10.586 18.2188 11.213 17.6174 11.7664 17.0864C12.0819 16.7846 12.407 16.4722 12.6929 16.3545C12.9547 16.2456 13.3888 16.2392 13.8092 16.2328C14.5907 16.2208 15.4764 16.208 16.0922 15.5922C16.708 14.9764 16.7208 14.0907 16.7328 13.3092C16.7392 12.8888 16.7456 12.4547 16.8545 12.1929C16.9722 11.9078 17.2846 11.5819 17.5864 11.2664C18.1174 10.7138 18.7188 10.086 18.7188 9.25C18.7188 8.41398 18.1174 7.78697 17.5864 7.23363ZM16.6615 10.3799C16.278 10.7803 15.8808 11.1943 15.6702 11.7028C15.4684 12.1913 15.4596 12.7494 15.4516 13.2899C15.4436 13.8505 15.4347 14.4375 15.1857 14.6857C14.9367 14.9339 14.3537 14.9436 13.7899 14.9516C13.2494 14.9596 12.6913 14.9684 12.2028 15.1702C11.6943 15.3808 11.2803 15.778 10.8799 16.1615C10.4795 16.5451 10.0703 16.9375 9.75 16.9375C9.42969 16.9375 9.01729 16.5435 8.6201 16.1615C8.22291 15.7796 7.8057 15.3808 7.29721 15.1702C6.80873 14.9684 6.25059 14.9596 5.71006 14.9516C5.14951 14.9436 4.56254 14.9347 4.3143 14.6857C4.06605 14.4367 4.05645 13.8537 4.04844 13.2899C4.04043 12.7494 4.03162 12.1913 3.82982 11.7028C3.61922 11.1943 3.22203 10.7803 2.83846 10.3799C2.45488 9.97951 2.0625 9.57031 2.0625 9.25C2.0625 8.92969 2.45648 8.51729 2.83846 8.1201C3.22043 7.72291 3.61922 7.3057 3.82982 6.79721C4.03162 6.30873 4.04043 5.75059 4.04844 5.21006C4.05645 4.64951 4.06525 4.06254 4.3143 3.8143C4.56334 3.56605 5.14631 3.55645 5.71006 3.54844C6.25059 3.54043 6.80873 3.53162 7.29721 3.32982C7.8057 3.11922 8.21971 2.72203 8.6201 2.33846C9.02049 1.95488 9.42969 1.5625 9.75 1.5625C10.0703 1.5625 10.4827 1.95648 10.8799 2.33846C11.2771 2.72043 11.6943 3.11922 12.2028 3.32982C12.6913 3.53162 13.2494 3.54043 13.7899 3.54844C14.3505 3.55645 14.9375 3.56525 15.1857 3.8143C15.4339 4.06334 15.4436 4.64631 15.4516 5.21006C15.4596 5.75059 15.4684 6.30873 15.6702 6.79721C15.8808 7.3057 16.278 7.71971 16.6615 8.1201C17.0451 8.52049 17.4375 8.92969 17.4375 9.25C17.4375 9.57031 17.0435 9.98271 16.6615 10.3799ZM10.7109 13.4141C10.7109 13.6041 10.6546 13.7899 10.549 13.9479C10.4434 14.106 10.2933 14.2291 10.1177 14.3019C9.94215 14.3746 9.74893 14.3936 9.56253 14.3565C9.37613 14.3195 9.2049 14.2279 9.07051 14.0935C8.93612 13.9592 8.8446 13.7879 8.80753 13.6015C8.77045 13.4151 8.78948 13.2219 8.86221 13.0463C8.93494 12.8707 9.05811 12.7207 9.21613 12.6151C9.37416 12.5095 9.55994 12.4531 9.75 12.4531C10.0049 12.4531 10.2493 12.5544 10.4295 12.7346C10.6097 12.9148 10.7109 13.1592 10.7109 13.4141ZM12.9531 7.64844C12.9531 9.0402 11.8512 10.2053 10.3906 10.4736V10.5312C10.3906 10.7012 10.3231 10.8641 10.203 10.9842C10.0829 11.1044 9.9199 11.1719 9.75 11.1719C9.5801 11.1719 9.41715 11.1044 9.29701 10.9842C9.17687 10.8641 9.10938 10.7012 9.10938 10.5312V9.89062C9.10938 9.72072 9.17687 9.55777 9.29701 9.43763C9.41715 9.31749 9.5801 9.25 9.75 9.25C10.8094 9.25 11.6719 8.5293 11.6719 7.64844C11.6719 6.76758 10.8094 6.04688 9.75 6.04688C8.69057 6.04688 7.82812 6.76758 7.82812 7.64844V7.96875C7.82812 8.13865 7.76063 8.3016 7.64049 8.42174C7.52035 8.54188 7.3574 8.60938 7.1875 8.60938C7.0176 8.60938 6.85465 8.54188 6.73451 8.42174C6.61437 8.3016 6.54688 8.13865 6.54688 7.96875V7.64844C6.54688 6.05889 7.98348 4.76562 9.75 4.76562C11.5165 4.76562 12.9531 6.05889 12.9531 7.64844Z" fill="white"/>
</svg>
