<svg width="15" height="15" viewBox="0 0 15 15" fill="none" xmlns="http://www.w3.org/2000/svg">
<path fill-rule="evenodd" clip-rule="evenodd" d="M7.08334 0C10.9955 0 14.1667 3.17121 14.1667 7.08333C14.1692 8.71809 13.6038 10.303 12.5673 11.5671L12.5814 11.5827L12.4879 11.662C11.8237 12.4477 10.9959 13.0789 10.0624 13.5115C9.12889 13.9441 8.11221 14.1677 7.08334 14.1667C4.99376 14.1667 3.11667 13.2621 1.82042 11.8242L1.67876 11.6613L1.58526 11.5834L1.59942 11.5664C0.562961 10.3025 -0.00238526 8.71786 7.5646e-06 7.08333C7.5646e-06 3.17121 3.17122 0 7.08334 0ZM7.08334 10.625C5.76584 10.625 4.57513 11.0443 3.6883 11.6209C4.66751 12.3556 5.85913 12.7519 7.08334 12.75C8.30755 12.7519 9.49917 12.3556 10.4784 11.6209C9.46502 10.9716 8.2869 10.626 7.08334 10.625ZM7.08334 1.41667C6.01696 1.41664 4.97222 1.71751 4.06919 2.28469C3.16616 2.85188 2.44149 3.66236 1.9785 4.62299C1.5155 5.58361 1.33295 6.65538 1.45184 7.71511C1.57073 8.77484 1.98624 9.77952 2.65059 10.6137C3.7988 9.78987 5.36563 9.20833 7.08334 9.20833C8.80105 9.20833 10.3679 9.78987 11.5161 10.6137C12.1804 9.77952 12.5959 8.77484 12.7148 7.71511C12.8337 6.65538 12.6512 5.58361 12.1882 4.62299C11.7252 3.66236 11.0005 2.85188 10.0975 2.28469C9.19447 1.71751 8.14972 1.41664 7.08334 1.41667ZM7.08334 2.83333C7.83479 2.83333 8.55546 3.13184 9.08681 3.6632C9.61816 4.19455 9.91667 4.91522 9.91667 5.66667C9.91667 6.41811 9.61816 7.13878 9.08681 7.67014C8.55546 8.20149 7.83479 8.5 7.08334 8.5C6.33189 8.5 5.61122 8.20149 5.07987 7.67014C4.54852 7.13878 4.25001 6.41811 4.25001 5.66667C4.25001 4.91522 4.54852 4.19455 5.07987 3.6632C5.61122 3.13184 6.33189 2.83333 7.08334 2.83333ZM7.08334 4.25C6.70762 4.25 6.34728 4.39926 6.08161 4.66493C5.81593 4.93061 5.66667 5.29094 5.66667 5.66667C5.66667 6.04239 5.81593 6.40272 6.08161 6.6684C6.34728 6.93408 6.70762 7.08333 7.08334 7.08333C7.45906 7.08333 7.8194 6.93408 8.08507 6.6684C8.35075 6.40272 8.50001 6.04239 8.50001 5.66667C8.50001 5.29094 8.35075 4.93061 8.08507 4.66493C7.8194 4.39926 7.45906 4.25 7.08334 4.25Z" fill="#425CDA"/>
</svg>
