<svg width="35" height="34" viewBox="0 0 35 34" fill="none" xmlns="http://www.w3.org/2000/svg">
<path d="M13.75 29.125V29.125C13.75 29.6998 13.75 29.9872 13.7876 30.2278C13.998 31.5723 15.0527 32.627 16.3972 32.8374C16.6378 32.875 16.9252 32.875 17.5 32.875V32.875C18.0748 32.875 18.3622 32.875 18.6028 32.8374C19.9473 32.627 21.002 31.5723 21.2124 30.2278C21.25 29.9872 21.25 29.6998 21.25 29.125V29.125" stroke="#323463" stroke-width="2" stroke-linecap="round" stroke-linejoin="round"/>
<path d="M17.5 4.75V1" stroke="#323463" stroke-width="2" stroke-linecap="round" stroke-linejoin="round"/>
<path d="M24.1012 27.25H10.8988C8.80185 27.25 7.7534 27.25 7.12163 27.0153C5.23013 26.3128 4.23366 24.2395 4.86665 22.3236C5.07807 21.6837 5.73304 20.865 7.04297 19.2275C7.30002 18.9062 7.42855 18.7456 7.53642 18.5765C7.84774 18.0885 8.04187 17.5351 8.10361 16.9595C8.125 16.7601 8.125 16.5544 8.125 16.1429V14.125C8.125 12.3825 8.125 11.5113 8.26911 10.7868C8.86091 7.81164 11.1866 5.48591 14.1618 4.89411C14.8863 4.75 15.7575 4.75 17.5 4.75C19.2425 4.75 20.1137 4.75 20.8382 4.89411C23.8134 5.48591 26.1391 7.81164 26.7309 10.7868C26.875 11.5113 26.875 12.3825 26.875 14.125V16.1429C26.875 16.5544 26.875 16.7601 26.8964 16.9595C26.9581 17.5351 27.1523 18.0885 27.4636 18.5765C27.5715 18.7456 27.7 18.9062 27.957 19.2275L27.957 19.2275C29.267 20.865 29.9219 21.6837 30.1334 22.3236C30.7663 24.2395 29.7699 26.3128 27.8784 27.0153C27.2466 27.25 26.1981 27.25 24.1012 27.25Z" stroke="#323463" stroke-width="2" stroke-linejoin="round"/>
</svg>
