<svg width="41" height="35" viewBox="0 0 41 35" fill="none" xmlns="http://www.w3.org/2000/svg">
<path d="M29.4484 34.53H10.7546C3.9274 34.53 0 30.6167 0 23.7755V10.7405C0 3.91331 3.9274 0 10.7546 0H29.4484C36.2896 0 40.203 3.91331 40.203 10.7405V23.8317C40.1607 30.6167 36.2756 34.53 29.4484 34.53ZM10.7546 2.74496C5.40545 2.74496 2.80124 5.34913 2.80124 10.6983V23.7895C2.80124 29.1386 5.40545 31.7288 10.7546 31.7288H29.4484C34.7975 31.7288 37.4017 29.1386 37.4017 23.7895V10.7405C37.4017 5.39136 34.7975 2.78719 29.4484 2.78719L10.7546 2.74496Z" fill="#5B3F88"/>
<path d="M20.0877 18.8623C18.5119 18.8965 16.9703 18.4008 15.7098 17.4546L9.88209 12.7812C9.62563 12.5392 9.46938 12.2096 9.44426 11.8579C9.41913 11.5061 9.5269 11.1577 9.74634 10.8817C9.96578 10.6056 10.2809 10.4219 10.6292 10.3671C10.9776 10.3122 11.3339 10.3901 11.6276 10.5853L17.4553 15.2587C18.2228 15.8088 19.1434 16.1046 20.0877 16.1046C21.0319 16.1046 21.9525 15.8088 22.72 15.2587L28.5759 10.5993C28.709 10.4709 28.866 10.3699 29.0381 10.3021C29.2103 10.2343 29.3941 10.2011 29.5791 10.2044C29.764 10.2077 29.9466 10.2473 30.1162 10.3211C30.2859 10.3949 30.4393 10.5014 30.5678 10.6345C30.6963 10.7676 30.7971 10.9247 30.8649 11.0969C30.9327 11.269 30.966 11.4528 30.9627 11.6377C30.9594 11.8227 30.9196 12.0052 30.8458 12.1748C30.772 12.3445 30.6657 12.4979 30.5326 12.6264L30.3214 12.7812L24.4655 17.4546C23.2091 18.4088 21.6647 18.9054 20.0877 18.8623Z" fill="#5B3F88"/>
</svg>
