<svg width="18" height="18" viewBox="0 0 18 18" fill="none" xmlns="http://www.w3.org/2000/svg">
<path d="M3.2381 1H14.4286C15.0222 1 15.5914 1.2358 16.0111 1.65552C16.4309 2.07525 16.6667 2.64452 16.6667 3.2381V14.4286C16.6667 15.0222 16.4309 15.5914 16.0111 16.0111C15.5914 16.4309 15.0222 16.6667 14.4286 16.6667H3.2381C2.64452 16.6667 2.07525 16.4309 1.65552 16.0111C1.2358 15.5914 1 15.0222 1 14.4286V3.2381C1 2.64452 1.2358 2.07525 1.65552 1.65552C2.07525 1.2358 2.64452 1 3.2381 1Z" fill="#323464" stroke="black" stroke-width="1.51613" stroke-linecap="round" stroke-linejoin="round"/>
<path d="M4.47437 9.02445L7.12759 11.6777L12.434 5.99219" stroke="#F7F7F7" stroke-width="1.1371" stroke-linecap="round" stroke-linejoin="round"/>
</svg>
