<svg width="36" height="37" viewBox="0 0 36 37" fill="none" xmlns="http://www.w3.org/2000/svg">
<path d="M3.74981 29.9063C3.74981 32.0171 5.12753 33.744 6.81993 33.744C7.19035 33.7357 7.55522 33.6521 7.89234 33.4984C8.22946 33.3447 8.5318 33.124 8.78097 32.8498C9.06379 32.5618 9.4487 32.3967 9.85233 32.3904C10.256 32.3841 10.6458 32.537 10.9375 32.8161C11.2292 33.0952 11.3992 33.4779 11.4108 33.8814C11.4223 34.285 11.2744 34.6768 10.9991 34.972C10.4646 35.5474 9.81825 36.0076 9.09962 36.3243C8.38099 36.6411 7.60525 36.8078 6.81993 36.8141C3.4332 36.8141 0.679688 33.7152 0.679688 29.9063C0.679688 26.0975 3.4332 22.9986 6.81993 22.9986C7.60525 23.0049 8.38099 23.1716 9.09962 23.4883C9.81825 23.8051 10.4646 24.2653 10.9991 24.8406C11.2744 25.1359 11.4223 25.5277 11.4108 25.9313C11.3992 26.3348 11.2292 26.7175 10.9375 26.9966C10.6458 27.2757 10.256 27.4286 9.85233 27.4223C9.4487 27.416 9.06379 27.2509 8.78097 26.9629C8.5318 26.6887 8.22946 26.468 7.89234 26.3143C7.55522 26.1605 7.19035 26.077 6.81993 26.0687C5.12753 26.0687 3.74981 27.7956 3.74981 29.9063ZM19.0237 28.2389C18.2561 28.0163 17.4617 27.788 17.0185 27.5021C16.7786 27.3466 16.7825 27.3102 16.8036 27.1375C16.8069 26.998 16.8435 26.8614 16.9102 26.7389C16.977 26.6165 17.072 26.5117 17.1873 26.4333C18.07 25.8346 20.1308 26.1013 20.9905 26.3258C21.3844 26.4314 21.8041 26.3762 22.1573 26.1724C22.5104 25.9685 22.7682 25.6327 22.8738 25.2388C22.9794 24.8449 22.9242 24.4252 22.7203 24.072C22.5165 23.7188 22.1807 23.4611 21.7868 23.3555C21.38 23.2499 17.7572 22.3538 15.4854 23.8851C15.0049 24.2075 14.6012 24.6316 14.3028 25.1273C14.0044 25.623 13.8185 26.1782 13.7584 26.7537C13.3746 29.8008 16.3776 30.67 18.1717 31.1881C20.4858 31.8578 20.6892 32.1322 20.624 32.6445C20.5645 33.1069 20.3822 33.2854 20.2133 33.3986C19.3307 33.9858 17.3025 33.6979 16.462 33.4677C16.0692 33.358 15.6488 33.4089 15.2935 33.6092C14.9381 33.8094 14.6769 34.1426 14.5672 34.5355C14.4575 34.9284 14.5084 35.3487 14.7087 35.7041C14.9089 36.0594 15.2421 36.3207 15.635 36.4304C16.5867 36.6796 17.5659 36.8085 18.5497 36.8141C19.6665 36.8141 20.9099 36.6222 21.9057 35.9583C22.3973 35.6317 22.8103 35.2002 23.1152 34.6949C23.4202 34.1896 23.6093 33.6231 23.6691 33.0359C24.0894 29.7145 20.9214 28.7877 19.0237 28.2389ZM34.9672 23.0888C34.7773 23.0208 34.5759 22.9909 34.3745 23.0008C34.1731 23.0107 33.9756 23.0601 33.7933 23.1464C33.611 23.2326 33.4475 23.354 33.3121 23.5034C33.1767 23.6529 33.0721 23.8276 33.0042 24.0175L30.6134 30.7142L28.2206 24.0175C28.0837 23.634 27.8001 23.3206 27.4321 23.1463C27.0642 22.9719 26.6421 22.9509 26.2586 23.0878C25.8751 23.2247 25.5618 23.5083 25.3874 23.8763C25.2131 24.2442 25.192 24.6663 25.3289 25.0498L29.1666 35.7952C29.273 36.0935 29.4691 36.3516 29.7279 36.5341C29.9867 36.7166 30.2957 36.8146 30.6124 36.8146C30.9291 36.8146 31.2381 36.7166 31.4969 36.5341C31.7558 36.3516 31.9518 36.0935 32.0583 35.7952L35.8959 25.0498C36.0326 24.6666 36.0116 24.2448 35.8374 23.8771C35.6633 23.5094 35.3503 23.2258 34.9672 23.0888ZM35.9861 12.2531V16.8583C35.9861 17.2655 35.8244 17.6559 35.5365 17.9438C35.2486 18.2317 34.8582 18.3934 34.451 18.3934C34.0439 18.3934 33.6535 18.2317 33.3656 17.9438C33.0777 17.6559 32.916 17.2655 32.916 16.8583V13.7882H23.7056C23.2985 13.7882 22.908 13.6265 22.6201 13.3386C22.3323 13.0507 22.1705 12.6603 22.1705 12.2531V3.04278H5.28487V16.8583C5.28487 17.2655 5.12314 17.6559 4.83526 17.9438C4.54738 18.2317 4.15693 18.3934 3.74981 18.3934C3.34269 18.3934 2.95224 18.2317 2.66436 17.9438C2.37648 17.6559 2.21475 17.2655 2.21475 16.8583V3.04278C2.21475 2.22853 2.53821 1.44763 3.11397 0.871874C3.68973 0.296115 4.47062 -0.0273433 5.28487 -0.0273433H23.7056C23.9072 -0.0275018 24.107 0.0120702 24.2933 0.089112C24.4797 0.166154 24.649 0.279156 24.7917 0.421662L35.5371 11.1671C35.6796 11.3098 35.7926 11.4791 35.8696 11.6654C35.9467 11.8518 35.9862 12.0515 35.9861 12.2531ZM30.7458 10.7181L25.2407 5.21297V10.7181H30.7458Z" fill="#2A44C1"/>
</svg>
