<svg width="20" height="20" viewBox="0 0 20 20" fill="none" xmlns="http://www.w3.org/2000/svg">
<path d="M12.7071 9.29289L15.3333 6.66667C15.7015 6.29848 16.2985 6.29848 16.6667 6.66667C18.5076 8.50762 18.5076 11.4924 16.6667 13.3333C16.2985 13.7015 15.7015 13.7015 15.3333 13.3333L12.7071 10.7071C12.3166 10.3166 12.3166 9.68342 12.7071 9.29289Z" stroke="#BABABA" stroke-width="1.5" stroke-linecap="round" stroke-linejoin="round"/>
<path d="M9.29289 7.29289L6.66667 4.66667C6.29848 4.29848 6.29848 3.70152 6.66667 3.33333C8.50762 1.49238 11.4924 1.49238 13.3333 3.33333C13.7015 3.70152 13.7015 4.29848 13.3333 4.66667L10.7071 7.29289C10.3166 7.68342 9.68342 7.68342 9.29289 7.29289Z" stroke="#BABABA" stroke-width="1.5" stroke-linecap="round" stroke-linejoin="round"/>
<path d="M7.29289 9.29289L4.66667 6.66667C4.29848 6.29848 3.70152 6.29848 3.33333 6.66667C1.49238 8.50762 1.49238 11.4924 3.33333 13.3333C3.70152 13.7015 4.29848 13.7015 4.66667 13.3333L7.29289 10.7071C7.68342 10.3166 7.68342 9.68342 7.29289 9.29289Z" stroke="#BABABA" stroke-width="1.5" stroke-linecap="round" stroke-linejoin="round"/>
<path d="M9.29289 12.7071L6.66667 15.3333C6.29848 15.7015 6.29848 16.2985 6.66667 16.6667C8.50762 18.5076 11.4924 18.5076 13.3333 16.6667C13.7015 16.2985 13.7015 15.7015 13.3333 15.3333L10.7071 12.7071C10.3166 12.3166 9.68342 12.3166 9.29289 12.7071Z" stroke="#BABABA" stroke-width="1.5" stroke-linecap="round" stroke-linejoin="round"/>
</svg>
