<svg width="16" height="16" viewBox="0 0 16 16" fill="none" xmlns="http://www.w3.org/2000/svg">
<path d="M7.99903 3.99922C7.71569 3.99922 7.47802 4.09522 7.28603 4.28722C7.09403 4.47922 6.99836 4.71655 6.99903 4.99922V12.1492L5.12403 10.2742C4.92403 10.0742 4.69069 9.97422 4.42403 9.97422C4.15736 9.97422 3.91569 10.0826 3.69902 10.2992C3.49902 10.4992 3.40336 10.7366 3.41203 11.0112C3.42069 11.2859 3.51636 11.5152 3.69902 11.6992L7.29903 15.2992C7.39903 15.3992 7.50736 15.4699 7.62403 15.5112C7.74069 15.5526 7.86569 15.5736 7.99903 15.5742C8.13236 15.5742 8.25736 15.5532 8.37403 15.5112C8.49069 15.4692 8.59902 15.3986 8.69903 15.2992L12.299 11.6992C12.499 11.4992 12.595 11.2616 12.587 10.9862C12.579 10.7109 12.483 10.4819 12.299 10.2992C12.099 10.0992 11.8614 9.99489 11.586 9.98622C11.3107 9.97755 11.0734 10.0736 10.874 10.2742L8.99903 12.1492V4.99922C8.99903 4.71589 8.90303 4.47822 8.71103 4.28622C8.51902 4.09422 8.28169 3.99855 7.99903 3.99922ZM1.99903 -0.000781059C1.44903 -0.000781059 0.978025 0.195218 0.586025 0.587218C0.194025 0.979218 -0.00164153 1.44989 -0.000974865 1.99922V3.99922C-0.000974865 4.28255 0.0950252 4.52022 0.287025 4.71222C0.479025 4.90422 0.716358 4.99989 0.999025 4.99922C1.28236 4.99922 1.52002 4.90322 1.71202 4.71122C1.90402 4.51922 1.99969 4.28189 1.99903 3.99922V1.99922H13.999V3.99922C13.999 4.28255 14.095 4.52022 14.287 4.71222C14.479 4.90422 14.7164 4.99989 14.999 4.99922C15.2824 4.99922 15.52 4.90322 15.712 4.71122C15.904 4.51922 15.9997 4.28189 15.999 3.99922V1.99922C15.999 1.44922 15.803 0.978219 15.411 0.586219C15.019 0.194219 14.5484 -0.00144768 13.999 -0.000781059H1.99903Z" fill="#3A3475"/>
</svg>
