<svg width="17" height="17" viewBox="0 0 17 17" fill="none" xmlns="http://www.w3.org/2000/svg">
<path d="M3.83301 5.021H2.99967C2.55765 5.021 2.13372 5.19659 1.82116 5.50915C1.5086 5.82171 1.33301 6.24564 1.33301 6.68766V14.1877C1.33301 14.6297 1.5086 15.0536 1.82116 15.3662C2.13372 15.6787 2.55765 15.8543 2.99967 15.8543H10.4997C10.9417 15.8543 11.3656 15.6787 11.6782 15.3662C11.9907 15.0536 12.1663 14.6297 12.1663 14.1877V13.3543" stroke="#3A3475" stroke-width="1.4" stroke-linecap="round" stroke-linejoin="round"/>
<path d="M11.3333 3.35426L13.8333 5.85426M14.9875 4.67509C15.3157 4.34688 15.5001 3.90174 15.5001 3.43759C15.5001 2.97344 15.3157 2.52829 14.9875 2.20009C14.6593 1.87188 14.2142 1.6875 13.75 1.6875C13.2858 1.6875 12.8407 1.87188 12.5125 2.20009L5.5 9.18759V11.6876H8L14.9875 4.67509Z" stroke="#3A3475" stroke-width="1.4" stroke-linecap="round" stroke-linejoin="round"/>
</svg>
