<svg width="30" height="25" viewBox="0 0 30 25" fill="none" xmlns="http://www.w3.org/2000/svg">
<path d="M21.7814 24.53H8.50134C3.65134 24.53 0.861328 21.75 0.861328 16.89V7.63C0.861328 2.78 3.65134 0 8.50134 0H21.7814C26.6414 0 29.4214 2.78 29.4214 7.63V16.93C29.3914 21.75 26.6314 24.53 21.7814 24.53ZM8.50134 1.95001C4.70134 1.95001 2.85132 3.80001 2.85132 7.60001V16.9C2.85132 20.7 4.70134 22.54 8.50134 22.54H21.7814C25.5814 22.54 27.4314 20.7 27.4314 16.9V7.63C27.4314 3.83 25.5814 1.98001 21.7814 1.98001L8.50134 1.95001Z" fill="#B7B7B7"/>
<path d="M15.131 13.4C14.0116 13.4243 12.9164 13.0721 12.021 12.4L7.88096 9.08002C7.69878 8.90805 7.58778 8.67397 7.56993 8.42408C7.55208 8.17419 7.62864 7.92668 7.78453 7.73056C7.94042 7.53445 8.16425 7.40398 8.41172 7.36499C8.6592 7.326 8.91231 7.38134 9.12095 7.52002L13.261 10.84C13.8062 11.2308 14.4602 11.441 15.131 11.441C15.8018 11.441 16.4557 11.2308 17.001 10.84L21.161 7.53C21.2555 7.43873 21.3671 7.36699 21.4894 7.31885C21.6116 7.27071 21.7422 7.24713 21.8736 7.24945C22.005 7.25178 22.1347 7.27994 22.2552 7.33237C22.3757 7.3848 22.4848 7.46044 22.576 7.555C22.6673 7.64955 22.739 7.76118 22.7871 7.88346C22.8352 8.00574 22.8589 8.13628 22.8565 8.26767C22.8542 8.39907 22.826 8.52873 22.7735 8.64923C22.7211 8.76974 22.6456 8.87874 22.551 8.97L22.401 9.08002L18.2409 12.4C17.3484 13.0778 16.2513 13.4306 15.131 13.4Z" fill="#B7B7B7"/>
</svg>
