<svg width="36" height="44" viewBox="0 0 36 44" fill="none" xmlns="http://www.w3.org/2000/svg">
<path d="M2.60289 35.7456C2.81005 37.3886 3.58681 38.907 4.79799 40.0363C6.00918 41.1656 7.57814 41.8343 9.23159 41.9262C12.0437 42.1271 15.0567 42.1271 18.0697 42.1271C21.0827 42.1271 24.0957 42.1271 26.9079 41.9262C28.5613 41.8343 30.1303 41.1656 31.3415 40.0363C32.5526 38.907 33.3294 37.3886 33.5366 35.7456C33.7374 33.5361 34.1392 31.3265 34.1392 29.1169C34.147 26.8934 33.9453 24.674 33.5366 22.4883C33.3265 20.8465 32.5488 19.3299 31.3382 18.2011C30.1277 17.0724 28.5603 16.4026 26.9079 16.3078C24.0957 16.1069 21.0827 16.1069 18.0697 16.1069C15.0567 16.1069 12.0437 16.1069 9.23159 16.3078C7.57912 16.4026 6.0118 17.0724 4.8012 18.2011C3.59061 19.3299 2.81293 20.8465 2.60289 22.4883C2.40202 24.6979 2.00026 26.9074 2.00026 29.1169C1.99167 31.3405 2.19346 33.56 2.60289 35.7456Z" stroke="#5B3F88" stroke-width="3.09027"/>
<path d="M9.03174 16.0608V11.0391C9.03174 8.6418 9.98399 6.34265 11.6791 4.6475C13.3743 2.95235 15.6734 2 18.0708 2C20.4681 2 22.7672 2.95235 24.4624 4.6475C26.1575 6.34265 27.1098 8.6418 27.1098 11.0391V16.0608" stroke="#5B3F88" stroke-width="3.09027" stroke-linecap="round" stroke-linejoin="round"/>
</svg>
