<svg width="15" height="12" viewBox="0 0 15 12" fill="none" xmlns="http://www.w3.org/2000/svg">
<path d="M0.650391 5.52439C0.650391 5.52439 3.08739 0.650391 7.35039 0.650391C11.6134 0.650391 14.0504 5.52439 14.0504 5.52439C14.0504 5.52439 11.6134 10.3984 7.35039 10.3984C3.08739 10.3984 0.650391 5.52439 0.650391 5.52439Z" stroke="#3A3475" stroke-width="1.3" stroke-linecap="round" stroke-linejoin="round"/>
<path d="M9.18041 5.52527C9.18041 5.88681 9.07321 6.24023 8.87234 6.54085C8.67148 6.84146 8.38598 7.07576 8.05196 7.21412C7.71794 7.35247 7.35039 7.38868 6.99579 7.31814C6.64119 7.24761 6.31547 7.07351 6.05982 6.81786C5.80417 6.56221 5.63007 6.23649 5.55954 5.88189C5.48901 5.52729 5.52521 5.15974 5.66356 4.82572C5.80192 4.4917 6.03622 4.2062 6.33683 4.00534C6.63745 3.80448 6.99087 3.69727 7.35241 3.69727C7.83723 3.69727 8.30219 3.88986 8.64501 4.23267C8.98782 4.57549 9.18041 5.04045 9.18041 5.52527Z" stroke="#3A3475" stroke-width="1.3" stroke-linecap="round" stroke-linejoin="round"/>
</svg>
