<svg width="24" height="28" viewBox="0 0 24 28" fill="none" xmlns="http://www.w3.org/2000/svg">
<path d="M2.25078 22.8399C2.38485 23.9032 2.88757 24.8859 3.67144 25.6168C4.4553 26.3476 5.47072 26.7805 6.54082 26.8399C8.36082 26.9699 10.3108 26.9699 12.2608 26.9699C14.2108 26.9699 16.1608 26.9699 17.9808 26.8399C19.0509 26.7805 20.0663 26.3476 20.8501 25.6168C21.634 24.8859 22.1367 23.9032 22.2708 22.8399C22.4008 21.4099 22.6608 19.9799 22.6608 18.5499C22.6659 17.1108 22.5353 15.6745 22.2708 14.2599C22.1349 13.1973 21.6316 12.2158 20.8481 11.4852C20.0646 10.7547 19.0502 10.3212 17.9808 10.2599C16.1608 10.1299 14.2108 10.1299 12.2608 10.1299C10.3108 10.1299 8.36082 10.1299 6.54082 10.2599C5.47136 10.3212 4.457 10.7547 3.67351 11.4852C2.89002 12.2158 2.38672 13.1973 2.25078 14.2599C2.12078 15.6899 1.86077 17.1199 1.86077 18.5499C1.8552 19.989 1.9858 21.4254 2.25078 22.8399Z" stroke="#B7B7B7" stroke-width="2"/>
<path d="M6.41138 10.1V6.85004C6.41138 5.29852 7.02767 3.81053 8.12476 2.71344C9.22184 1.61635 10.7098 1 12.2614 1C13.8129 1 15.3009 1.61635 16.3979 2.71344C17.495 3.81053 18.1113 5.29852 18.1113 6.85004V10.1" stroke="#B7B7B7" stroke-width="2" stroke-linecap="round" stroke-linejoin="round"/>
</svg>
