<svg width="36" height="39" viewBox="0 0 36 39" fill="none" xmlns="http://www.w3.org/2000/svg">
<path d="M2.60289 31.6249C2.81005 33.0663 3.58681 34.3984 4.79799 35.3892C6.00918 36.38 7.57814 36.9667 9.23159 37.0473C12.0437 37.2236 15.0567 37.2236 18.0697 37.2236C21.0827 37.2236 24.0957 37.2236 26.9079 37.0473C28.5613 36.9667 30.1303 36.38 31.3415 35.3892C32.5526 34.3984 33.3294 33.0663 33.5366 31.6249C33.7374 29.6863 34.1392 27.7478 34.1392 25.8092C34.147 23.8584 33.9453 21.9113 33.5366 19.9937C33.3265 18.5532 32.5488 17.2226 31.3382 16.2323C30.1277 15.242 28.5603 14.6544 26.9079 14.5712C24.0957 14.395 21.0827 14.395 18.0697 14.395C15.0567 14.395 12.0437 14.395 9.23159 14.5712C7.57912 14.6544 6.0118 15.242 4.8012 16.2323C3.59061 17.2226 2.81293 18.5532 2.60289 19.9937C2.40202 21.9322 2.00026 23.8707 2.00026 25.8092C1.99167 27.7601 2.19346 29.7073 2.60289 31.6249Z" stroke="#5B3F88" stroke-width="3.09027"/>
<path d="M9.03174 14.3541V9.94834C9.03174 7.84508 9.98399 5.82794 11.6791 4.34071C13.3743 2.85348 15.6734 2.01794 18.0708 2.01794C20.4681 2.01794 22.7672 2.85348 24.4624 4.34071C26.1575 5.82794 27.1098 7.84508 27.1098 9.94834V14.3541" stroke="#5B3F88" stroke-width="3.09027" stroke-linecap="round" stroke-linejoin="round"/>
</svg>
