<svg width="113" height="95" viewBox="0 0 113 95" fill="none" xmlns="http://www.w3.org/2000/svg">
<path d="M19.4922 14.8178C19.4922 12.6516 21.2483 10.8955 23.4145 10.8955C25.5808 10.8955 27.3369 12.6516 27.3369 14.8178V50.1188C27.3369 52.2851 25.5808 54.0412 23.4145 54.0412C21.2483 54.0412 19.4922 52.2851 19.4922 50.1188V14.8178Z" fill="#818181"/>
<path fill-rule="evenodd" clip-rule="evenodd" d="M0 3.92233C0 6.08858 1.75609 7.84466 3.92233 7.84466L16.6715 7.84466L37.0443 7.84466V7.85967C37.3336 7.84969 37.6241 7.84466 37.9159 7.84466C51.6354 7.84466 62.7573 18.9666 62.7573 32.6861C62.7573 46.4056 51.6354 57.5275 37.9159 57.5275C37.6241 57.5275 37.3336 57.5225 37.0443 57.5125V57.5275H16.6715H3.92233C1.75609 57.5275 0 59.2836 0 61.4499C0 63.6161 1.75609 65.3722 3.92233 65.3722H37.9159C55.9679 65.3722 70.602 50.7381 70.602 32.6861C70.602 14.6341 55.9679 0 37.9159 0L3.92233 1.49105e-06C1.75609 1.58574e-06 0 1.75609 0 3.92233Z" fill="#818181"/>
<path d="M77.6449 48.0434L77.6686 48.2798C77.6686 48.9261 77.5661 49.4779 77.3612 49.935C77.1563 50.0926 76.8331 50.2187 76.3917 50.3133L80.3405 61.9941L82.5868 62.2778C82.5868 62.9241 82.4055 63.6098 82.043 64.335H76.2972L76.0843 63.0345C76.7464 62.7823 77.1799 62.6167 77.3848 62.5379L76.439 59.866H71.1188C70.6459 61.269 70.3937 62.002 70.3622 62.065L71.9937 62.2778C71.9937 62.6089 71.9307 62.9951 71.8046 63.4364C71.6784 63.8621 71.5602 64.1616 71.4499 64.335H65.7041L65.4913 63.0345C66.2006 62.735 66.8391 62.5143 67.4065 62.3724L71.3789 50.2187C70.3228 50.0611 69.5267 49.8562 68.9908 49.604C68.9908 49.1468 69.0617 48.7449 69.2036 48.3981C69.5346 48.2877 70.307 48.1616 71.5208 48.0197C72.7504 47.8621 73.9169 47.7833 75.0203 47.7833C76.1395 47.7833 77.0144 47.87 77.6449 48.0434ZM74.5947 54.5458L73.909 51.4247H73.6725L72.9159 54.6877L71.8046 57.6434H75.7533L74.5947 54.5458ZM81.9262 52.0867C81.674 50.999 81.5479 50.1399 81.5479 49.5094C81.5479 48.8788 81.5715 48.3035 81.6188 47.7833H95.3567C95.4198 48.5399 95.4513 49.0522 95.4513 49.3202C95.4513 49.9981 95.3252 50.9202 95.073 52.0867C94.6158 52.2128 93.8671 52.2759 92.8267 52.2759L92.2828 49.8877H90.273C90.2572 50.4867 90.1863 54.5458 90.0602 62.065L91.7626 62.2778C91.7626 63.0029 91.5814 63.6887 91.2188 64.335H85.473L85.2602 63.0345C86.3479 62.6246 87.0336 62.396 87.3173 62.3488C87.3173 62.2857 87.2227 58.1399 87.0336 49.9114H84.6927L84.1725 52.2286C83.2425 52.2286 82.4937 52.1813 81.9262 52.0867ZM106.255 48.0434L106.278 48.2798C106.278 48.9261 106.176 49.4779 105.971 49.935C105.766 50.0926 105.443 50.2187 105.002 50.3133L108.95 61.9941L111.197 62.2778C111.197 62.9241 111.015 63.6098 110.653 64.335H104.907L104.694 63.0345C105.356 62.7823 105.79 62.6167 105.995 62.5379L105.049 59.866H99.7287C99.2558 61.269 99.0036 62.002 98.972 62.065L100.604 62.2778C100.604 62.6089 100.541 62.9951 100.414 63.4364C100.288 63.8621 100.17 64.1616 100.06 64.335H94.3139L94.1011 63.0345C94.8105 62.735 95.4489 62.5143 96.0164 62.3724L99.9888 50.2187C98.9326 50.0611 98.1366 49.8562 97.6006 49.604C97.6006 49.1468 97.6715 48.7449 97.8134 48.3981C98.1445 48.2877 98.9169 48.1616 100.131 48.0197C101.36 47.8621 102.527 47.7833 103.63 47.7833C104.749 47.7833 105.624 47.87 106.255 48.0434ZM103.205 54.5458L102.519 51.4247H102.282L101.526 54.6877L100.414 57.6434H104.363L103.205 54.5458Z" fill="#818181"/>
<path d="M11.2788 76.7726L10.5458 76.749L9.86007 73.9115C8.94579 73.7539 8.26008 73.6751 7.80294 73.6751C6.90442 73.6751 5.89555 73.8564 4.77634 74.2189C4.44531 74.8337 4.18521 75.6219 3.99605 76.5835C3.80689 77.545 3.71231 78.4514 3.71231 79.3027C3.71231 83.6534 4.9655 85.8288 7.4719 85.8288C8.54382 85.8288 9.39505 85.6711 10.0256 85.3558L10.5221 82.4711C11.5152 82.4711 12.2719 82.5263 12.7921 82.6366C13.0443 84.3549 13.1704 85.7499 13.1704 86.8219C12.7921 87.1056 12.0276 87.4209 10.8768 87.7677C9.74185 88.1145 8.62264 88.2879 7.51919 88.2879C2.82167 88.2879 0.472905 85.3874 0.472905 79.5864C0.472905 76.8278 1.04039 74.7312 2.17536 73.2968C3.3261 71.8623 5.15467 71.145 7.66106 71.145C8.90638 71.145 10.0098 71.3263 10.9714 71.6889C11.8226 72.0042 12.5478 72.351 13.1468 72.7293C13.1468 73.8012 13.0285 75.0938 12.7921 76.6071C12.3507 76.7174 11.8463 76.7726 11.2788 76.7726ZM22.2459 85.7578C24.8627 85.7578 26.1711 83.748 26.1711 79.7283C26.1711 75.7086 24.8627 73.6987 22.2459 73.6987C21.111 73.6987 20.1179 73.8721 19.2666 74.2189C18.5415 75.7322 18.179 77.4899 18.179 79.4918C18.179 81.478 18.4785 83.0228 19.0775 84.1263C19.6765 85.214 20.7326 85.7578 22.2459 85.7578ZM22.2459 71.145C24.8784 71.145 26.7307 71.8386 27.8026 73.2258C28.8745 74.5973 29.4105 76.7017 29.4105 79.5391C29.4105 81.3204 29.1819 82.8416 28.7247 84.1026C28.2676 85.3637 27.4952 86.3726 26.4075 87.1292C25.3198 87.8859 23.9326 88.2642 22.2459 88.2642C19.6765 88.2642 17.8085 87.547 16.642 86.1125C15.4913 84.678 14.9159 82.5893 14.9159 79.8465C14.9159 74.0455 17.3593 71.145 22.2459 71.145ZM47.0134 73.5332L46.9425 87.9805H43.9159L36.113 75.2593C36.0499 79.878 36.0105 83.3618 35.9947 85.7105L37.6263 85.9233C37.6263 86.5696 37.445 87.2553 37.0824 87.9805H31.3366L31.1238 86.68C32.0066 86.3174 32.6686 86.0888 33.11 85.9943C33.11 85.947 33.0391 81.7775 32.8972 73.4859L30.9346 72.8711L31.1238 71.4288H37.2716L44.1523 83.7716L43.7977 73.4859L41.8351 72.8711L42.0243 71.4288H48.172C48.1563 71.4288 48.1563 71.4446 48.172 71.4761C48.2036 71.5076 48.2351 71.5785 48.2666 71.6889C48.3139 71.7835 48.3612 71.9017 48.4085 72.0436C48.5031 72.2958 48.5661 72.7135 48.5977 73.2968C47.7937 73.4229 47.2656 73.5017 47.0134 73.5332ZM66.0516 73.5332L65.9806 87.9805H62.954L55.1511 75.2593C55.088 79.878 55.0486 83.3618 55.0329 85.7105L56.6644 85.9233C56.6644 86.5696 56.4831 87.2553 56.1205 87.9805H50.3747L50.1619 86.68C51.0447 86.3174 51.7068 86.0888 52.1481 85.9943C52.1481 85.947 52.0772 81.7775 51.9353 73.4859L49.9728 72.8711L50.1619 71.4288H56.3097L63.1905 83.7716L62.8358 73.4859L60.8732 72.8711L61.0624 71.4288H67.2102C67.1944 71.4288 67.1944 71.4446 67.2102 71.4761C67.2417 71.5076 67.2732 71.5785 67.3047 71.6889C67.352 71.7835 67.3993 71.9017 67.4466 72.0436C67.5412 72.2958 67.6043 72.7135 67.6358 73.2968C66.8318 73.4229 66.3038 73.5017 66.0516 73.5332ZM74.1892 73.7933C74.1892 75.5904 74.1735 77.1352 74.1419 78.4278H76.5537L76.7902 76.7963C77.5941 76.7963 78.3744 76.9933 79.1311 77.3874V82.1164L77.5705 82.1874C77.1922 81.6199 76.9715 81.1233 76.9084 80.6977H74.1183C74.0868 82.9046 74.071 84.5677 74.071 85.6869H78.1143L78.6345 83.6297C79.6119 83.6297 80.3527 83.677 80.8572 83.7716C81.0936 84.6701 81.2119 85.4898 81.2119 86.2307C81.2119 86.9558 81.1882 87.5391 81.1409 87.9805H69.4129L69.2001 86.68C70.2247 86.2859 70.8868 86.0573 71.1863 85.9943C71.1705 85.0642 71.1547 83.7558 71.139 82.0692C71.0759 78.2859 71.0207 75.4248 70.9735 73.4859L69.0109 72.8711L69.2001 71.4288H80.8099C80.8572 71.8544 80.8808 72.3904 80.8808 73.0367C80.8808 73.6672 80.7626 74.55 80.5261 75.6849C80.0375 75.8426 79.2966 75.9214 78.3035 75.9214L77.7596 73.7933H74.1892ZM94.1157 76.7726L93.3827 76.749L92.697 73.9115C91.7827 73.7539 91.097 73.6751 90.6398 73.6751C89.7413 73.6751 88.7325 73.8564 87.6133 74.2189C87.2822 74.8337 87.0221 75.6219 86.833 76.5835C86.6438 77.545 86.5492 78.4514 86.5492 79.3027C86.5492 83.6534 87.8024 85.8288 90.3088 85.8288C91.3807 85.8288 92.232 85.6711 92.8625 85.3558L93.3591 82.4711C94.3522 82.4711 95.1088 82.5263 95.629 82.6366C95.8812 84.3549 96.0073 85.7499 96.0073 86.8219C95.629 87.1056 94.8645 87.4209 93.7137 87.7677C92.5788 88.1145 91.4596 88.2879 90.3561 88.2879C85.6586 88.2879 83.3098 85.3874 83.3098 79.5864C83.3098 76.8278 83.8773 74.7312 85.0123 73.2968C86.163 71.8623 87.9916 71.145 90.498 71.145C91.7433 71.145 92.8467 71.3263 93.8083 71.6889C94.6595 72.0042 95.3847 72.351 95.9837 72.7293C95.9837 73.8012 95.8655 75.0938 95.629 76.6071C95.1876 76.7174 94.6832 76.7726 94.1157 76.7726ZM98.1311 75.7322C97.8789 74.6445 97.7528 73.7854 97.7528 73.1549C97.7528 72.5244 97.7765 71.949 97.8238 71.4288H111.562C111.625 72.1854 111.656 72.6977 111.656 72.9657C111.656 73.6436 111.53 74.5657 111.278 75.7322C110.821 75.8583 110.072 75.9214 109.032 75.9214L108.488 73.5332H106.478C106.462 74.1322 106.391 78.1913 106.265 85.7105L107.968 85.9233C107.968 86.6485 107.786 87.3342 107.424 87.9805H101.678L101.465 86.68C102.553 86.2701 103.239 86.0416 103.522 85.9943C103.522 85.9312 103.428 81.7854 103.239 73.5569H100.898L100.377 75.8741C99.4474 75.8741 98.6986 75.8268 98.1311 75.7322Z" fill="#818181"/>
</svg>
