<svg width="44" height="38" viewBox="0 0 44 38" fill="none" xmlns="http://www.w3.org/2000/svg">
<path d="M33 16.125V32.6562C33 33.1282 32.9111 33.5955 32.7383 34.0315C32.5656 34.4675 32.3124 34.8637 31.9932 35.1974C31.674 35.5311 31.295 35.7958 30.878 35.9764C30.4609 36.157 30.0139 36.25 29.5625 36.25H8.9375C8.02582 36.25 7.15148 35.8714 6.50682 35.1974C5.86216 34.5235 5.5 33.6094 5.5 32.6562V11.0938C5.5 10.1406 5.86216 9.22654 6.50682 8.55259C7.15148 7.87863 8.02582 7.5 8.9375 7.5H23.3303" stroke="#2A44C1" stroke-width="2.4375" stroke-linecap="round" stroke-linejoin="round"/>
<path d="M39.5262 0.784206C39.4006 0.639954 39.2484 0.523817 39.0787 0.442814C38.9089 0.36181 38.7253 0.317622 38.5388 0.312919C38.3522 0.308217 38.1667 0.343097 37.9935 0.415453C37.8202 0.487809 37.6628 0.596138 37.5307 0.733893L36.4677 1.83987C36.3389 1.97465 36.2665 2.15739 36.2665 2.34794C36.2665 2.53848 36.3389 2.72122 36.4677 2.856L37.4422 3.87303C37.5061 3.94013 37.582 3.99337 37.6656 4.0297C37.7493 4.06603 37.8389 4.08474 37.9295 4.08474C38.02 4.08474 38.1097 4.06603 38.1933 4.0297C38.2769 3.99337 38.3529 3.94013 38.4167 3.87303L39.4532 2.79491C39.9774 2.24776 40.0264 1.35651 39.5262 0.784206ZM34.3184 4.08596L18.8049 20.2758C18.7109 20.3737 18.6425 20.4953 18.6064 20.6289L17.8889 22.8633C17.8717 22.9239 17.8704 22.9883 17.8853 23.0496C17.9002 23.1109 17.9306 23.1668 17.9734 23.2115C18.0162 23.2563 18.0697 23.2881 18.1283 23.3036C18.187 23.3192 18.2485 23.3179 18.3065 23.2999L20.4421 22.5498C20.5698 22.512 20.6861 22.4406 20.7798 22.3422L36.2657 6.12182C36.409 5.97044 36.4894 5.76607 36.4894 5.55311C36.4894 5.34015 36.409 5.13579 36.2657 4.9844L35.4107 4.08596C35.2657 3.93482 35.0693 3.84994 34.8645 3.84994C34.6598 3.84994 34.4634 3.93482 34.3184 4.08596Z" fill="#2A44C1"/>
</svg>
