<svg width="16" height="16" viewBox="0 0 16 16" fill="none" xmlns="http://www.w3.org/2000/svg">
<path d="M13.0625 5.1875L12.2694 5.98063L13.7206 7.4375H8.5625V2.27938L10.0194 3.73062L10.8125 2.9375L8 0.125L5.1875 2.9375L5.98063 3.73062L7.4375 2.27938V7.4375H2.27938L3.73062 5.98063L2.9375 5.1875L0.125 8L2.9375 10.8125L3.73062 10.0194L2.27938 8.5625H7.4375V13.7206L5.98063 12.2694L5.1875 13.0625L8 15.875L10.8125 13.0625L10.0194 12.2694L8.5625 13.7206V8.5625H13.7206L12.2694 10.0194L13.0625 10.8125L15.875 8L13.0625 5.1875Z" fill="#3A3475"/>
</svg>
