<svg width="15" height="18" viewBox="0 0 15 18" fill="none" xmlns="http://www.w3.org/2000/svg">
<path d="M1 4.87302H0.428571V6.01587H1V4.87302ZM2.73333 6.01587H3.30476V4.87302H2.73333V6.01587ZM1 8.42857H0.428571V9.57143H1V8.42857ZM2.73333 9.57143H3.30476V8.42857H2.73333V9.57143ZM1 11.9841H0.428571V13.127H1V11.9841ZM2.73333 13.127H3.30476V11.9841H2.73333V13.127ZM8.50476 7.22222V6.65079H7.36191V7.22222H8.50476ZM7.36191 10.7778V11.3492H8.50476V10.7778H7.36191ZM9.66667 9.57143H10.2381V8.42857H9.66667V9.57143ZM6.2 8.42857H5.62857V9.57143H6.2V8.42857ZM3.6 1.57143H12.2667V0.428571H3.6V1.57143ZM13.4286 2.77778V15.2222H14.5714V2.77778H13.4286ZM12.2667 16.4286H3.6V17.5714H12.2667V16.4286ZM2.4381 15.2222V12.5556H1.29524V15.2222H2.4381ZM2.4381 12.5556V9H1.29524V12.5556H2.4381ZM2.4381 9V5.44444H1.29524V9H2.4381ZM2.4381 5.44444V2.77778H1.29524V5.44444H2.4381ZM3.6 16.4286C2.97185 16.4286 2.4381 15.9022 2.4381 15.2222H1.29524C1.29524 16.5059 2.31356 17.5714 3.6 17.5714V16.4286ZM13.4286 15.2222C13.4286 15.9022 12.8948 16.4286 12.2667 16.4286V17.5714C13.5531 17.5714 14.5714 16.5059 14.5714 15.2222H13.4286ZM12.2667 1.57143C12.8948 1.57143 13.4286 2.09781 13.4286 2.77778H14.5714C14.5714 1.49407 13.5531 0.428571 12.2667 0.428571V1.57143ZM3.6 0.428571C2.31356 0.428571 1.29524 1.49407 1.29524 2.77778H2.4381C2.4381 2.09781 2.97185 1.57143 3.6 1.57143V0.428571ZM1 6.01587H1.86667V4.87302H1V6.01587ZM1.86667 6.01587H2.73333V4.87302H1.86667V6.01587ZM1 9.57143H1.86667V8.42857H1V9.57143ZM1.86667 9.57143H2.73333V8.42857H1.86667V9.57143ZM1 13.127H1.86667V11.9841H1V13.127ZM1.86667 13.127H2.73333V11.9841H1.86667V13.127ZM7.36191 7.22222V9H8.50476V7.22222H7.36191ZM7.36191 9V10.7778H8.50476V9H7.36191ZM9.66667 8.42857H7.93333V9.57143H9.66667V8.42857ZM7.93333 8.42857H6.2V9.57143H7.93333V8.42857Z" fill="#425CDA"/>
</svg>
