<svg width="36" height="35" viewBox="0 0 36 35" fill="none" xmlns="http://www.w3.org/2000/svg">
<g clip-path="url(#clip0_1_858)">
<path fill-rule="evenodd" clip-rule="evenodd" d="M18.3825 0.0041431C15.8363 -0.0512686 13.3087 0.449727 10.9762 1.47215C8.64365 2.49458 6.56238 4.01379 4.87769 5.92373C3.19299 7.83367 1.94547 10.0883 1.22222 12.5302C0.498969 14.9721 0.317416 17.5425 0.690239 20.0618C1.06306 22.5812 1.98127 24.9888 3.38077 27.1166C4.78027 29.2443 6.62732 31.041 8.79298 32.3812C10.9586 33.7213 13.3907 34.5726 15.9194 34.8757C18.4481 35.1787 21.0124 34.9262 23.4334 34.1357C23.8471 34.0005 24.1901 33.7066 24.387 33.3185C24.5839 32.9304 24.6186 32.48 24.4834 32.0663C24.3482 31.6527 24.0543 31.3097 23.6662 31.1127C23.2781 30.9158 22.8277 30.8812 22.414 31.0163C19.7831 31.8754 16.9587 31.948 14.2872 31.2252C11.6156 30.5024 9.21307 29.0157 7.37418 26.9474C5.53528 24.879 4.33999 22.319 3.93489 19.5812C3.52979 16.8434 3.93248 14.0469 5.09359 11.5346C6.2547 9.02236 8.12375 6.90357 10.4715 5.4381C12.8193 3.97263 15.5437 3.22418 18.3106 3.28455C21.0776 3.34491 23.7668 4.21147 26.0484 5.77794C28.33 7.34441 30.1048 9.5427 31.1553 12.1032C31.3203 12.5058 31.6386 12.8264 32.04 12.9944C32.2388 13.0776 32.4519 13.1208 32.6674 13.1216C32.8829 13.1224 33.0964 13.0807 33.2957 12.999C33.4951 12.9173 33.6764 12.7971 33.8293 12.6453C33.9822 12.4935 34.1038 12.313 34.1869 12.1143C34.2701 11.9155 34.3133 11.7023 34.3141 11.4869C34.3149 11.2714 34.2733 11.0579 34.1915 10.8585C32.8988 7.70697 30.7143 5.00122 27.9061 3.07313C25.0979 1.14504 21.788 0.0784426 18.3825 0.0041431ZM19.6403 8.20289C19.6403 7.76777 19.4674 7.35047 19.1597 7.0428C18.8521 6.73512 18.4348 6.56227 17.9997 6.56227C17.5645 6.56227 17.1472 6.73512 16.8396 7.0428C16.5319 7.35047 16.359 7.76777 16.359 8.20289V16.8216L11.9097 21.2688C11.7485 21.419 11.6192 21.6002 11.5295 21.8014C11.4398 22.0027 11.3916 22.2199 11.3877 22.4402C11.3838 22.6605 11.4244 22.8793 11.5069 23.0836C11.5894 23.2879 11.7122 23.4734 11.868 23.6292C12.0238 23.785 12.2094 23.9078 12.4137 23.9904C12.6179 24.0729 12.8368 24.1134 13.057 24.1095C13.2773 24.1056 13.4946 24.0574 13.6958 23.9677C13.8971 23.8781 14.0782 23.7488 14.2284 23.5876L19.159 18.6591L19.6403 18.1779V8.20289ZM33.3122 32.8123C33.3122 33.3924 33.0817 33.9488 32.6714 34.3591C32.2612 34.7693 31.7048 34.9998 31.1247 34.9998C30.5445 34.9998 29.9881 34.7693 29.5779 34.3591C29.1676 33.9488 28.9372 33.3924 28.9372 32.8123C28.9372 32.2321 29.1676 31.6757 29.5779 31.2655C29.9881 30.8552 30.5445 30.6248 31.1247 30.6248C31.7048 30.6248 32.2612 30.8552 32.6714 31.2655C33.0817 31.6757 33.3122 32.2321 33.3122 32.8123ZM32.7653 19.1404C32.7653 18.7053 32.5924 18.288 32.2847 17.9803C31.9771 17.6726 31.5598 17.4998 31.1247 17.4998C30.6895 17.4998 30.2722 17.6726 29.9646 17.9803C29.6569 18.288 29.484 18.7053 29.484 19.1404V26.7966C29.484 27.2318 29.6569 27.6491 29.9646 27.9567C30.2722 28.2644 30.6895 28.4373 31.1247 28.4373C31.5598 28.4373 31.9771 28.2644 32.2847 27.9567C32.5924 27.6491 32.7653 27.2318 32.7653 26.7966V19.1404Z" fill="#5B3F88"/>
</g>
<defs>
<clipPath id="clip0_1_858">
<rect width="35" height="35" fill="white" transform="translate(0.5)"/>
</clipPath>
</defs>
</svg>
