<svg width="24" height="28" viewBox="0 0 24 28" fill="none" xmlns="http://www.w3.org/2000/svg">
<path d="M2.25054 22.8399C2.38461 23.9032 2.88732 24.8859 3.67119 25.6168C4.45506 26.3476 5.47048 26.7805 6.54058 26.8399C8.36058 26.9699 10.3105 26.9699 12.2605 26.9699C14.2105 26.9699 16.1605 26.9699 17.9805 26.8399C19.0506 26.7805 20.066 26.3476 20.8499 25.6168C21.6338 24.8859 22.1365 23.9032 22.2706 22.8399C22.4006 21.4099 22.6606 19.9799 22.6606 18.5499C22.6657 17.1108 22.5351 15.6745 22.2706 14.2599C22.1346 13.1973 21.6313 12.2158 20.8478 11.4852C20.0643 10.7547 19.05 10.3212 17.9805 10.2599C16.1605 10.1299 14.2105 10.1299 12.2605 10.1299C10.3105 10.1299 8.36058 10.1299 6.54058 10.2599C5.47111 10.3212 4.45675 10.7547 3.67327 11.4852C2.88978 12.2158 2.38647 13.1973 2.25054 14.2599C2.12054 15.6899 1.86052 17.1199 1.86052 18.5499C1.85496 19.989 1.98556 21.4254 2.25054 22.8399Z" stroke="#B7B7B7" stroke-width="2"/>
<path d="M6.41113 10.1V6.85004C6.41113 5.29852 7.02742 3.81053 8.12451 2.71344C9.2216 1.61635 10.7096 1 12.2611 1C13.8126 1 15.3006 1.61635 16.3977 2.71344C17.4948 3.81053 18.1111 5.29852 18.1111 6.85004V10.1" stroke="#B7B7B7" stroke-width="2" stroke-linecap="round" stroke-linejoin="round"/>
</svg>
