<svg width="517" height="438" viewBox="0 0 517 438" fill="none" xmlns="http://www.w3.org/2000/svg">
<g clip-path="url(#clip0_1_115)">
<path d="M426.705 158.656C435.349 80.8031 379.293 10.6784 301.501 2.0281C223.709 -6.62222 153.64 49.4775 144.996 127.33C136.353 205.183 192.408 275.308 270.2 283.958C347.992 292.608 418.062 236.509 426.705 158.656Z" fill="#C79ADB"/>
<path d="M459.288 307.237C491.066 307.237 516.828 281.455 516.828 249.652C516.828 217.849 491.066 192.067 459.288 192.067C427.51 192.067 401.748 217.849 401.748 249.652C401.748 281.455 427.51 307.237 459.288 307.237Z" fill="#E7EDF4"/>
<path d="M180.304 294.217L138.058 220.866L68.5986 264.343L111.642 339.275C112.602 341.168 113.781 342.94 115.155 344.556C127.028 358.542 150.744 357.897 168.093 343.113C184.2 329.404 189.17 308.356 180.304 294.217Z" fill="#818181"/>
<path d="M154.286 315.447C158.096 312.202 161.445 308.453 164.242 304.302C164.061 303.933 163.861 303.575 163.643 303.227L147.26 274.795C144.704 278.313 141.738 281.513 138.425 284.329C119.603 300.341 93.939 301.062 80.9922 285.956L101.271 321.265C115.047 331.828 137.412 329.816 154.286 315.447Z" fill="#2955A7"/>
<path style="mix-blend-mode:multiply" d="M140.021 352.754C138.45 350.911 137.106 348.885 136.017 346.721L86.7457 260.98L141.432 226.746L138.058 220.866L68.5986 264.343L111.642 339.275C112.602 341.168 113.781 342.94 115.155 344.556C121.506 352.048 131.262 355.303 141.601 354.474C141.126 353.921 140.527 353.353 140.021 352.754Z" fill="url(#paint0_linear_1_115)"/>
<path d="M125.646 269.44C143.004 254.661 147.44 231.347 135.555 217.366C123.67 203.385 99.9635 204.031 82.6057 218.81C65.248 233.589 60.8117 256.904 72.6969 270.885C84.5822 284.866 108.288 284.219 125.646 269.44Z" fill="#818181"/>
<path style="mix-blend-mode:multiply" d="M123.628 267.067C139.353 253.678 143.37 232.553 132.599 219.883C121.828 207.213 100.349 207.795 84.6234 221.184C68.8982 234.573 64.8819 255.698 75.6527 268.369C86.4236 281.039 107.903 280.456 123.628 267.067Z" fill="url(#paint1_linear_1_115)"/>
<mask id="mask0_1_115" style="mask-type:luminance" maskUnits="userSpaceOnUse" x="69" y="210" width="70" height="68">
<path d="M123.623 267.068C139.348 253.679 143.365 232.554 132.594 219.884C121.823 207.213 100.344 207.796 84.6185 221.185C68.8933 234.574 64.877 255.699 75.6478 268.369C86.4187 281.039 107.898 280.457 123.623 267.068Z" fill="white"/>
</mask>
<g mask="url(#mask0_1_115)">
<path d="M148.79 260.445V253.613H147.256C145.955 251.013 143.949 248.832 141.469 247.318C138.989 245.803 136.134 245.016 133.229 245.047C130.324 245.077 127.485 245.923 125.038 247.49C122.59 249.056 120.631 251.278 119.384 253.905H117.85V260.736C118.248 264.588 120.069 268.152 122.954 270.732C125.84 273.311 129.583 274.721 133.453 274.684C137.322 274.648 141.038 273.168 143.875 270.535C146.711 267.901 148.464 264.303 148.79 260.445Z" fill="#D1D1D1"/>
<path d="M144.087 264.761C150.155 258.688 150.155 248.841 144.087 242.768C138.018 236.694 128.179 236.694 122.111 242.768C116.043 248.841 116.043 258.688 122.111 264.761C128.179 270.834 138.018 270.834 144.087 264.761Z" fill="#E7EDF4"/>
<path d="M117.944 250.435C117.402 252.737 117.402 255.133 117.944 257.435L148.194 257.113C148.448 255.964 148.572 254.789 148.562 253.613C148.541 252.433 148.392 251.259 148.117 250.112L117.944 250.435Z" fill="white"/>
<path d="M123.217 228.867L116.943 226.15L116.314 227.685C113.41 227.813 110.601 228.755 108.207 230.404C105.813 232.054 103.931 234.344 102.776 237.013C101.621 239.682 101.239 242.623 101.675 245.499C102.11 248.375 103.345 251.07 105.239 253.277L104.61 254.812L110.868 257.529C114.609 258.939 118.748 258.851 122.426 257.286C126.104 255.72 129.038 252.796 130.617 249.122C132.197 245.448 132.302 241.306 130.909 237.557C129.517 233.808 126.735 230.739 123.14 228.99L123.217 228.867Z" fill="#D1D1D1"/>
<path d="M125.031 246.598C123.809 249.416 121.779 251.808 119.199 253.471C116.62 255.135 113.605 255.996 110.536 255.946C107.467 255.895 104.482 254.936 101.958 253.188C99.4343 251.441 97.4845 248.984 96.3554 246.128C95.2262 243.271 94.9684 240.144 95.6144 237.142C96.2604 234.139 97.7814 231.395 99.985 229.257C102.189 227.119 104.976 225.683 107.995 225.13C111.014 224.577 114.129 224.931 116.947 226.149C118.82 226.959 120.516 228.131 121.937 229.598C123.357 231.064 124.475 232.797 125.226 234.696C125.977 236.595 126.346 238.624 126.312 240.667C126.279 242.709 125.843 244.725 125.031 246.598Z" fill="#E7EDF4"/>
<path d="M101.558 252.923C102.509 253.628 103.538 254.22 104.626 254.688C105.71 255.149 106.842 255.489 108 255.701L120.011 227.914C118.092 226.489 115.864 225.537 113.507 225.136L101.558 252.923Z" fill="white"/>
<path d="M110.441 272.85L108.907 266.203L107.373 266.571C105.532 264.322 103.096 262.636 100.343 261.707C97.5904 260.777 94.632 260.64 91.8055 261.313C88.9791 261.985 86.3984 263.439 84.3582 265.509C82.318 267.579 80.9005 270.181 80.2674 273.019L78.7334 273.387L80.2674 280.035C81.424 283.815 83.9759 287.012 87.4041 288.977C90.8322 290.941 94.8793 291.526 98.7225 290.61C102.566 289.695 105.916 287.35 108.093 284.051C110.27 280.752 111.109 276.747 110.441 272.85Z" fill="#D1D1D1"/>
<path d="M96.6904 285.06C105.122 283.458 110.659 275.319 109.059 266.881C107.458 258.443 99.325 252.901 90.8935 254.503C82.462 256.105 76.9246 264.244 78.5254 272.682C80.1262 281.121 88.2589 286.662 96.6904 285.06Z" fill="#E7EDF4"/>
<path d="M78.2276 269.888C78.2246 271.066 78.3585 272.241 78.6264 273.388C78.9078 274.534 79.3142 275.646 79.8383 276.704L109.26 269.703C109.278 268.527 109.16 267.352 108.907 266.203C108.626 265.057 108.22 263.945 107.695 262.887L78.2276 269.888Z" fill="white"/>
</g>
<path d="M138.135 196.319L136.601 189.671L135.067 190.04C133.226 187.774 130.784 186.073 128.021 185.134C125.258 184.195 122.287 184.054 119.448 184.729C116.609 185.404 114.018 186.867 111.972 188.95C109.927 191.033 108.51 193.651 107.885 196.503L106.351 196.871L107.885 203.519C108.837 207.529 111.342 210.997 114.848 213.159C116.585 214.23 118.515 214.948 120.528 215.272C122.542 215.596 124.6 215.52 126.584 215.048C128.568 214.576 130.44 213.718 132.093 212.522C133.746 211.326 135.147 209.817 136.217 208.079C137.286 206.341 138.004 204.409 138.328 202.394C138.651 200.379 138.575 198.32 138.104 196.334L138.135 196.319Z" fill="#D1D1D1"/>
<path d="M125.032 208.385C122.046 209.1 118.914 208.912 116.035 207.846C113.155 206.78 110.655 204.882 108.853 202.394C107.051 199.906 106.026 196.939 105.909 193.868C105.792 190.797 106.587 187.76 108.195 185.142C109.802 182.523 112.15 180.441 114.94 179.158C117.73 177.875 120.838 177.449 123.871 177.934C126.903 178.419 129.723 179.793 131.975 181.882C134.227 183.971 135.81 186.682 136.522 189.671C137.477 193.678 136.803 197.899 134.648 201.409C132.494 204.918 129.035 207.427 125.032 208.385Z" fill="#E7EDF4"/>
<path d="M105.921 193.433C105.932 194.611 106.071 195.785 106.335 196.933C106.607 198.077 107.014 199.185 107.547 200.234L136.969 193.248C136.973 192.07 136.839 190.895 136.57 189.748C136.284 188.603 135.878 187.492 135.358 186.432L105.921 193.433Z" fill="white"/>
<path d="M100.565 142.557L99.0315 135.909L97.4975 136.278C95.6548 134.012 93.2104 132.312 90.4455 131.374C87.6805 130.437 84.7073 130.299 81.8677 130.978C79.0281 131.656 76.4375 133.123 74.3939 135.209C72.3502 137.296 70.9365 139.917 70.3152 142.772L68.7812 143.14L70.3152 149.787C71.2672 153.798 73.7722 157.266 77.279 159.428C80.7858 161.59 85.0072 162.269 89.0145 161.317C93.0219 160.364 96.4869 157.857 98.6474 154.347C100.808 150.838 101.487 146.613 100.535 142.603L100.565 142.557Z" fill="#D1D1D1"/>
<path d="M87.4342 154.638C84.4441 155.347 81.3111 155.153 78.4312 154.08C75.5514 153.008 73.054 151.104 71.2547 148.611C69.4555 146.118 68.4352 143.148 68.3229 140.074C68.2106 137.001 69.0112 133.963 70.6236 131.346C72.236 128.728 74.5878 126.647 77.3816 125.366C80.1754 124.086 83.2859 123.663 86.3198 124.152C89.3536 124.64 92.1747 126.018 94.4263 128.11C96.678 130.203 98.2591 132.917 98.9698 135.909C99.4419 137.897 99.5181 139.958 99.1938 141.976C98.8696 143.993 98.1513 145.927 97.08 147.666C96.0087 149.405 94.6054 150.916 92.9503 152.113C91.2953 153.309 89.4208 154.167 87.4342 154.638Z" fill="#E7EDF4"/>
<path d="M68.3525 139.593C68.3616 140.772 68.5005 141.945 68.7667 143.093C69.0361 144.243 69.443 145.357 69.9786 146.409L99.4004 139.409C99.4021 138.231 99.2683 137.056 99.0016 135.909C98.7158 134.769 98.3096 133.662 97.7897 132.608L68.3525 139.593Z" fill="white"/>
<path d="M75.1614 179.799L68.734 173.074L66.9546 175.009C51.1545 169.083 30.7679 176.744 18.3886 194.398C8.55573 208.415 6.34679 225.102 11.3322 237.721L9.53749 239.732L19.0789 249.251C20.0458 250.146 21.0706 250.977 22.1469 251.738C38.4224 263.175 63.1043 256.052 77.3704 235.818C90.9921 216.321 90.1945 195.396 75.1614 179.799Z" fill="#D1D1D1"/>
<path d="M36.6916 257.066C35.4233 256.954 34.163 256.764 32.918 256.498L9.35594 230.614L4.60059 225.333L6.36467 223.721L8.92643 226.531L36.6916 257.066Z" fill="#E7EDF4"/>
<path d="M46.233 256.682C45.2819 256.836 44.3155 256.974 43.3645 257.066L14.4795 225.333L16.2282 223.721L46.233 256.682Z" fill="#E7EDF4"/>
<path d="M54.1636 254.456C53.3506 254.778 52.5376 255.055 51.7093 255.316L24.4043 225.333L26.1684 223.721L54.1636 254.456Z" fill="#E7EDF4"/>
<path d="M61.0214 251.094C60.3158 251.508 59.5948 251.923 58.8739 252.291L34.3301 225.333L36.1095 223.721L61.0214 251.094Z" fill="#E7EDF4"/>
<path d="M67.0767 246.857C66.4478 247.363 65.8342 247.855 65.1899 248.315L44.251 225.287L46.0151 223.721L67.0767 246.857Z" fill="#E7EDF4"/>
<path d="M72.4495 241.837C71.9126 242.435 71.345 242.988 70.7774 243.541L54.1797 225.333L55.9591 223.721L72.4495 241.837Z" fill="#E7EDF4"/>
<path d="M77.2335 235.941C76.758 236.602 76.2824 237.262 75.6995 237.891L55.4355 215.554L57.1843 214.019L77.2335 235.941Z" fill="#E7EDF4"/>
<path d="M81.2974 229.249C80.9139 229.986 80.4997 230.784 80.0702 231.429L55.373 204.317L57.1832 202.644L81.2974 229.249Z" fill="#E7EDF4"/>
<path d="M84.6733 221.62C84.3819 222.464 84.0751 223.308 83.7223 224.137L55.4355 193.08L57.1843 191.545L84.6733 221.62Z" fill="#E7EDF4"/>
<path d="M86.7442 212.653C86.6215 213.651 86.4681 214.664 86.2687 215.723L55.4355 181.949L57.1843 180.414L86.7442 212.653Z" fill="#E7EDF4"/>
<path d="M86.9305 205.146L57.7848 173.152L55.4531 170.588L57.2019 168.977L61.359 173.582L86.409 201.108C86.6705 202.441 86.8447 203.79 86.9305 205.146Z" fill="#E7EDF4"/>
<path d="M68.5379 227.078C82.7311 206.852 81.0516 181.189 64.7867 169.757C48.5218 158.326 23.8306 165.455 9.63746 185.68C-4.55569 205.906 -2.8762 231.569 13.3887 243.001C29.6536 254.433 54.3448 247.304 68.5379 227.078Z" fill="#E7EDF4"/>
<path d="M46.3101 169.576C51.7838 169.514 57.1424 171.149 61.6499 174.258C75.7626 184.191 77.1279 206.666 64.7179 224.382C56.5571 236.003 43.9937 243.219 31.9059 243.219C26.4307 243.275 21.0722 241.634 16.5661 238.521C2.4534 228.604 1.08815 206.113 13.4981 188.397C21.6436 176.791 34.2223 169.576 46.3101 169.576ZM46.3101 168.04C34.1302 168.04 20.9993 175.041 12.2402 187.522C-0.706616 205.944 0.827369 229.356 15.661 239.718C20.4161 243.026 26.0847 244.765 31.8753 244.692C44.0551 244.692 57.186 237.677 65.9451 225.211C78.8766 206.789 77.358 183.362 62.5243 172.938C57.7625 169.645 52.0973 167.913 46.3101 167.979V168.04Z" fill="white"/>
<path d="M400.935 400.33L186.698 363.747C184 363.287 181.574 361.825 179.905 359.654C178.236 357.483 177.447 354.762 177.694 352.033L204.876 46.3309C205.119 43.6029 206.379 41.0663 208.406 39.2258C210.432 37.3853 213.077 36.3758 215.814 36.3982L433.133 38.2558C434.636 38.271 436.119 38.5972 437.489 39.2138C438.859 39.8304 440.088 40.7241 441.096 41.8387C442.105 42.9532 442.872 44.2646 443.349 45.6903C443.827 47.1159 444.005 48.6251 443.871 50.1228L413.606 390.551C413.472 392.049 413.031 393.504 412.308 394.823C411.586 396.142 410.599 397.297 409.409 398.216C408.218 399.134 406.851 399.796 405.393 400.16C403.935 400.524 402.417 400.582 400.935 400.33Z" fill="#444444"/>
<path d="M399.877 389.492L189.46 353.554L215.323 62.8345L428.777 64.6614L399.877 389.492Z" fill="#E7EDF4"/>
<path style="mix-blend-mode:multiply" d="M399.877 389.492L189.46 353.554L215.323 62.8345L428.777 64.6614L399.877 389.492Z" fill="url(#paint2_linear_1_115)"/>
<path d="M428.779 64.6614L215.324 62.8345C215.324 62.8345 187.007 302.155 168.891 317.507L382.115 364.07L428.779 64.6614Z" fill="white"/>
<path d="M168.89 317.507C168.89 317.507 145.466 306.162 147.552 273.985L337.767 318.674C337.767 318.674 377.083 396.416 385.182 344.45L382.114 364.07L168.89 317.507Z" fill="#DDE3E9"/>
<path d="M286.939 57.0338C289.834 56.4362 291.698 53.6025 291.101 50.7044C290.504 47.8063 287.672 45.9413 284.777 46.5389C281.881 47.1364 280.017 49.9702 280.614 52.8682C281.211 55.7663 284.043 57.6313 286.939 57.0338Z" fill="#818181"/>
<path d="M363.456 56.8792C366.341 56.2327 368.157 53.3677 367.511 50.4802C366.865 47.5926 364.002 45.7759 361.117 46.4224C358.232 47.0689 356.416 49.9338 357.062 52.8214C357.708 55.7089 360.571 57.5257 363.456 56.8792Z" fill="#818181"/>
<path d="M285.856 51.7793L284.153 70.831C284.089 71.5502 284.176 72.2747 284.408 72.9585C284.639 73.6422 285.011 74.27 285.499 74.8017C285.987 75.3334 286.581 75.7574 287.242 76.0465C287.903 76.3355 288.617 76.4834 289.338 76.4805H314.772L314.848 75.5748C314.977 74.2266 315.6 72.974 316.597 72.0583C317.594 71.1427 318.895 70.6289 320.248 70.6161H322.672C323.428 70.6093 324.178 70.7604 324.873 71.0598C325.568 71.3592 326.194 71.8003 326.709 72.355C327.224 72.9097 327.618 73.5658 327.866 74.2814C328.114 74.997 328.21 75.7564 328.148 76.5112H355.346C356.659 76.5021 357.919 75.9947 358.873 75.0914C359.827 74.1881 360.403 72.9563 360.484 71.6447L362.264 51.6872" stroke="#818181" stroke-width="2.97295" stroke-linejoin="round"/>
<path d="M243.686 110.702L378.891 114.263" stroke="#E7EDF4" stroke-width="2.97295" stroke-miterlimit="10" stroke-linecap="round"/>
<path d="M241.876 131.01L377.082 134.572" stroke="#E7EDF4" stroke-width="2.97295" stroke-miterlimit="10" stroke-linecap="round"/>
<path d="M238.548 151.184L373.753 154.745" stroke="#E7EDF4" stroke-width="2.97295" stroke-miterlimit="10" stroke-linecap="round"/>
<path d="M235.202 171.356L370.408 174.918" stroke="#E7EDF4" stroke-width="2.97295" stroke-miterlimit="10" stroke-linecap="round"/>
<path d="M231.874 191.53L367.08 195.091" stroke="#E7EDF4" stroke-width="2.97295" stroke-miterlimit="10" stroke-linecap="round"/>
<path d="M297.299 242.114C296.927 246.328 295.315 250.337 292.666 253.634C290.017 256.931 286.451 259.367 282.419 260.636C278.386 261.904 274.068 261.946 270.011 260.758C265.954 259.57 262.341 257.204 259.628 253.961C256.914 250.717 255.223 246.74 254.769 242.535C254.314 238.329 255.116 234.083 257.073 230.333C259.03 226.583 262.054 223.499 265.763 221.47C269.472 219.44 273.699 218.558 277.909 218.933C283.551 219.436 288.763 222.16 292.398 226.507C296.034 230.854 297.797 236.468 297.299 242.114Z" fill="#E7EDF4"/>
<path d="M236.54 253.659C233.571 249.991 231.393 245.746 230.144 241.194C228.895 236.641 228.603 231.879 229.284 227.207C229.622 224.951 230.527 222.356 232.736 221.742C235.957 220.806 238.289 224.813 239.332 227.975C240.667 232.105 242.016 236.234 243.351 240.364C243.517 241.176 243.962 241.904 244.609 242.421C247.876 244.478 249.41 235.068 253.015 236.48C254.979 237.248 254.365 240.272 255.531 242.022C256.697 243.772 259.887 243.665 261.958 242.513C264.029 241.362 265.916 239.627 268.263 239.443C270.61 239.259 272.758 240.441 275.028 240.211C278.97 239.781 282.054 235.037 285.873 236.112" stroke="#D1D1D1" stroke-width="2.97295" stroke-miterlimit="10" stroke-linecap="round"/>
<path d="M274.474 369.979L241.279 357.191C239.846 356.639 238.318 356.375 236.783 356.414C235.247 356.454 233.735 356.795 232.332 357.42C230.929 358.044 229.662 358.939 228.605 360.054C227.547 361.168 226.72 362.48 226.169 363.915C225.055 366.814 225.137 370.037 226.397 372.876C227.657 375.714 229.992 377.936 232.888 379.052L266.068 391.825C268.965 392.936 272.184 392.852 275.019 391.591C277.855 390.331 280.075 387.997 281.193 385.101C281.745 383.666 282.008 382.137 281.969 380.601C281.93 379.064 281.589 377.551 280.965 376.147C280.341 374.742 279.446 373.475 278.333 372.417C277.219 371.358 275.908 370.53 274.474 369.979Z" fill="white"/>
<path d="M274.476 369.979L257.878 363.577L249.472 385.438L266.069 391.825C268.964 392.94 272.183 392.859 275.018 391.6C277.853 390.34 280.072 388.005 281.187 385.108C282.302 382.211 282.221 378.99 280.962 376.153C279.704 373.315 277.37 371.095 274.476 369.979Z" fill="#425CDA"/>
<path style="mix-blend-mode:multiply" d="M274.151 385.333L231.199 368.814C229.051 367.996 227.193 366.559 225.861 364.685C224.977 367.521 225.205 370.588 226.499 373.262C227.792 375.937 230.054 378.018 232.825 379.085L266.005 391.857C268.775 392.922 271.846 392.892 274.594 391.775C277.343 390.657 279.565 388.535 280.808 385.839C278.587 386.324 276.273 386.148 274.151 385.333Z" fill="url(#paint3_linear_1_115)"/>
<path d="M324.005 329.006L289.797 338.693C288.32 339.111 286.938 339.816 285.733 340.768C284.527 341.721 283.521 342.901 282.772 344.243C282.023 345.584 281.545 347.061 281.366 348.587C281.187 350.114 281.31 351.66 281.729 353.139C282.146 354.618 282.851 356.001 283.802 357.207C284.754 358.413 285.934 359.42 287.274 360.17C288.615 360.92 290.09 361.398 291.615 361.578C293.14 361.757 294.686 361.633 296.164 361.214L330.371 351.543C333.357 350.699 335.885 348.703 337.401 345.994C338.917 343.285 339.296 340.085 338.456 337.097C338.038 335.615 337.333 334.231 336.381 333.023C335.428 331.815 334.247 330.806 332.906 330.055C331.564 329.304 330.087 328.824 328.56 328.644C327.033 328.464 325.485 328.587 324.005 329.006Z" fill="white"/>
<path d="M324.007 329.004L306.903 333.84L313.269 356.376L330.373 351.556C331.886 351.168 333.306 350.481 334.549 349.536C335.792 348.591 336.834 347.406 337.613 346.052C338.392 344.698 338.892 343.201 339.084 341.65C339.277 340.099 339.157 338.526 338.732 337.022C338.307 335.518 337.586 334.115 336.611 332.894C335.636 331.674 334.427 330.661 333.055 329.915C331.683 329.169 330.175 328.706 328.622 328.552C327.068 328.398 325.499 328.557 324.007 329.019V329.004Z" fill="#425CDA"/>
<path style="mix-blend-mode:multiply" d="M332.871 341.472L288.646 353.984C286.438 354.606 284.096 354.563 281.912 353.861C282.9 356.662 284.917 358.982 287.553 360.348C290.189 361.714 293.245 362.024 296.101 361.214L330.309 351.543C333.166 350.732 335.608 348.864 337.14 346.319C338.673 343.773 339.181 340.74 338.562 337.833C337.064 339.58 335.085 340.846 332.871 341.472Z" fill="url(#paint4_linear_1_115)"/>
<path d="M147.522 63.4474H135.741V51.6571H122.61V63.4474H110.813V76.604H122.61V88.3942H135.741V76.604H147.522V63.4474Z" fill="#9E2E2E"/>
<path d="M180.977 110.839H172.97V102.826H164.057V110.839H156.05V119.759H164.057V127.773H172.97V119.759H180.977V110.839Z" fill="#9E2E2E"/>
<path d="M494.892 89.9594H486.885V81.9457H477.973V89.9594H469.98V98.8788H477.973V106.893H486.885V98.8788H494.892V89.9594Z" fill="#9E2E2E"/>
<path d="M449.029 328.237L505.065 165.062C505.542 163.311 505.307 161.443 504.414 159.864C503.52 158.286 502.04 157.125 500.295 156.633L406.108 124.241C404.429 123.555 402.547 123.563 400.874 124.262C399.201 124.961 397.873 126.295 397.18 127.971L341.143 291.132C340.663 292.882 340.895 294.752 341.789 296.332C342.683 297.912 344.167 299.072 345.914 299.56L440.101 331.952C441.778 332.639 443.658 332.634 445.33 331.938C447.003 331.241 448.333 329.911 449.029 328.237Z" fill="#5B3F88"/>
<g style="mix-blend-mode:multiply" opacity="0.6">
<path d="M433.502 154.238L412.026 146.93C411.097 146.614 410.114 146.485 409.134 146.549C408.154 146.613 407.197 146.87 406.316 147.305C405.436 147.74 404.65 148.344 404.003 149.083C403.356 149.822 402.861 150.682 402.546 151.613C401.905 153.48 402.03 155.525 402.892 157.3C403.755 159.076 405.285 160.437 407.148 161.085L428.624 168.392C430.492 169.039 432.539 168.917 434.317 168.053C436.094 167.19 437.456 165.655 438.104 163.787C438.429 162.858 438.568 161.873 438.512 160.89C438.457 159.907 438.208 158.945 437.781 158.058C437.354 157.171 436.756 156.377 436.022 155.722C435.287 155.066 434.431 154.562 433.502 154.238Z" fill="#818181"/>
</g>
<g style="mix-blend-mode:multiply" opacity="0.6">
<path d="M481.671 170.818L460.195 163.511C458.327 162.865 456.28 162.987 454.502 163.85C452.725 164.714 451.362 166.248 450.715 168.116C450.077 169.986 450.203 172.031 451.065 173.808C451.927 175.585 453.455 176.949 455.317 177.604L476.792 184.911C478.66 185.554 480.706 185.43 482.482 184.567C484.259 183.703 485.621 182.172 486.273 180.306C486.918 178.437 486.796 176.388 485.934 174.609C485.071 172.83 483.537 171.467 481.671 170.818Z" fill="#818181"/>
</g>
<g style="mix-blend-mode:multiply" opacity="0.6">
<path d="M424.758 179.616L403.282 172.309C401.417 171.667 399.373 171.792 397.599 172.655C395.825 173.518 394.466 175.05 393.818 176.914C393.172 178.783 393.294 180.832 394.157 182.611C395.02 184.39 396.553 185.754 398.42 186.402L419.895 193.709C421.763 194.352 423.809 194.228 425.585 193.365C427.362 192.501 428.724 190.97 429.375 189.104C430.012 187.233 429.884 185.186 429.019 183.408C428.154 181.631 426.623 180.268 424.758 179.616Z" fill="#818181"/>
</g>
<g style="mix-blend-mode:multiply" opacity="0.6">
<path d="M472.958 196.243L451.482 188.935C449.606 188.301 447.556 188.438 445.781 189.316C444.007 190.194 442.653 191.741 442.017 193.617C441.376 195.484 441.5 197.53 442.363 199.305C443.225 201.08 444.756 202.441 446.619 203.09L468.095 210.397C469.962 211.043 472.01 210.921 473.787 210.058C475.565 209.194 476.927 207.66 477.575 205.792C477.899 204.861 478.038 203.876 477.981 202.892C477.925 201.908 477.675 200.945 477.246 200.058C476.817 199.171 476.217 198.378 475.482 197.723C474.746 197.068 473.888 196.565 472.958 196.243Z" fill="#818181"/>
</g>
<g style="mix-blend-mode:multiply" opacity="0.6">
<path d="M416.03 205.115L394.554 197.807C392.687 197.161 390.639 197.283 388.862 198.146C387.084 199.01 385.722 200.545 385.074 202.413C384.437 204.282 384.563 206.327 385.424 208.104C386.286 209.881 387.814 211.245 389.676 211.9L411.152 219.208C413.027 219.842 415.078 219.704 416.852 218.827C418.627 217.949 419.981 216.402 420.617 214.525C421.244 212.668 421.114 210.639 420.255 208.877C419.397 207.115 417.878 205.763 416.03 205.115Z" fill="#818181"/>
</g>
<g style="mix-blend-mode:multiply" opacity="0.6">
<path d="M464.211 221.68L442.736 214.373C440.868 213.735 438.824 213.861 437.049 214.723C435.273 215.586 433.91 217.115 433.255 218.978C432.622 220.857 432.758 222.911 433.635 224.69C434.512 226.468 436.058 227.826 437.934 228.466L459.41 235.773C461.278 236.415 463.323 236.291 465.1 235.428C466.876 234.565 468.239 233.033 468.89 231.168C469.524 229.288 469.387 227.234 468.51 225.456C467.633 223.678 466.087 222.32 464.211 221.68Z" fill="#818181"/>
</g>
<g style="mix-blend-mode:multiply" opacity="0.6">
<path d="M407.026 231.352L385.55 224.045C383.683 223.398 381.635 223.521 379.858 224.384C378.08 225.248 376.718 226.782 376.07 228.65C375.433 230.52 375.559 232.565 376.42 234.342C377.282 236.119 378.81 237.483 380.672 238.138L402.148 245.445C404.014 246.083 406.055 245.956 407.828 245.094C409.601 244.231 410.961 242.702 411.613 240.84C412.259 238.973 412.139 236.926 411.28 235.147C410.42 233.368 408.89 232.004 407.026 231.352Z" fill="#818181"/>
</g>
<g style="mix-blend-mode:multiply" opacity="0.6">
<path d="M455.208 247.916L433.733 240.608C431.865 239.966 429.819 240.09 428.043 240.953C426.266 241.816 424.904 243.348 424.253 245.214C423.619 247.093 423.755 249.147 424.632 250.925C425.509 252.704 427.055 254.062 428.931 254.701L450.407 262.009C452.272 262.65 454.316 262.526 456.09 261.663C457.864 260.799 459.224 259.268 459.872 257.403C460.19 256.474 460.322 255.491 460.26 254.51C460.197 253.53 459.942 252.571 459.509 251.69C459.076 250.808 458.473 250.021 457.735 249.374C456.997 248.726 456.138 248.23 455.208 247.916Z" fill="#818181"/>
</g>
<g style="mix-blend-mode:multiply" opacity="0.6">
<path d="M398.097 257.358L376.621 250.05C374.746 249.416 372.696 249.554 370.921 250.431C369.146 251.309 367.792 252.856 367.157 254.733C366.516 256.599 366.64 258.645 367.502 260.42C368.365 262.195 369.896 263.556 371.759 264.205L393.234 271.512C395.102 272.159 397.149 272.037 398.927 271.173C400.705 270.309 402.067 268.775 402.715 266.907C403.039 265.976 403.177 264.991 403.121 264.007C403.064 263.023 402.814 262.06 402.385 261.173C401.957 260.286 401.357 259.493 400.621 258.838C399.885 258.183 399.028 257.68 398.097 257.358Z" fill="#818181"/>
</g>
<g style="mix-blend-mode:multiply" opacity="0.6">
<path d="M446.279 273.939L424.803 266.631C422.936 265.985 420.888 266.107 419.111 266.971C417.333 267.834 415.971 269.369 415.323 271.237C414.686 273.106 414.812 275.152 415.673 276.928C416.535 278.705 418.063 280.069 419.925 280.725L441.401 288.032C443.268 288.674 445.314 288.55 447.091 287.687C448.867 286.824 450.23 285.292 450.881 283.426C451.527 281.558 451.405 279.509 450.542 277.73C449.679 275.951 448.146 274.587 446.279 273.939Z" fill="#818181"/>
</g>
<g style="mix-blend-mode:multiply" opacity="0.6">
<path d="M389.354 282.795L367.878 275.487C366.013 274.846 363.969 274.97 362.195 275.833C360.421 276.697 359.061 278.228 358.413 280.093C357.768 281.962 357.889 284.011 358.752 285.79C359.615 287.569 361.149 288.932 363.015 289.58L384.491 296.888C386.359 297.526 388.403 297.4 390.178 296.537C391.953 295.675 393.317 294.146 393.971 292.282C394.612 290.411 394.486 288.362 393.621 286.584C392.755 284.806 391.221 283.443 389.354 282.795Z" fill="#818181"/>
</g>
<g style="mix-blend-mode:multiply" opacity="0.6">
<path d="M437.535 299.36L416.059 292.053C414.194 291.416 412.152 291.542 410.379 292.405C408.606 293.267 407.246 294.796 406.594 296.658C406.275 297.583 406.14 298.561 406.199 299.537C406.257 300.514 406.507 301.469 406.934 302.349C407.362 303.228 407.958 304.015 408.689 304.664C409.421 305.313 410.273 305.811 411.196 306.131L432.672 313.438C434.54 314.084 436.587 313.962 438.365 313.099C440.142 312.235 441.505 310.701 442.152 308.833C442.784 306.963 442.654 304.92 441.789 303.147C440.925 301.373 439.396 300.012 437.535 299.36Z" fill="#818181"/>
</g>
<path d="M434.928 150.094L413.452 142.786C411.584 142.14 409.537 142.262 407.759 143.125C405.982 143.989 404.619 145.523 403.972 147.392C403.33 149.261 403.454 151.308 404.316 153.086C405.179 154.864 406.709 156.227 408.574 156.879L430.05 164.187C431.917 164.824 433.961 164.698 435.736 163.836C437.512 162.973 438.875 161.444 439.53 159.581C440.171 157.712 440.047 155.665 439.185 153.887C438.323 152.109 436.792 150.745 434.928 150.094Z" fill="white"/>
<path style="mix-blend-mode:multiply" d="M435.114 159.874L407.318 150.448C405.932 149.974 404.716 149.104 403.82 147.945C403.33 149.777 403.553 151.726 404.444 153.399C405.335 155.072 406.829 156.344 408.622 156.957L430.098 164.264C431.893 164.872 433.852 164.774 435.578 163.99C437.305 163.206 438.668 161.795 439.394 160.043C437.982 160.413 436.492 160.354 435.114 159.874Z" fill="url(#paint5_linear_1_115)"/>
<path d="M483.109 166.659L461.633 159.352C459.766 158.709 457.72 158.833 455.944 159.697C454.167 160.56 452.804 162.091 452.153 163.957C451.516 165.826 451.642 167.872 452.503 169.649C453.365 171.425 454.893 172.79 456.755 173.445L478.231 180.752C480.099 181.394 482.144 181.27 483.921 180.407C485.697 179.544 487.06 178.012 487.711 176.147C488.353 174.278 488.229 172.23 487.366 170.452C486.504 168.675 484.973 167.311 483.109 166.659Z" fill="white"/>
<path style="mix-blend-mode:multiply" d="M483.294 176.453L455.59 166.996C454.2 166.524 452.979 165.654 452.077 164.494C451.586 166.326 451.809 168.275 452.701 169.948C453.592 171.621 455.086 172.893 456.879 173.506L478.354 180.813C480.15 181.425 482.111 181.329 483.838 180.544C485.565 179.76 486.928 178.346 487.65 176.591C486.218 176.987 484.699 176.939 483.294 176.453Z" fill="url(#paint6_linear_1_115)"/>
<path d="M426.047 175.932L404.571 168.61C402.705 167.972 400.664 168.099 398.891 168.961C397.118 169.824 395.757 171.353 395.106 173.215C394.787 174.139 394.652 175.118 394.711 176.094C394.769 177.07 395.019 178.026 395.446 178.905C395.874 179.785 396.47 180.572 397.201 181.221C397.933 181.87 398.784 182.368 399.708 182.687L421.184 190.01C423.052 190.648 425.096 190.522 426.871 189.66C428.646 188.797 430.01 187.268 430.664 185.405C431.3 183.535 431.172 181.49 430.307 179.716C429.442 177.941 427.91 176.581 426.047 175.932Z" fill="white"/>
<path style="mix-blend-mode:multiply" d="M426.248 185.755L398.453 176.314C397.061 175.844 395.843 174.967 394.955 173.796C394.464 175.628 394.687 177.577 395.579 179.25C396.47 180.923 397.964 182.195 399.757 182.808L421.232 190.131C423.028 190.738 424.987 190.641 426.713 189.857C428.439 189.073 429.803 187.661 430.528 185.909C429.117 186.276 427.63 186.222 426.248 185.755Z" fill="url(#paint7_linear_1_115)"/>
<path d="M474.246 192.497L452.77 185.19C450.905 184.548 448.861 184.672 447.087 185.536C445.313 186.399 443.954 187.931 443.306 189.795C442.664 191.664 442.788 193.711 443.65 195.489C444.513 197.267 446.043 198.631 447.908 199.283L469.383 206.59C471.251 207.228 473.295 207.102 475.07 206.24C476.846 205.377 478.209 203.848 478.864 201.985C479.5 200.113 479.372 198.066 478.507 196.289C477.642 194.512 476.111 193.149 474.246 192.497Z" fill="white"/>
<path style="mix-blend-mode:multiply" d="M474.429 202.276L446.633 192.834C445.248 192.361 444.031 191.491 443.136 190.332C442.645 192.163 442.868 194.113 443.759 195.786C444.651 197.459 446.144 198.731 447.937 199.344L469.413 206.651C471.209 207.259 473.168 207.161 474.894 206.377C476.62 205.593 477.984 204.182 478.709 202.429C477.299 202.805 475.809 202.751 474.429 202.276Z" fill="url(#paint8_linear_1_115)"/>
<path d="M417.241 201.753L395.765 194.445C393.888 193.811 391.835 193.948 390.058 194.825C388.281 195.703 386.924 197.25 386.285 199.128C385.649 200.995 385.775 203.038 386.637 204.812C387.499 206.587 389.027 207.948 390.887 208.6L412.363 215.907C413.287 216.227 414.264 216.362 415.24 216.303C416.215 216.245 417.17 215.995 418.049 215.567C418.928 215.139 419.714 214.542 420.362 213.811C421.011 213.079 421.509 212.226 421.828 211.302C422.157 210.374 422.3 209.389 422.248 208.406C422.195 207.422 421.949 206.459 421.522 205.571C421.096 204.683 420.498 203.889 419.763 203.234C419.028 202.578 418.171 202.075 417.241 201.753Z" fill="white"/>
<path style="mix-blend-mode:multiply" d="M417.364 211.548L389.63 202.091C388.242 201.622 387.025 200.751 386.132 199.588C385.634 201.42 385.854 203.373 386.746 205.048C387.639 206.723 389.137 207.994 390.934 208.6L412.41 215.908C414.203 216.516 416.161 216.421 417.887 215.64C419.613 214.859 420.978 213.451 421.706 211.701C420.275 212.078 418.765 212.024 417.364 211.548Z" fill="url(#paint9_linear_1_115)"/>
<path d="M465.363 218.333L443.887 211.025C442.963 210.706 441.986 210.571 441.01 210.629C440.035 210.688 439.08 210.938 438.201 211.366C437.322 211.793 436.536 212.39 435.888 213.122C435.239 213.854 434.741 214.706 434.422 215.631C433.776 217.5 433.898 219.549 434.761 221.328C435.624 223.107 437.157 224.47 439.024 225.118L460.5 232.426C462.378 233.06 464.43 232.924 466.207 232.046C467.984 231.168 469.341 229.621 469.98 227.744C470.597 225.882 470.459 223.853 469.596 222.093C468.732 220.332 467.212 218.982 465.363 218.333Z" fill="white"/>
<path style="mix-blend-mode:multiply" d="M465.548 228.113L437.767 218.671C436.38 218.202 435.162 217.331 434.27 216.169C433.775 218 433.997 219.952 434.888 221.626C435.78 223.3 437.276 224.571 439.071 225.181L460.547 232.488C462.343 233.096 464.302 232.998 466.028 232.214C467.754 231.43 469.118 230.019 469.843 228.266C468.428 228.641 466.933 228.588 465.548 228.113Z" fill="url(#paint10_linear_1_115)"/>
<path d="M408.315 227.591L386.839 220.284C384.972 219.642 382.926 219.766 381.15 220.629C379.373 221.492 378.01 223.024 377.359 224.889C376.722 226.759 376.848 228.804 377.71 230.581C378.571 232.357 380.099 233.722 381.961 234.377L403.437 241.684C405.302 242.326 407.346 242.201 409.12 241.338C410.894 240.475 412.254 238.943 412.902 237.079C413.544 235.212 413.422 233.166 412.563 231.389C411.704 229.611 410.177 228.246 408.315 227.591Z" fill="white"/>
<path style="mix-blend-mode:multiply" d="M408.498 237.385L380.718 227.928C379.328 227.455 378.107 226.585 377.205 225.426C376.714 227.257 376.937 229.206 377.829 230.88C378.72 232.553 380.214 233.824 382.006 234.437L403.482 241.745C405.276 242.356 407.234 242.259 408.959 241.475C410.683 240.69 412.044 239.277 412.763 237.523C411.359 237.9 409.875 237.852 408.498 237.385Z" fill="url(#paint11_linear_1_115)"/>
<path d="M456.499 244.094L435.023 236.787C433.145 236.152 431.093 236.289 429.316 237.167C427.539 238.044 426.182 239.592 425.543 241.469C424.91 243.346 425.047 245.398 425.924 247.174C426.801 248.95 428.347 250.305 430.222 250.941L451.697 258.264C453.573 258.898 455.623 258.761 457.398 257.883C459.173 257.005 460.526 255.458 461.162 253.581C461.478 252.652 461.609 251.669 461.546 250.69C461.482 249.71 461.227 248.752 460.794 247.871C460.361 246.99 459.759 246.203 459.022 245.555C458.285 244.907 457.428 244.411 456.499 244.094Z" fill="white"/>
<path style="mix-blend-mode:multiply" d="M456.682 253.95L428.901 244.493C427.508 244.035 426.288 243.162 425.404 241.991C424.906 243.822 425.125 245.775 426.018 247.45C426.91 249.125 428.408 250.396 430.205 251.002L451.681 258.325C453.477 258.933 455.436 258.835 457.162 258.051C458.888 257.267 460.252 255.856 460.977 254.103C459.561 254.471 458.068 254.417 456.682 253.95Z" fill="url(#paint12_linear_1_115)"/>
<path d="M399.446 253.428L377.97 246.121C376.103 245.479 374.057 245.603 372.281 246.466C370.504 247.329 369.141 248.861 368.49 250.726C367.849 252.595 367.973 254.643 368.835 256.421C369.697 258.198 371.228 259.562 373.092 260.214L394.568 267.521C396.436 268.159 398.48 268.033 400.255 267.171C402.03 266.308 403.394 264.779 404.048 262.916C404.69 261.047 404.566 259 403.703 257.222C402.841 255.444 401.31 254.08 399.446 253.428Z" fill="white"/>
<path style="mix-blend-mode:multiply" d="M399.63 263.206L371.834 253.765C370.449 253.292 369.233 252.422 368.337 251.263C367.846 253.094 368.069 255.044 368.961 256.717C369.852 258.39 371.345 259.661 373.138 260.274L394.614 267.582C396.41 268.19 398.369 268.092 400.095 267.308C401.821 266.524 403.185 265.113 403.91 263.36C402.5 263.735 401.01 263.682 399.63 263.206Z" fill="url(#paint13_linear_1_115)"/>
<path d="M447.631 269.992L426.155 262.685C424.287 262.047 422.243 262.173 420.468 263.035C418.693 263.898 417.33 265.427 416.675 267.29C416.038 269.158 416.164 271.201 417.026 272.975C417.889 274.749 419.416 276.111 421.277 276.763L442.753 284.07C444.62 284.716 446.668 284.594 448.445 283.731C450.223 282.867 451.585 281.333 452.233 279.465C452.87 277.597 452.743 275.554 451.881 273.78C451.019 272.006 449.492 270.644 447.631 269.992Z" fill="white"/>
<path style="mix-blend-mode:multiply" d="M447.814 279.787L420.033 270.33C418.643 269.857 417.422 268.987 416.521 267.828C416.03 269.659 416.253 271.609 417.144 273.282C418.036 274.955 419.529 276.226 421.322 276.839L442.798 284.147C444.591 284.759 446.55 284.665 448.277 283.884C450.004 283.103 451.369 281.693 452.094 279.94C450.683 280.307 449.195 280.254 447.814 279.787Z" fill="url(#paint14_linear_1_115)"/>
<path d="M390.569 279.265L369.093 271.958C368.169 271.638 367.192 271.503 366.216 271.562C365.241 271.62 364.286 271.87 363.407 272.298C362.528 272.726 361.742 273.322 361.094 274.054C360.445 274.786 359.947 275.639 359.628 276.563C358.982 278.432 359.104 280.481 359.967 282.26C360.83 284.039 362.363 285.402 364.23 286.051L385.706 293.358C387.574 293.996 389.618 293.87 391.393 293.008C393.168 292.145 394.532 290.616 395.186 288.753C395.827 286.882 395.701 284.833 394.835 283.054C393.97 281.276 392.436 279.914 390.569 279.265Z" fill="white"/>
<path style="mix-blend-mode:multiply" d="M390.767 289.043L362.971 279.602C361.583 279.133 360.366 278.262 359.474 277.1C358.983 278.931 359.206 280.881 360.097 282.554C360.989 284.227 362.482 285.498 364.275 286.111L385.751 293.419C387.546 294.027 389.506 293.929 391.232 293.145C392.958 292.361 394.322 290.95 395.047 289.197C393.637 289.572 392.147 289.519 390.767 289.043Z" fill="url(#paint15_linear_1_115)"/>
<path d="M438.719 295.831L417.243 288.523C415.378 287.882 413.334 288.006 411.56 288.869C409.786 289.732 408.426 291.264 407.778 293.129C407.137 294.998 407.261 297.045 408.123 298.823C408.985 300.601 410.516 301.965 412.38 302.616L433.856 309.924C435.724 310.566 437.769 310.442 439.546 309.579C441.322 308.716 442.685 307.184 443.336 305.318C443.973 303.447 443.845 301.4 442.98 299.623C442.115 297.846 440.584 296.483 438.719 295.831Z" fill="white"/>
<path style="mix-blend-mode:multiply" d="M438.951 305.625L411.109 296.168C409.723 295.695 408.507 294.825 407.611 293.666C407.121 295.497 407.344 297.446 408.235 299.12C409.126 300.793 410.62 302.064 412.413 302.677L433.889 309.985C435.684 310.596 437.645 310.5 439.372 309.716C441.099 308.931 442.462 307.518 443.185 305.763C441.79 306.134 440.318 306.086 438.951 305.625Z" fill="url(#paint16_linear_1_115)"/>
<path d="M459.289 360.215C459.289 362.213 458.697 364.166 457.588 365.827C456.479 367.489 454.902 368.783 453.058 369.548C451.213 370.312 449.184 370.513 447.226 370.123C445.268 369.733 443.47 368.771 442.058 367.358C440.646 365.945 439.685 364.146 439.296 362.186C438.906 360.226 439.106 358.195 439.87 356.35C440.634 354.504 441.928 352.926 443.587 351.816C445.247 350.706 447.199 350.114 449.195 350.114C450.521 350.112 451.835 350.372 453.06 350.879C454.286 351.385 455.399 352.129 456.337 353.068C457.275 354.006 458.018 355.121 458.525 356.347C459.031 357.574 459.291 358.888 459.289 360.215Z" fill="#C79ADB"/>
<path d="M69.0271 326.549C69.0241 328.547 68.4295 330.498 67.3186 332.157C66.2076 333.817 64.6302 335.109 62.7855 335.871C60.9409 336.633 58.9119 336.831 56.9549 336.44C54.998 336.048 53.2009 335.085 51.7908 333.671C50.3807 332.258 49.4209 330.458 49.0327 328.499C48.6445 326.54 48.8452 324.51 49.6096 322.665C50.3741 320.82 51.6678 319.243 53.3273 318.134C54.9869 317.025 56.9378 316.432 58.9335 316.432C60.2603 316.432 61.5741 316.694 62.7997 317.203C64.0253 317.711 65.1387 318.457 66.0762 319.397C67.0137 320.336 67.7568 321.452 68.2632 322.679C68.7695 323.906 69.0291 325.222 69.0271 326.549Z" fill="#C79ADB"/>
<path d="M474.229 381.462C474.229 382.523 473.914 383.559 473.325 384.44C472.736 385.322 471.899 386.009 470.92 386.414C469.941 386.819 468.864 386.924 467.825 386.716C466.786 386.508 465.832 385.996 465.084 385.245C464.336 384.494 463.827 383.538 463.622 382.498C463.418 381.458 463.526 380.38 463.933 379.401C464.341 378.422 465.03 377.587 465.912 377C466.794 376.413 467.831 376.101 468.89 376.104C469.593 376.104 470.288 376.243 470.937 376.513C471.586 376.782 472.175 377.177 472.671 377.675C473.167 378.172 473.559 378.763 473.827 379.413C474.094 380.063 474.231 380.759 474.229 381.462Z" fill="#C79ADB"/>
<path d="M42.6125 308.956C42.6155 310.017 42.3037 311.055 41.7166 311.938C41.1295 312.822 40.2936 313.511 39.3147 313.918C38.3358 314.326 37.2581 314.433 36.2182 314.227C35.1783 314.021 34.223 313.51 33.4733 312.76C32.7237 312.01 32.2135 311.054 32.0074 310.013C31.8013 308.972 31.9086 307.894 32.3157 306.914C32.7228 305.934 33.4114 305.098 34.2941 304.51C35.1769 303.923 36.2141 303.61 37.2742 303.614C38.69 303.614 40.0478 304.176 41.0489 305.178C42.0501 306.18 42.6125 307.539 42.6125 308.956Z" fill="#C79ADB"/>
</g>
<defs>
<linearGradient id="paint0_linear_1_115" x1="191.885" y1="311.841" x2="33.6323" y2="245.165" gradientUnits="userSpaceOnUse">
<stop stop-color="white" stop-opacity="0"/>
<stop offset="1" stop-color="#235196"/>
</linearGradient>
<linearGradient id="paint1_linear_1_115" x1="41.2439" y1="186.876" x2="139.443" y2="276.163" gradientUnits="userSpaceOnUse">
<stop stop-color="white" stop-opacity="0"/>
<stop offset="1" stop-color="#235196"/>
</linearGradient>
<linearGradient id="paint2_linear_1_115" x1="382.809" y1="225.497" x2="-8.34666" y2="190.321" gradientUnits="userSpaceOnUse">
<stop stop-color="white" stop-opacity="0"/>
<stop offset="1" stop-color="#818181"/>
</linearGradient>
<linearGradient id="paint3_linear_1_115" x1="246.955" y1="342.121" x2="259.281" y2="412.041" gradientUnits="userSpaceOnUse">
<stop stop-color="white" stop-opacity="0"/>
<stop offset="1" stop-color="#235196"/>
</linearGradient>
<linearGradient id="paint4_linear_1_115" x1="285.286" y1="323.263" x2="337.056" y2="371.807" gradientUnits="userSpaceOnUse">
<stop stop-color="white" stop-opacity="0"/>
<stop offset="1" stop-color="#235196"/>
</linearGradient>
<linearGradient id="paint5_linear_1_115" x1="416.658" y1="133.066" x2="426.285" y2="177.371" gradientUnits="userSpaceOnUse">
<stop stop-color="white" stop-opacity="0"/>
<stop offset="1" stop-color="#235196"/>
</linearGradient>
<linearGradient id="paint6_linear_1_115" x1="464.831" y1="149.645" x2="474.463" y2="193.935" gradientUnits="userSpaceOnUse">
<stop stop-color="white" stop-opacity="0"/>
<stop offset="1" stop-color="#235196"/>
</linearGradient>
<linearGradient id="paint7_linear_1_115" x1="407.786" y1="158.908" x2="417.418" y2="203.198" gradientUnits="userSpaceOnUse">
<stop stop-color="white" stop-opacity="0"/>
<stop offset="1" stop-color="#235196"/>
</linearGradient>
<linearGradient id="paint8_linear_1_115" x1="455.964" y1="175.475" x2="465.591" y2="219.779" gradientUnits="userSpaceOnUse">
<stop stop-color="white" stop-opacity="0"/>
<stop offset="1" stop-color="#235196"/>
</linearGradient>
<linearGradient id="paint9_linear_1_115" x1="398.901" y1="184.733" x2="408.543" y2="229.043" gradientUnits="userSpaceOnUse">
<stop stop-color="white" stop-opacity="0"/>
<stop offset="1" stop-color="#235196"/>
</linearGradient>
<linearGradient id="paint10_linear_1_115" x1="447.092" y1="201.318" x2="456.724" y2="245.608" gradientUnits="userSpaceOnUse">
<stop stop-color="white" stop-opacity="0"/>
<stop offset="1" stop-color="#235196"/>
</linearGradient>
<linearGradient id="paint11_linear_1_115" x1="390.028" y1="210.576" x2="399.675" y2="254.871" gradientUnits="userSpaceOnUse">
<stop stop-color="white" stop-opacity="0"/>
<stop offset="1" stop-color="#235196"/>
</linearGradient>
<linearGradient id="paint12_linear_1_115" x1="438.224" y1="227.147" x2="447.851" y2="271.451" gradientUnits="userSpaceOnUse">
<stop stop-color="white" stop-opacity="0"/>
<stop offset="1" stop-color="#235196"/>
</linearGradient>
<linearGradient id="paint13_linear_1_115" x1="381.159" y1="236.405" x2="390.786" y2="280.71" gradientUnits="userSpaceOnUse">
<stop stop-color="white" stop-opacity="0"/>
<stop offset="1" stop-color="#235196"/>
</linearGradient>
<linearGradient id="paint14_linear_1_115" x1="429.349" y1="252.99" x2="438.982" y2="297.28" gradientUnits="userSpaceOnUse">
<stop stop-color="white" stop-opacity="0"/>
<stop offset="1" stop-color="#235196"/>
</linearGradient>
<linearGradient id="paint15_linear_1_115" x1="372.289" y1="262.248" x2="381.921" y2="306.538" gradientUnits="userSpaceOnUse">
<stop stop-color="white" stop-opacity="0"/>
<stop offset="1" stop-color="#235196"/>
</linearGradient>
<linearGradient id="paint16_linear_1_115" x1="420.485" y1="278.819" x2="430.117" y2="323.109" gradientUnits="userSpaceOnUse">
<stop stop-color="white" stop-opacity="0"/>
<stop offset="1" stop-color="#235196"/>
</linearGradient>
<clipPath id="clip0_1_115">
<rect width="516.846" height="437.13" fill="white"/>
</clipPath>
</defs>
</svg>
