<svg width="666" height="563" viewBox="0 0 666 563" fill="none" xmlns="http://www.w3.org/2000/svg">
<g clip-path="url(#clip0_301_778)">
<path d="M549.145 204.181C560.269 103.989 488.129 13.7426 388.015 2.61015C287.902 -8.52231 197.726 63.6748 186.602 163.867C175.478 264.059 247.619 354.305 347.732 365.438C447.846 376.57 538.022 304.373 549.145 204.181Z" fill="#D1D1D1"/>
<path d="M591.078 395.395C631.975 395.395 665.128 362.216 665.128 321.287C665.128 280.358 631.975 247.178 591.078 247.178C550.181 247.178 517.027 280.358 517.027 321.287C517.027 362.216 550.181 395.395 591.078 395.395Z" fill="#E7EDF4"/>
<path d="M232.041 378.641L177.673 284.242L88.2832 340.194L143.678 436.628C144.913 439.063 146.43 441.345 148.199 443.424C163.479 461.423 193.999 460.593 216.327 441.567C237.055 423.924 243.452 396.837 232.041 378.641Z" fill="#818181"/>
<path d="M198.557 405.964C203.46 401.788 207.771 396.962 211.37 391.62C211.137 391.146 210.88 390.685 210.6 390.237L189.516 353.647C186.225 358.174 182.408 362.293 178.145 365.916C153.922 386.523 120.894 387.451 104.232 368.01L130.331 413.451C148.059 427.044 176.842 424.456 198.557 405.964Z" fill="#DDDDDF"/>
<path style="mix-blend-mode:multiply" d="M180.2 453.975C178.178 451.602 176.448 448.995 175.047 446.21L111.637 335.867L182.016 291.809L177.673 284.242L88.2832 340.194L143.678 436.628C144.913 439.063 146.43 441.345 148.199 443.424C156.372 453.066 168.927 457.254 182.233 456.188C181.621 455.476 180.851 454.745 180.2 453.975Z" fill="url(#paint0_linear_301_778)"/>
<path d="M161.699 346.755C184.037 327.735 189.747 297.73 174.451 279.738C159.155 261.745 128.647 262.577 106.309 281.597C83.9702 300.617 78.2609 330.621 93.5565 348.614C108.852 366.607 139.361 365.774 161.699 346.755Z" fill="#818181"/>
<path style="mix-blend-mode:multiply" d="M159.102 343.7C179.339 326.469 184.508 299.282 170.646 282.976C156.785 266.671 129.142 267.421 108.905 284.651C88.6674 301.882 83.4986 329.069 97.3601 345.375C111.222 361.68 138.864 360.93 159.102 343.7Z" fill="url(#paint1_linear_301_778)"/>
<mask id="mask0_301_778" style="mask-type:luminance" maskUnits="userSpaceOnUse" x="89" y="271" width="90" height="87">
<path d="M159.096 343.699C179.333 326.468 184.502 299.282 170.64 282.976C156.779 266.67 129.136 267.42 108.899 284.651C88.6615 301.882 83.4928 329.068 97.3542 345.374C111.216 361.68 138.858 360.93 159.096 343.699Z" fill="white"/>
</mask>
<g mask="url(#mask0_301_778)">
<path d="M191.485 335.175V326.383H189.511C187.835 323.038 185.255 320.23 182.063 318.281C178.872 316.332 175.197 315.319 171.458 315.359C167.719 315.398 164.067 316.487 160.916 318.503C157.766 320.518 155.245 323.379 153.64 326.758H151.666V335.55C152.179 340.507 154.522 345.094 158.235 348.414C161.949 351.734 166.767 353.548 171.746 353.501C176.725 353.454 181.508 351.549 185.159 348.16C188.809 344.771 191.065 340.141 191.485 335.175Z" fill="#D1D1D1"/>
<path d="M185.432 340.731C193.242 332.915 193.242 320.243 185.432 312.427C177.623 304.611 164.96 304.611 157.151 312.427C149.341 320.243 149.341 332.915 157.151 340.731C164.96 348.546 177.622 348.546 185.432 340.731Z" fill="#E7EDF4"/>
<path d="M151.787 322.294C151.089 325.256 151.089 328.341 151.787 331.303L190.717 330.888C191.045 329.409 191.204 327.898 191.191 326.384C191.163 324.866 190.972 323.355 190.618 321.879L151.787 322.294Z" fill="white"/>
<path d="M158.574 294.537L150.499 291.04L149.69 293.015C145.953 293.179 142.338 294.392 139.257 296.515C136.176 298.638 133.754 301.585 132.267 305.02C130.781 308.455 130.29 312.239 130.85 315.94C131.41 319.641 133 323.11 135.437 325.95L134.627 327.926L142.682 331.423C147.495 333.237 152.822 333.124 157.556 331.11C162.289 329.095 166.064 325.332 168.097 320.604C170.131 315.875 170.265 310.545 168.473 305.72C166.681 300.895 163.1 296.946 158.475 294.695L158.574 294.537Z" fill="#D1D1D1"/>
<path d="M160.908 317.356C159.335 320.982 156.724 324.06 153.404 326.201C150.084 328.342 146.204 329.45 142.254 329.385C138.305 329.321 134.464 328.086 131.215 325.837C127.967 323.588 125.458 320.425 124.005 316.75C122.552 313.074 122.22 309.05 123.051 305.185C123.883 301.321 125.84 297.79 128.676 295.039C131.512 292.287 135.099 290.439 138.984 289.727C142.869 289.015 146.878 289.472 150.504 291.039C152.916 292.082 155.098 293.59 156.926 295.477C158.754 297.364 160.193 299.594 161.159 302.038C162.126 304.483 162.601 307.094 162.558 309.722C162.515 312.35 161.954 314.944 160.908 317.356Z" fill="#E7EDF4"/>
<path d="M130.699 325.496C131.923 326.403 133.248 327.165 134.648 327.768C136.043 328.361 137.5 328.798 138.991 329.072L154.448 293.311C151.978 291.477 149.11 290.252 146.078 289.735L130.699 325.496Z" fill="white"/>
<path d="M142.132 351.14L140.158 342.586L138.184 343.06C135.814 340.165 132.679 337.996 129.137 336.799C125.594 335.603 121.787 335.427 118.149 336.292C114.512 337.158 111.191 339.029 108.565 341.693C105.939 344.357 104.115 347.706 103.3 351.358L101.326 351.832L103.3 360.387C104.789 365.252 108.073 369.367 112.485 371.895C116.897 374.423 122.105 375.175 127.051 373.997C131.997 372.819 136.309 369.801 139.11 365.555C141.912 361.309 142.992 356.155 142.132 351.14Z" fill="#D1D1D1"/>
<path d="M124.436 366.854C135.286 364.792 142.413 354.318 140.353 343.458C138.293 332.599 127.826 325.467 116.975 327.529C106.124 329.59 98.9982 340.065 101.058 350.924C103.118 361.784 113.585 368.916 124.436 366.854Z" fill="#E7EDF4"/>
<path d="M100.674 347.328C100.67 348.844 100.842 350.356 101.187 351.832C101.549 353.308 102.072 354.739 102.747 356.1L140.611 347.09C140.634 345.576 140.482 344.065 140.157 342.586C139.795 341.11 139.272 339.679 138.597 338.318L100.674 347.328Z" fill="white"/>
</g>
<path d="M177.772 252.65L175.797 244.096L173.823 244.57C171.455 241.654 168.312 239.465 164.756 238.256C161.2 237.048 157.376 236.867 153.723 237.736C150.069 238.604 146.735 240.487 144.102 243.167C141.47 245.848 139.646 249.217 138.841 252.888L136.867 253.362L138.841 261.917C140.067 267.078 143.29 271.541 147.803 274.323C150.038 275.701 152.522 276.625 155.113 277.042C157.705 277.459 160.353 277.361 162.906 276.754C165.46 276.147 167.869 275.042 169.996 273.503C172.123 271.965 173.926 270.021 175.303 267.785C176.68 265.549 177.603 263.063 178.02 260.469C178.437 257.876 178.339 255.226 177.732 252.67L177.772 252.65Z" fill="#D1D1D1"/>
<path d="M160.909 268.18C157.065 269.1 153.035 268.858 149.329 267.486C145.623 266.113 142.406 263.672 140.087 260.469C137.767 257.267 136.449 253.449 136.298 249.497C136.147 245.545 137.171 241.636 139.24 238.267C141.309 234.897 144.33 232.217 147.921 230.566C151.512 228.914 155.511 228.366 159.414 228.99C163.316 229.614 166.946 231.382 169.844 234.071C172.742 236.76 174.778 240.249 175.695 244.096C176.924 249.252 176.056 254.685 173.284 259.201C170.511 263.717 166.06 266.947 160.909 268.18Z" fill="#E7EDF4"/>
<path d="M136.314 248.936C136.328 250.453 136.507 251.963 136.847 253.441C137.198 254.914 137.721 256.34 138.407 257.689L176.271 248.699C176.276 247.183 176.104 245.671 175.758 244.195C175.39 242.721 174.867 241.291 174.198 239.927L136.314 248.936Z" fill="white"/>
<path d="M129.422 183.463L127.448 174.908L125.474 175.382C123.102 172.466 119.956 170.279 116.398 169.072C112.84 167.865 109.013 167.688 105.359 168.562C101.705 169.435 98.3708 171.322 95.7407 174.007C93.1106 176.692 91.2912 180.066 90.4917 183.739L88.5176 184.214L90.4917 192.768C91.7169 197.93 94.9406 202.393 99.4536 205.175C103.967 207.958 109.399 208.832 114.557 207.606C119.714 206.38 124.173 203.154 126.954 198.637C129.734 194.12 130.608 188.683 129.383 183.522L129.422 183.463Z" fill="#D1D1D1"/>
<path d="M112.523 199.011C108.674 199.924 104.642 199.674 100.936 198.293C97.2301 196.912 94.016 194.463 91.7005 191.255C89.385 188.046 88.072 184.223 87.9274 180.268C87.7829 176.313 88.8132 172.404 90.8883 169.035C92.9634 165.666 95.99 162.988 99.5855 161.34C103.181 159.692 107.184 159.148 111.088 159.777C114.993 160.405 118.623 162.178 121.521 164.871C124.419 167.565 126.454 171.057 127.368 174.908C127.976 177.466 128.074 180.119 127.657 182.715C127.239 185.311 126.315 187.8 124.936 190.038C123.557 192.276 121.752 194.221 119.622 195.761C117.492 197.3 115.079 198.405 112.523 199.011Z" fill="#E7EDF4"/>
<path d="M87.9648 179.649C87.9765 181.165 88.1553 182.676 88.4979 184.153C88.8446 185.633 89.3682 187.066 90.0574 188.421L127.922 179.412C127.924 177.895 127.752 176.384 127.408 174.907C127.041 173.44 126.518 172.016 125.849 170.659L87.9648 179.649Z" fill="white"/>
<path d="M96.7298 231.391L88.4581 222.738L86.1681 225.227C65.8343 217.601 39.5978 227.459 23.6664 250.18C11.0121 268.218 8.16934 289.694 14.5853 305.934L12.2756 308.523L24.5548 320.772C25.7991 321.925 27.1181 322.994 28.5031 323.973C49.4489 338.692 81.213 329.524 99.5726 303.485C117.103 278.393 116.076 251.464 96.7298 231.391Z" fill="#D1D1D1"/>
<path d="M47.2211 330.829C45.5889 330.685 43.967 330.441 42.3647 330.098L12.0417 296.788L5.92188 289.991L8.19215 287.917L11.489 291.533L47.2211 330.829Z" fill="#E7EDF4"/>
<path d="M59.4997 330.335C58.2757 330.533 57.032 330.711 55.808 330.829L18.6348 289.991L20.8853 287.917L59.4997 330.335Z" fill="#E7EDF4"/>
<path d="M69.7068 327.471C68.6604 327.885 67.6141 328.241 66.5481 328.577L31.4082 289.991L33.6785 287.917L69.7068 327.471Z" fill="#E7EDF4"/>
<path d="M78.5319 323.144C77.6238 323.677 76.6959 324.211 75.7681 324.685L44.1816 289.991L46.4717 287.917L78.5319 323.144Z" fill="#E7EDF4"/>
<path d="M86.3246 317.691C85.5152 318.343 84.7255 318.975 83.8964 319.568L56.9492 289.932L59.2195 287.917L86.3246 317.691Z" fill="#E7EDF4"/>
<path d="M93.2387 311.23C92.5478 312.001 91.8173 312.712 91.0869 313.423L69.7266 289.991L72.0166 287.917L93.2387 311.23Z" fill="#E7EDF4"/>
<path d="M99.3945 303.644C98.7825 304.493 98.1705 305.343 97.4203 306.153L71.3418 277.406L73.5923 275.431L99.3945 303.644Z" fill="#E7EDF4"/>
<path d="M104.625 295.03C104.131 295.979 103.598 297.006 103.046 297.836L71.2617 262.945L73.5912 260.792L104.625 295.03Z" fill="#E7EDF4"/>
<path d="M108.969 285.212C108.594 286.299 108.199 287.386 107.745 288.452L71.3418 248.484L73.5923 246.508L108.969 285.212Z" fill="#E7EDF4"/>
<path d="M111.634 273.673C111.476 274.957 111.279 276.261 111.022 277.624L71.3418 234.159L73.5923 232.183L111.634 273.673Z" fill="#E7EDF4"/>
<path d="M111.875 264.01L74.3659 222.837L71.3652 219.537L73.6158 217.463L78.9657 223.39L111.204 258.814C111.54 260.53 111.764 262.266 111.875 264.01Z" fill="#E7EDF4"/>
<path d="M88.2047 292.237C106.47 266.207 104.309 233.18 83.3771 218.468C62.445 203.756 30.669 212.931 12.4032 238.96C-5.86259 264.989 -3.70118 298.017 17.2308 312.729C38.1628 327.44 69.9389 318.266 88.2047 292.237Z" fill="#E7EDF4"/>
<path d="M59.5976 218.233C66.642 218.154 73.5382 220.259 79.3391 224.259C97.5013 237.042 99.2583 265.966 83.2874 288.766C72.785 303.722 56.6167 313.008 41.0603 313.008C34.014 313.08 27.118 310.968 21.3188 306.962C3.15663 294.199 1.39963 265.255 17.3705 242.455C27.8533 227.519 44.0413 218.233 59.5976 218.233ZM59.5976 216.258C43.9229 216.258 27.0241 225.267 15.7517 241.329C-0.910122 265.038 1.06403 295.167 20.1541 308.503C26.2735 312.76 33.5688 314.998 41.0209 314.904C56.6956 314.904 73.5944 305.875 84.8668 289.833C101.509 266.124 99.5545 235.975 80.4644 222.56C74.3363 218.323 67.0455 216.094 59.5976 216.179V216.258Z" fill="white"/>
<path d="M515.981 515.202L240.271 468.121C236.798 467.529 233.676 465.648 231.528 462.854C229.38 460.06 228.364 456.557 228.682 453.046L263.664 59.6251C263.977 56.1143 265.598 52.8498 268.206 50.4812C270.815 48.1126 274.218 46.8135 277.74 46.8423L557.418 49.2329C559.352 49.2525 561.26 49.6722 563.024 50.4658C564.787 51.2593 566.368 52.4094 567.666 53.8438C568.963 55.2782 569.951 56.9659 570.565 58.8006C571.18 60.6354 571.409 62.5776 571.237 64.505L532.287 502.617C532.116 504.545 531.547 506.417 530.617 508.114C529.688 509.812 528.417 511.298 526.886 512.48C525.354 513.662 523.594 514.515 521.718 514.983C519.841 515.451 517.888 515.526 515.981 515.202Z" fill="#DDDDDF"/>
<path d="M514.619 501.255L243.824 455.003L277.108 80.8647L551.812 83.2158L514.619 501.255Z" fill="#E7EDF4"/>
<path style="mix-blend-mode:multiply" d="M514.619 501.255L243.824 455.003L277.108 80.8647L551.812 83.2158L514.619 501.255Z" fill="url(#paint2_linear_301_778)"/>
<path d="M551.814 83.2158L277.111 80.8647C277.111 80.8647 240.668 388.857 217.354 408.614L491.761 468.537L551.814 83.2158Z" fill="white"/>
<path d="M217.352 408.614C217.352 408.614 187.207 394.014 189.892 352.603L434.687 410.116C434.687 410.116 485.284 510.165 495.708 443.288L491.759 468.537L217.352 408.614Z" fill="#DDE3E9"/>
<path d="M369.275 73.4001C373.001 72.6311 375.399 68.9842 374.631 65.2546C373.863 61.5249 370.219 59.1248 366.492 59.8938C362.765 60.6627 360.367 64.3096 361.135 68.0393C361.904 71.7689 365.548 74.1691 369.275 73.4001Z" fill="#818181"/>
<path d="M467.748 73.2007C471.461 72.3687 473.797 68.6818 472.966 64.9656C472.134 61.2495 468.45 58.9115 464.737 59.7435C461.024 60.5755 458.688 64.2625 459.519 67.9786C460.35 71.6947 464.034 74.0328 467.748 73.2007Z" fill="#818181"/>
<path d="M367.88 66.6381L365.688 91.1565C365.606 92.082 365.718 93.0145 366.016 93.8944C366.314 94.7743 366.792 95.5822 367.42 96.2665C368.048 96.9508 368.812 97.4965 369.663 97.8685C370.514 98.2405 371.433 98.4308 372.361 98.4271H405.093L405.191 97.2615C405.357 95.5265 406.159 93.9144 407.442 92.736C408.725 91.5576 410.399 90.8964 412.14 90.8799H415.259C416.233 90.8712 417.198 91.0657 418.093 91.451C418.987 91.8363 419.792 92.404 420.455 93.1178C421.118 93.8316 421.625 94.676 421.944 95.5969C422.263 96.5179 422.387 97.4952 422.307 98.4666H457.309C458.999 98.4549 460.621 97.8019 461.849 96.6394C463.076 95.4769 463.817 93.8917 463.922 92.2037L466.212 66.5195" stroke="#818181" stroke-width="3.82601" stroke-linejoin="round"/>
<path d="M313.609 142.467L487.611 147.05" stroke="#E7EDF4" stroke-width="3.82601" stroke-miterlimit="10" stroke-linecap="round"/>
<path d="M311.281 168.604L485.283 173.188" stroke="#E7EDF4" stroke-width="3.82601" stroke-miterlimit="10" stroke-linecap="round"/>
<path d="M306.998 194.565L481 199.149" stroke="#E7EDF4" stroke-width="3.82601" stroke-miterlimit="10" stroke-linecap="round"/>
<path d="M302.691 220.526L476.693 225.11" stroke="#E7EDF4" stroke-width="3.82601" stroke-miterlimit="10" stroke-linecap="round"/>
<path d="M298.408 246.488L472.41 251.071" stroke="#E7EDF4" stroke-width="3.82601" stroke-miterlimit="10" stroke-linecap="round"/>
<path d="M382.606 311.587C382.128 317.01 380.053 322.17 376.644 326.412C373.236 330.655 368.646 333.791 363.456 335.423C358.267 337.055 352.71 337.11 347.489 335.581C342.268 334.052 337.618 331.007 334.126 326.833C330.634 322.658 328.458 317.541 327.873 312.128C327.287 306.716 328.319 301.251 330.838 296.425C333.356 291.6 337.248 287.63 342.021 285.019C346.795 282.407 352.235 281.271 357.653 281.754C364.914 282.401 371.621 285.907 376.3 291.502C380.979 297.096 383.247 304.32 382.606 311.587Z" fill="#E7EDF4"/>
<path d="M304.413 326.445C300.591 321.724 297.788 316.262 296.181 310.403C294.574 304.544 294.197 298.415 295.075 292.404C295.509 289.499 296.674 286.16 299.517 285.37C303.662 284.165 306.663 289.321 308.005 293.391C309.723 298.706 311.46 304.021 313.178 309.335C313.392 310.38 313.964 311.317 314.797 311.983C319.002 314.63 320.976 302.519 325.615 304.337C328.142 305.325 327.352 309.217 328.853 311.469C330.353 313.721 334.459 313.583 337.124 312.101C339.789 310.62 342.218 308.387 345.238 308.15C348.258 307.913 351.022 309.434 353.944 309.138C359.018 308.585 362.986 302.48 367.901 303.863" stroke="#D1D1D1" stroke-width="3.82601" stroke-miterlimit="10" stroke-linecap="round"/>
<path d="M353.233 476.143L310.512 459.685C308.668 458.975 306.701 458.635 304.726 458.686C302.75 458.736 300.804 459.176 298.998 459.979C297.192 460.783 295.562 461.935 294.201 463.369C292.84 464.803 291.775 466.492 291.067 468.339C289.633 472.069 289.738 476.217 291.36 479.871C292.981 483.524 295.986 486.383 299.714 487.819L342.415 504.257C346.143 505.687 350.285 505.578 353.934 503.956C357.583 502.334 360.44 499.33 361.88 495.603C362.589 493.757 362.929 491.789 362.878 489.812C362.828 487.835 362.388 485.887 361.585 484.08C360.782 482.273 359.631 480.641 358.198 479.279C356.765 477.918 355.078 476.852 353.233 476.143Z" fill="white"/>
<path d="M353.235 476.142L331.875 467.903L321.057 496.037L342.417 504.256C346.142 505.692 350.285 505.588 353.933 503.967C357.582 502.346 360.438 499.341 361.872 495.613C363.307 491.884 363.203 487.739 361.583 484.087C359.963 480.436 356.961 477.578 353.235 476.142Z" fill="#818181"/>
<path style="mix-blend-mode:multiply" d="M352.816 495.901L297.54 474.642C294.775 473.589 292.385 471.74 290.67 469.328C289.533 472.978 289.826 476.925 291.491 480.367C293.155 483.808 296.066 486.487 299.632 487.86L342.333 504.298C345.898 505.667 349.85 505.629 353.387 504.191C356.925 502.753 359.784 500.022 361.384 496.553C358.526 497.176 355.548 496.949 352.816 495.901Z" fill="url(#paint3_linear_301_778)"/>
<path d="M416.975 423.412L372.952 435.879C371.05 436.416 369.272 437.324 367.721 438.549C366.169 439.775 364.875 441.294 363.91 443.021C362.946 444.747 362.331 446.647 362.101 448.612C361.87 450.576 362.029 452.567 362.568 454.47C363.105 456.373 364.012 458.152 365.236 459.705C366.461 461.257 367.979 462.553 369.704 463.518C371.429 464.484 373.328 465.099 375.291 465.33C377.254 465.56 379.243 465.401 381.144 464.862L425.168 452.415C429.01 451.329 432.264 448.76 434.215 445.274C436.165 441.788 436.654 437.67 435.572 433.824C435.034 431.918 434.127 430.136 432.901 428.581C431.676 427.027 430.156 425.729 428.429 424.762C426.702 423.795 424.802 423.178 422.836 422.946C420.871 422.715 418.879 422.873 416.975 423.412Z" fill="white"/>
<path d="M416.979 423.41L394.967 429.633L403.16 458.636L425.171 452.433C427.118 451.934 428.945 451.05 430.545 449.833C432.145 448.617 433.486 447.092 434.489 445.349C435.491 443.606 436.135 441.68 436.382 439.685C436.629 437.689 436.475 435.664 435.928 433.729C435.382 431.793 434.454 429.987 433.199 428.417C431.944 426.846 430.388 425.542 428.622 424.582C426.856 423.623 424.917 423.026 422.917 422.828C420.917 422.63 418.898 422.835 416.979 423.429V423.41Z" fill="#818181"/>
<path style="mix-blend-mode:multiply" d="M428.386 439.454L371.471 455.556C368.63 456.357 365.615 456.302 362.805 455.398C364.076 459.004 366.671 461.989 370.064 463.747C373.456 465.505 377.39 465.904 381.066 464.862L425.089 452.415C428.766 451.371 431.908 448.968 433.88 445.692C435.852 442.416 436.506 438.513 435.71 434.772C433.782 437.02 431.235 438.649 428.386 439.454Z" fill="url(#paint4_linear_301_778)"/>
<path d="M189.853 81.6539H174.691V66.4805H157.793V81.6539H142.611V98.5856H157.793V113.759H174.691V98.5856H189.853V81.6539Z" fill="#DDDDDF"/>
<path d="M232.908 142.644H222.603V132.331H211.133V142.644H200.828V154.123H211.133V164.436H222.603V154.123H232.908V142.644Z" fill="#818181"/>
<path d="M636.898 115.773H626.593V105.46H615.123V115.773H604.838V127.252H615.123V137.565H626.593V127.252H636.898V115.773Z" fill="#DDDDDF"/>
<path d="M577.874 422.422L649.99 212.425C650.603 210.172 650.302 207.768 649.152 205.736C648.002 203.705 646.096 202.21 643.85 201.578L522.637 159.891C520.477 159.008 518.056 159.018 515.902 159.918C513.749 160.817 512.04 162.534 511.148 164.692L439.032 374.669C438.414 376.922 438.712 379.329 439.863 381.362C441.014 383.395 442.923 384.889 445.172 385.516L566.385 427.203C568.542 428.087 570.962 428.08 573.115 427.184C575.268 426.288 576.979 424.576 577.874 422.422Z" fill="#818181"/>
<g style="mix-blend-mode:multiply" opacity="0.6">
<path d="M557.892 198.496L530.254 189.092C529.058 188.685 527.793 188.518 526.532 188.601C525.271 188.683 524.039 189.014 522.906 189.574C521.773 190.133 520.761 190.911 519.929 191.862C519.096 192.814 518.459 193.92 518.054 195.118C517.229 197.52 517.389 200.152 518.499 202.437C519.609 204.722 521.579 206.473 523.977 207.308L551.615 216.712C554.018 217.544 556.653 217.387 558.941 216.275C561.228 215.164 562.981 213.189 563.815 210.785C564.233 209.589 564.412 208.322 564.34 207.057C564.269 205.792 563.949 204.553 563.399 203.412C562.849 202.271 562.08 201.249 561.135 200.405C560.19 199.562 559.088 198.913 557.892 198.496Z" fill="#818181"/>
</g>
<g style="mix-blend-mode:multiply" opacity="0.6">
<path d="M619.882 219.834L592.244 210.43C589.841 209.598 587.206 209.755 584.918 210.866C582.63 211.978 580.877 213.953 580.044 216.357C579.223 218.762 579.385 221.395 580.495 223.681C581.604 225.968 583.57 227.724 585.966 228.567L613.604 237.971C616.008 238.797 618.64 238.638 620.927 237.527C623.213 236.416 624.967 234.445 625.805 232.044C626.636 229.639 626.479 227.002 625.368 224.712C624.258 222.423 622.285 220.668 619.882 219.834Z" fill="#818181"/>
</g>
<g style="mix-blend-mode:multiply" opacity="0.6">
<path d="M546.639 231.156L519 221.751C516.6 220.926 513.97 221.086 511.687 222.197C509.404 223.308 507.654 225.279 506.82 227.678C505.989 230.084 506.146 232.721 507.256 235.01C508.367 237.299 510.34 239.054 512.742 239.888L540.381 249.293C542.784 250.119 545.417 249.959 547.703 248.849C549.989 247.738 551.743 245.767 552.581 243.365C553.4 240.957 553.235 238.323 552.122 236.036C551.009 233.749 549.038 231.995 546.639 231.156Z" fill="#818181"/>
</g>
<g style="mix-blend-mode:multiply" opacity="0.6">
<path d="M608.67 252.553L581.032 243.149C578.618 242.333 575.979 242.51 573.695 243.639C571.412 244.769 569.669 246.76 568.851 249.175C568.026 251.577 568.186 254.209 569.296 256.494C570.406 258.779 572.376 260.53 574.773 261.365L602.412 270.769C604.815 271.601 607.45 271.444 609.737 270.332C612.025 269.221 613.778 267.246 614.612 264.842C615.03 263.645 615.207 262.377 615.135 261.111C615.062 259.845 614.74 258.605 614.188 257.464C613.636 256.322 612.865 255.301 611.918 254.458C610.971 253.616 609.867 252.968 608.67 252.553Z" fill="#818181"/>
</g>
<g style="mix-blend-mode:multiply" opacity="0.6">
<path d="M535.407 263.971L507.769 254.567C505.366 253.735 502.731 253.892 500.444 255.004C498.156 256.115 496.403 258.09 495.569 260.494C494.749 262.9 494.911 265.532 496.02 267.819C497.129 270.105 499.096 271.861 501.492 272.704L529.13 282.108C531.543 282.924 534.182 282.747 536.466 281.618C538.75 280.488 540.492 278.497 541.31 276.082C542.117 273.692 541.95 271.08 540.845 268.813C539.74 266.546 537.786 264.806 535.407 263.971Z" fill="#818181"/>
</g>
<g style="mix-blend-mode:multiply" opacity="0.6">
<path d="M597.413 285.29L569.775 275.886C567.371 275.065 564.741 275.227 562.456 276.337C560.171 277.447 558.417 279.415 557.574 281.813C556.759 284.231 556.934 286.875 558.063 289.163C559.192 291.452 561.181 293.2 563.595 294.023L591.234 303.427C593.637 304.254 596.27 304.094 598.556 302.983C600.842 301.873 602.596 299.901 603.434 297.5C604.25 295.082 604.074 292.438 602.945 290.15C601.816 287.861 599.827 286.113 597.413 285.29Z" fill="#818181"/>
</g>
<g style="mix-blend-mode:multiply" opacity="0.6">
<path d="M523.82 297.738L496.181 288.334C493.778 287.502 491.143 287.659 488.856 288.77C486.568 289.882 484.815 291.856 483.981 294.261C483.161 296.666 483.323 299.299 484.432 301.585C485.541 303.872 487.508 305.628 489.904 306.47L517.542 315.875C519.943 316.695 522.57 316.532 524.852 315.422C527.134 314.312 528.884 312.344 529.722 309.948C530.554 307.545 530.4 304.91 529.294 302.621C528.187 300.332 526.218 298.576 523.82 297.738Z" fill="#818181"/>
</g>
<g style="mix-blend-mode:multiply" opacity="0.6">
<path d="M585.827 319.054L558.189 309.649C555.785 308.823 553.153 308.983 550.866 310.093C548.58 311.204 546.826 313.175 545.988 315.577C545.173 317.995 545.349 320.638 546.477 322.927C547.606 325.216 549.595 326.963 552.01 327.786L579.648 337.191C582.048 338.017 584.678 337.856 586.961 336.745C589.244 335.635 590.994 333.663 591.828 331.264C592.238 330.068 592.408 328.803 592.328 327.541C592.247 326.279 591.919 325.046 591.362 323.911C590.804 322.777 590.028 321.764 589.078 320.93C588.128 320.097 587.023 319.459 585.827 319.054Z" fill="#818181"/>
</g>
<g style="mix-blend-mode:multiply" opacity="0.6">
<path d="M512.33 331.205L484.692 321.801C482.278 320.985 479.639 321.161 477.356 322.291C475.072 323.421 473.329 325.412 472.511 327.826C471.686 330.229 471.846 332.861 472.956 335.146C474.066 337.431 476.036 339.182 478.434 340.017L506.072 349.421C508.475 350.253 511.11 350.096 513.398 348.984C515.685 347.873 517.438 345.898 518.272 343.494C518.69 342.297 518.867 341.029 518.795 339.762C518.722 338.496 518.4 337.257 517.848 336.116C517.297 334.974 516.525 333.953 515.578 333.11C514.631 332.267 513.527 331.62 512.33 331.205Z" fill="#818181"/>
</g>
<g style="mix-blend-mode:multiply" opacity="0.6">
<path d="M574.335 352.543L546.697 343.139C544.294 342.307 541.659 342.464 539.371 343.575C537.084 344.687 535.33 346.661 534.497 349.066C533.677 351.471 533.839 354.104 534.948 356.39C536.057 358.677 538.023 360.433 540.419 361.276L568.057 370.68C570.461 371.506 573.093 371.347 575.38 370.236C577.666 369.125 579.42 367.154 580.258 364.753C581.089 362.348 580.932 359.711 579.821 357.421C578.711 355.132 576.738 353.377 574.335 352.543Z" fill="#818181"/>
</g>
<g style="mix-blend-mode:multiply" opacity="0.6">
<path d="M501.076 363.942L473.438 354.537C471.037 353.712 468.407 353.872 466.124 354.983C463.841 356.094 462.091 358.065 461.257 360.465C460.426 362.87 460.583 365.507 461.694 367.796C462.804 370.086 464.777 371.84 467.18 372.674L494.818 382.079C497.222 382.9 499.852 382.738 502.137 381.628C504.422 380.518 506.176 378.55 507.018 376.152C507.843 373.744 507.681 371.107 506.567 368.818C505.453 366.53 503.479 364.776 501.076 363.942Z" fill="#818181"/>
</g>
<g style="mix-blend-mode:multiply" opacity="0.6">
<path d="M563.083 385.261L535.445 375.856C533.044 375.036 530.416 375.199 528.135 376.309C525.853 377.419 524.103 379.387 523.265 381.783C522.853 382.973 522.68 384.232 522.755 385.489C522.83 386.745 523.152 387.974 523.702 389.106C524.252 390.239 525.02 391.251 525.961 392.086C526.902 392.921 527.998 393.563 529.187 393.974L556.825 403.378C559.228 404.21 561.863 404.053 564.151 402.941C566.439 401.83 568.192 399.855 569.025 397.451C569.839 395.045 569.671 392.416 568.558 390.133C567.446 387.851 565.478 386.1 563.083 385.261Z" fill="#818181"/>
</g>
<path d="M559.727 193.163L532.089 183.758C529.686 182.927 527.051 183.084 524.763 184.195C522.476 185.306 520.722 187.281 519.889 189.685C519.063 192.091 519.223 194.725 520.332 197.013C521.442 199.302 523.412 201.057 525.811 201.895L553.449 211.3C555.853 212.121 558.483 211.958 560.768 210.848C563.053 209.738 564.807 207.77 565.65 205.373C566.475 202.967 566.316 200.332 565.206 198.044C564.096 195.756 562.126 194.001 559.727 193.163Z" fill="white"/>
<path style="mix-blend-mode:multiply" d="M559.966 205.748L524.194 193.617C522.411 193.008 520.846 191.889 519.693 190.397C519.062 192.754 519.349 195.263 520.496 197.416C521.643 199.569 523.565 201.206 525.872 201.994L553.511 211.399C555.821 212.181 558.343 212.055 560.564 211.046C562.785 210.037 564.541 208.221 565.474 205.965C563.657 206.442 561.74 206.366 559.966 205.748Z" fill="url(#paint5_linear_301_778)"/>
<path d="M621.734 214.48L594.096 205.076C591.692 204.249 589.059 204.409 586.773 205.52C584.487 206.63 582.733 208.602 581.895 211.003C581.075 213.408 581.237 216.041 582.346 218.327C583.455 220.614 585.422 222.37 587.818 223.213L615.456 232.617C617.859 233.443 620.492 233.284 622.778 232.173C625.064 231.062 626.818 229.091 627.656 226.69C628.482 224.285 628.322 221.65 627.212 219.362C626.103 217.074 624.133 215.319 621.734 214.48Z" fill="white"/>
<path style="mix-blend-mode:multiply" d="M621.971 227.085L586.318 214.915C584.529 214.306 582.957 213.187 581.797 211.694C581.165 214.051 581.452 216.56 582.599 218.713C583.747 220.867 585.668 222.503 587.976 223.292L615.614 232.696C617.925 233.483 620.448 233.36 622.671 232.35C624.893 231.341 626.648 229.521 627.577 227.263C625.734 227.772 623.779 227.71 621.971 227.085Z" fill="url(#paint6_linear_301_778)"/>
<path d="M548.298 226.414L520.66 216.99C518.259 216.17 515.631 216.333 513.35 217.443C511.068 218.553 509.318 220.521 508.479 222.917C508.068 224.107 507.895 225.366 507.97 226.622C508.045 227.879 508.367 229.108 508.917 230.24C509.467 231.372 510.235 232.385 511.176 233.22C512.117 234.055 513.213 234.696 514.402 235.107L542.04 244.531C544.444 245.352 547.074 245.19 549.359 244.08C551.644 242.97 553.398 241.002 554.24 238.604C555.059 236.199 554.894 233.567 553.78 231.283C552.667 228.999 550.696 227.249 548.298 226.414Z" fill="white"/>
<path style="mix-blend-mode:multiply" d="M548.558 239.058L512.786 226.907C510.995 226.303 509.427 225.174 508.285 223.667C507.654 226.024 507.94 228.533 509.088 230.686C510.235 232.839 512.157 234.476 514.464 235.264L542.102 244.688C544.413 245.471 546.935 245.345 549.156 244.336C551.377 243.327 553.132 241.511 554.066 239.255C552.25 239.728 550.335 239.659 548.558 239.058Z" fill="url(#paint7_linear_301_778)"/>
<path d="M610.329 247.732L582.69 238.328C580.29 237.502 577.66 237.662 575.377 238.773C573.094 239.884 571.344 241.855 570.51 244.255C569.684 246.66 569.844 249.295 570.954 251.583C572.063 253.871 574.033 255.626 576.432 256.465L604.07 265.869C606.474 266.69 609.104 266.528 611.389 265.418C613.674 264.308 615.428 262.34 616.271 259.942C617.09 257.534 616.925 254.899 615.812 252.612C614.699 250.325 612.728 248.571 610.329 247.732Z" fill="white"/>
<path style="mix-blend-mode:multiply" d="M610.564 260.318L574.792 248.168C573.009 247.559 571.444 246.439 570.291 244.947C569.659 247.304 569.946 249.813 571.094 251.966C572.241 254.12 574.163 255.756 576.47 256.545L604.108 265.949C606.419 266.731 608.94 266.605 611.162 265.596C613.383 264.588 615.138 262.771 616.072 260.516C614.257 260.999 612.339 260.93 610.564 260.318Z" fill="url(#paint8_linear_301_778)"/>
<path d="M536.967 259.645L509.329 250.24C506.913 249.424 504.271 249.6 501.984 250.729C499.697 251.859 497.951 253.85 497.129 256.266C496.309 258.669 496.472 261.299 497.581 263.582C498.691 265.865 500.657 267.617 503.051 268.456L530.689 277.861C531.878 278.272 533.136 278.445 534.392 278.37C535.647 278.295 536.876 277.973 538.007 277.423C539.138 276.872 540.15 276.104 540.984 275.162C541.819 274.22 542.459 273.123 542.87 271.933C543.294 270.739 543.478 269.472 543.41 268.207C543.343 266.941 543.025 265.701 542.477 264.558C541.928 263.416 541.158 262.394 540.213 261.55C539.267 260.707 538.164 260.059 536.967 259.645Z" fill="white"/>
<path style="mix-blend-mode:multiply" d="M537.124 272.251L501.431 260.08C499.645 259.477 498.079 258.356 496.93 256.86C496.289 259.217 496.571 261.73 497.72 263.886C498.868 266.041 500.796 267.677 503.109 268.457L530.747 277.862C533.056 278.645 535.575 278.522 537.796 277.517C540.017 276.512 541.774 274.7 542.711 272.448C540.869 272.933 538.926 272.864 537.124 272.251Z" fill="url(#paint9_linear_301_778)"/>
<path d="M598.896 280.982L571.258 271.578C570.07 271.166 568.812 270.993 567.556 271.068C566.301 271.144 565.072 271.465 563.941 272.016C562.81 272.566 561.798 273.334 560.964 274.276C560.129 275.218 559.488 276.315 559.078 277.505C558.247 279.91 558.403 282.547 559.514 284.837C560.625 287.126 562.598 288.881 565 289.715L592.638 299.119C595.055 299.935 597.696 299.76 599.983 298.63C602.27 297.5 604.016 295.509 604.839 293.093C605.633 290.698 605.456 288.086 604.344 285.821C603.233 283.555 601.276 281.818 598.896 280.982Z" fill="white"/>
<path style="mix-blend-mode:multiply" d="M599.134 293.568L563.382 281.418C561.596 280.814 560.03 279.693 558.881 278.197C558.245 280.554 558.529 283.065 559.677 285.22C560.825 287.374 562.75 289.01 565.06 289.795L592.698 299.199C595.009 299.981 597.53 299.855 599.752 298.846C601.973 297.838 603.728 296.021 604.662 293.766C602.84 294.248 600.917 294.179 599.134 293.568Z" fill="url(#paint10_linear_301_778)"/>
<path d="M525.478 292.898L497.84 283.493C495.436 282.667 492.804 282.826 490.517 283.937C488.231 285.048 486.477 287.019 485.639 289.42C484.819 291.826 484.981 294.458 486.09 296.745C487.199 299.031 489.166 300.787 491.562 301.63L519.2 311.035C521.601 311.86 524.231 311.7 526.514 310.589C528.797 309.478 530.547 307.507 531.381 305.107C532.207 302.705 532.05 300.072 530.945 297.785C529.839 295.497 527.873 293.74 525.478 292.898Z" fill="white"/>
<path style="mix-blend-mode:multiply" d="M525.714 305.5L489.962 293.33C488.173 292.721 486.602 291.602 485.441 290.109C484.81 292.466 485.097 294.975 486.244 297.128C487.391 299.282 489.313 300.918 491.62 301.707L519.259 311.111C521.566 311.897 524.087 311.773 526.306 310.764C528.526 309.754 530.277 307.935 531.202 305.678C529.395 306.163 527.486 306.101 525.714 305.5Z" fill="url(#paint11_linear_301_778)"/>
<path d="M587.488 314.136L559.85 304.731C557.434 303.915 554.792 304.091 552.505 305.221C550.218 306.35 548.472 308.341 547.65 310.757C546.835 313.173 547.011 315.814 548.14 318.099C549.269 320.385 551.258 322.129 553.671 322.947L581.309 332.372C583.723 333.187 586.361 333.011 588.645 331.881C590.929 330.751 592.671 328.76 593.49 326.346C593.897 325.15 594.064 323.885 593.983 322.624C593.902 321.363 593.573 320.131 593.016 318.997C592.458 317.863 591.683 316.85 590.735 316.016C589.787 315.182 588.683 314.543 587.488 314.136Z" fill="white"/>
<path style="mix-blend-mode:multiply" d="M587.724 326.818L551.972 314.648C550.179 314.058 548.608 312.935 547.471 311.427C546.83 313.784 547.112 316.298 548.261 318.453C549.409 320.609 551.337 322.244 553.65 323.025L581.288 332.449C583.599 333.231 586.121 333.105 588.342 332.096C590.563 331.087 592.318 329.271 593.252 327.016C591.429 327.488 589.508 327.42 587.724 326.818Z" fill="url(#paint12_linear_301_778)"/>
<path d="M514.065 326.147L486.427 316.743C484.024 315.916 481.391 316.076 479.105 317.187C476.818 318.297 475.065 320.269 474.227 322.67C473.401 325.075 473.56 327.71 474.67 329.998C475.78 332.286 477.75 334.041 480.149 334.88L507.787 344.284C510.191 345.105 512.821 344.943 515.106 343.833C517.391 342.723 519.145 340.755 519.988 338.357C520.813 335.952 520.654 333.317 519.544 331.029C518.434 328.741 516.464 326.986 514.065 326.147Z" fill="white"/>
<path style="mix-blend-mode:multiply" d="M514.3 338.732L478.528 326.582C476.745 325.973 475.18 324.853 474.027 323.361C473.396 325.718 473.683 328.227 474.83 330.38C475.977 332.534 477.899 334.17 480.206 334.959L507.845 344.363C510.155 345.145 512.677 345.019 514.898 344.01C517.119 343.002 518.875 341.185 519.808 338.93C517.993 339.413 516.076 339.344 514.3 338.732Z" fill="url(#paint13_linear_301_778)"/>
<path d="M576.075 347.465L548.437 338.061C546.033 337.24 543.403 337.402 541.118 338.512C538.833 339.622 537.079 341.59 536.236 343.988C535.417 346.391 535.579 349.02 536.689 351.304C537.798 353.587 539.764 355.339 542.159 356.178L569.797 365.582C572.2 366.414 574.835 366.257 577.123 365.146C579.41 364.034 581.164 362.059 581.997 359.655C582.817 357.252 582.654 354.623 581.545 352.339C580.435 350.056 578.469 348.304 576.075 347.465Z" fill="white"/>
<path style="mix-blend-mode:multiply" d="M576.312 360.069L540.56 347.899C538.771 347.291 537.199 346.171 536.039 344.679C535.408 347.036 535.694 349.545 536.842 351.698C537.989 353.851 539.911 355.487 542.218 356.276L569.856 365.68C572.164 366.469 574.686 366.348 576.908 365.342C579.13 364.337 580.886 362.522 581.82 360.267C580.004 360.739 578.089 360.671 576.312 360.069Z" fill="url(#paint14_linear_301_778)"/>
<path d="M502.641 359.398L475.002 349.994C473.814 349.582 472.556 349.409 471.3 349.484C470.045 349.56 468.816 349.882 467.685 350.432C466.554 350.982 465.542 351.75 464.708 352.692C463.873 353.634 463.233 354.731 462.822 355.921C461.991 358.326 462.148 360.963 463.258 363.253C464.369 365.542 466.342 367.297 468.744 368.131L496.382 377.535C498.786 378.356 501.416 378.194 503.701 377.084C505.986 375.974 507.74 374.006 508.583 371.608C509.408 369.2 509.245 366.563 508.132 364.275C507.018 361.986 505.043 360.233 502.641 359.398Z" fill="white"/>
<path style="mix-blend-mode:multiply" d="M502.896 371.983L467.124 359.832C465.338 359.229 463.771 358.108 462.623 356.612C461.991 358.969 462.278 361.478 463.426 363.631C464.573 365.784 466.495 367.421 468.802 368.209L496.44 377.614C498.751 378.396 501.272 378.27 503.494 377.261C505.715 376.252 507.47 374.436 508.404 372.18C506.589 372.663 504.671 372.595 502.896 371.983Z" fill="url(#paint15_linear_301_778)"/>
<path d="M564.606 380.717L536.968 371.313C534.567 370.487 531.937 370.647 529.654 371.758C527.371 372.869 525.621 374.84 524.787 377.24C523.962 379.645 524.121 382.28 525.231 384.568C526.341 386.856 528.31 388.611 530.71 389.45L558.348 398.854C560.751 399.68 563.384 399.521 565.67 398.41C567.956 397.3 569.71 395.328 570.548 392.927C571.368 390.519 571.203 387.884 570.09 385.597C568.977 383.31 567.006 381.556 564.606 380.717Z" fill="white"/>
<path style="mix-blend-mode:multiply" d="M564.904 393.32L529.073 381.15C527.29 380.541 525.725 379.421 524.572 377.93C523.941 380.287 524.228 382.796 525.375 384.949C526.522 387.102 528.444 388.738 530.751 389.527L558.389 398.931C560.7 399.719 563.223 399.595 565.446 398.585C567.669 397.576 569.423 395.757 570.353 393.498C568.559 393.976 566.664 393.914 564.904 393.32Z" fill="url(#paint16_linear_301_778)"/>
<path d="M591.079 463.576C591.079 466.147 590.318 468.661 588.89 470.799C587.463 472.937 585.434 474.603 583.061 475.587C580.687 476.571 578.075 476.828 575.555 476.327C573.035 475.825 570.721 474.587 568.904 472.769C567.088 470.951 565.85 468.634 565.349 466.113C564.848 463.591 565.105 460.977 566.088 458.601C567.072 456.226 568.737 454.196 570.873 452.767C573.009 451.339 575.52 450.576 578.089 450.576C579.796 450.574 581.486 450.908 583.064 451.56C584.641 452.213 586.074 453.17 587.281 454.378C588.487 455.586 589.444 457.02 590.096 458.598C590.748 460.177 591.082 461.868 591.079 463.576Z" fill="#DDDDDF"/>
<path d="M88.8333 420.25C88.8294 422.821 88.0643 425.332 86.6346 427.467C85.2048 429.603 83.1747 431.266 80.8008 432.247C78.4269 433.228 75.8156 433.482 73.2971 432.979C70.7786 432.475 68.4659 431.235 66.6512 429.416C64.8365 427.597 63.6013 425.281 63.1017 422.76C62.6021 420.238 62.8605 417.625 63.8442 415.251C64.828 412.877 66.4929 410.848 68.6287 409.42C70.7644 407.992 73.2751 407.23 75.8434 407.23C77.5509 407.23 79.2417 407.567 80.819 408.222C82.3963 408.876 83.8292 409.836 85.0357 411.045C86.2422 412.254 87.1986 413.69 87.8502 415.269C88.5019 416.849 88.8359 418.542 88.8333 420.25Z" fill="#DDDDDF"/>
<path d="M610.305 490.921C610.305 492.285 609.9 493.619 609.142 494.753C608.385 495.888 607.307 496.772 606.047 497.293C604.787 497.814 603.401 497.949 602.064 497.682C600.727 497.414 599.499 496.756 598.536 495.789C597.574 494.823 596.919 493.592 596.655 492.254C596.392 490.915 596.531 489.528 597.056 488.268C597.58 487.009 598.466 485.933 599.602 485.178C600.737 484.423 602.071 484.022 603.435 484.025C604.339 484.025 605.234 484.204 606.069 484.551C606.903 484.897 607.662 485.406 608.3 486.046C608.938 486.687 609.444 487.447 609.788 488.283C610.132 489.12 610.308 490.016 610.305 490.921Z" fill="#DDDDDF"/>
<path d="M54.8401 397.609C54.844 398.974 54.4427 400.31 53.6872 401.447C52.9316 402.584 51.8558 403.471 50.5961 403.995C49.3363 404.519 47.9494 404.658 46.611 404.392C45.2727 404.127 44.0433 403.47 43.0785 402.504C42.1138 401.539 41.4572 400.308 41.192 398.969C40.9268 397.63 41.0649 396.242 41.5888 394.981C42.1127 393.72 42.9988 392.643 44.1349 391.887C45.2709 391.131 46.6057 390.73 47.9701 390.733C49.7921 390.733 51.5395 391.458 52.8279 392.747C54.1163 394.037 54.8401 395.785 54.8401 397.609Z" fill="#DDDDDF"/>
</g>
<defs>
<linearGradient id="paint0_linear_301_778" x1="246.946" y1="401.322" x2="43.2836" y2="315.513" gradientUnits="userSpaceOnUse">
<stop stop-color="white" stop-opacity="0"/>
<stop offset="1" stop-color="#235196"/>
</linearGradient>
<linearGradient id="paint1_linear_301_778" x1="53.078" y1="240.499" x2="179.454" y2="355.405" gradientUnits="userSpaceOnUse">
<stop stop-color="white" stop-opacity="0"/>
<stop offset="1" stop-color="#235196"/>
</linearGradient>
<linearGradient id="paint2_linear_301_778" x1="492.654" y1="290.202" x2="-10.7414" y2="244.932" gradientUnits="userSpaceOnUse">
<stop stop-color="white" stop-opacity="0"/>
<stop offset="1" stop-color="#818181"/>
</linearGradient>
<linearGradient id="paint3_linear_301_778" x1="317.818" y1="440.289" x2="333.68" y2="530.272" gradientUnits="userSpaceOnUse">
<stop stop-color="white" stop-opacity="0"/>
<stop offset="1" stop-color="#235196"/>
</linearGradient>
<linearGradient id="paint4_linear_301_778" x1="367.147" y1="416.021" x2="433.772" y2="478.494" gradientUnits="userSpaceOnUse">
<stop stop-color="white" stop-opacity="0"/>
<stop offset="1" stop-color="#235196"/>
</linearGradient>
<linearGradient id="paint5_linear_301_778" x1="536.214" y1="171.249" x2="548.604" y2="228.266" gradientUnits="userSpaceOnUse">
<stop stop-color="white" stop-opacity="0"/>
<stop offset="1" stop-color="#235196"/>
</linearGradient>
<linearGradient id="paint6_linear_301_778" x1="598.21" y1="192.585" x2="610.606" y2="249.583" gradientUnits="userSpaceOnUse">
<stop stop-color="white" stop-opacity="0"/>
<stop offset="1" stop-color="#235196"/>
</linearGradient>
<linearGradient id="paint7_linear_301_778" x1="524.798" y1="204.507" x2="537.194" y2="261.505" gradientUnits="userSpaceOnUse">
<stop stop-color="white" stop-opacity="0"/>
<stop offset="1" stop-color="#235196"/>
</linearGradient>
<linearGradient id="paint8_linear_301_778" x1="586.8" y1="225.827" x2="599.19" y2="282.844" gradientUnits="userSpaceOnUse">
<stop stop-color="white" stop-opacity="0"/>
<stop offset="1" stop-color="#235196"/>
</linearGradient>
<linearGradient id="paint9_linear_301_778" x1="513.363" y1="237.742" x2="525.771" y2="294.766" gradientUnits="userSpaceOnUse">
<stop stop-color="white" stop-opacity="0"/>
<stop offset="1" stop-color="#235196"/>
</linearGradient>
<linearGradient id="paint10_linear_301_778" x1="575.382" y1="259.085" x2="587.778" y2="316.083" gradientUnits="userSpaceOnUse">
<stop stop-color="white" stop-opacity="0"/>
<stop offset="1" stop-color="#235196"/>
</linearGradient>
<linearGradient id="paint11_linear_301_778" x1="501.944" y1="270.999" x2="514.359" y2="328.004" gradientUnits="userSpaceOnUse">
<stop stop-color="white" stop-opacity="0"/>
<stop offset="1" stop-color="#235196"/>
</linearGradient>
<linearGradient id="paint12_linear_301_778" x1="563.97" y1="292.324" x2="576.36" y2="349.341" gradientUnits="userSpaceOnUse">
<stop stop-color="white" stop-opacity="0"/>
<stop offset="1" stop-color="#235196"/>
</linearGradient>
<linearGradient id="paint13_linear_301_778" x1="490.528" y1="304.241" x2="502.918" y2="361.258" gradientUnits="userSpaceOnUse">
<stop stop-color="white" stop-opacity="0"/>
<stop offset="1" stop-color="#235196"/>
</linearGradient>
<linearGradient id="paint14_linear_301_778" x1="552.549" y1="325.583" x2="564.945" y2="382.582" gradientUnits="userSpaceOnUse">
<stop stop-color="white" stop-opacity="0"/>
<stop offset="1" stop-color="#235196"/>
</linearGradient>
<linearGradient id="paint15_linear_301_778" x1="479.115" y1="337.499" x2="491.511" y2="394.498" gradientUnits="userSpaceOnUse">
<stop stop-color="white" stop-opacity="0"/>
<stop offset="1" stop-color="#235196"/>
</linearGradient>
<linearGradient id="paint16_linear_301_778" x1="541.139" y1="358.824" x2="553.535" y2="415.822" gradientUnits="userSpaceOnUse">
<stop stop-color="white" stop-opacity="0"/>
<stop offset="1" stop-color="#235196"/>
</linearGradient>
<clipPath id="clip0_301_778">
<rect width="665.151" height="562.561" fill="white"/>
</clipPath>
</defs>
</svg>
