<svg width="238" height="183" viewBox="0 0 238 183" fill="none" xmlns="http://www.w3.org/2000/svg">
<path d="M130.573 45.0029C118.162 45.0029 108.071 34.9061 108.071 22.5015C108.071 10.0968 118.168 0 130.573 0C142.977 0 153.074 10.0968 153.074 22.5015C153.074 34.9061 142.977 45.0029 130.573 45.0029ZM130.573 6.89087C121.967 6.89087 114.962 13.8906 114.962 22.5015C114.962 31.1123 121.962 38.1121 130.573 38.1121C139.183 38.1121 146.183 31.1123 146.183 22.5015C146.183 13.8906 139.183 6.89087 130.573 6.89087Z" fill="#282169"/>
<path d="M93.7181 56.4289C91.7477 56.4289 90.6591 56.4289 89.5487 56.2112C84.9439 55.2913 81.3842 51.7316 80.4697 47.1377C80.2466 46.0218 80.2466 44.9332 80.2466 42.9574V41.0306C80.2466 38.9024 81.972 37.1824 84.0948 37.1824C86.2176 37.1824 87.943 38.9024 87.943 41.0306V42.9574C87.943 44.3454 87.943 45.2598 88.0138 45.6354C88.3186 47.1703 89.5106 48.3515 91.0401 48.6617C91.4102 48.7325 92.3247 48.7325 93.7126 48.7325C95.1006 48.7325 96.0205 48.7325 96.396 48.6563C97.9201 48.3515 99.1067 47.1649 99.4115 45.6354C99.4877 45.2653 99.4877 44.3454 99.4877 42.9574V41.0306C99.4877 38.9024 101.213 37.1824 103.336 37.1824C105.459 37.1824 107.184 38.9024 107.184 41.0306V42.9574C107.184 44.9332 107.184 46.0218 106.961 47.1377C106.047 51.7316 102.487 55.2913 97.8874 56.2112C96.7662 56.4344 95.683 56.4344 93.7072 56.4344L93.7181 56.4289Z" fill="#282169"/>
<path d="M149.787 121C147.071 121 144.36 120.102 142.145 118.306C141.726 117.963 141.285 117.533 140.408 116.662C139.505 115.764 139.086 115.323 138.759 114.92C135.167 110.501 135.167 104.072 138.77 99.6364C139.086 99.2445 139.51 98.8036 140.359 97.96L142.863 100.355L140.414 97.9055L157.734 80.5858C158.604 79.7149 159.051 79.2849 159.453 78.9529C163.895 75.3442 170.329 75.3496 174.754 78.942C175.173 79.2849 175.614 79.7149 176.49 80.5858C177.394 81.4839 177.813 81.9248 178.139 82.3276C181.732 86.7473 181.732 93.1755 178.129 97.6116C177.813 98.0035 177.388 98.4444 176.539 99.2881L159.165 116.662C158.294 117.533 157.848 117.963 157.445 118.295C155.224 120.102 152.503 121 149.787 121ZM167.117 83.1604C165.952 83.1604 164.788 83.5468 163.835 84.3197C163.558 84.5483 163.253 84.8586 162.632 85.4845L145.313 102.804L145.258 102.859C144.681 103.436 144.376 103.719 144.159 103.996C142.607 105.907 142.607 108.661 144.148 110.555C144.382 110.844 144.681 111.132 145.258 111.704C145.933 112.379 146.238 112.694 146.526 112.934C148.415 114.469 151.169 114.469 153.069 112.923C153.346 112.694 153.651 112.384 154.272 111.758L171.591 94.4383C172.223 93.8069 172.522 93.5239 172.745 93.2463C174.297 91.3358 174.297 88.5816 172.756 86.6874C172.522 86.399 172.223 86.1105 171.646 85.539C170.971 84.864 170.666 84.5483 170.378 84.3088C169.436 83.5468 168.277 83.1604 167.117 83.1604Z" fill="#282169"/>
<path d="M163.65 107.283C162.762 107.283 161.875 106.946 161.2 106.271L150.809 95.88C149.454 94.5247 149.454 92.3366 150.809 90.9813C152.165 89.626 154.353 89.626 155.708 90.9813L166.099 101.372C167.454 102.727 167.454 104.915 166.099 106.271C165.424 106.946 164.537 107.283 163.65 107.283Z" fill="#282169"/>
<path d="M127.209 119.948H116.649C104.631 119.948 98.6001 119.948 93.4837 117.335C88.9551 115.028 85.3355 111.413 83.0276 106.879C80.4204 101.763 80.4204 95.7321 80.4204 83.7139V55.0019C80.4204 53.1132 81.9499 51.5837 83.8386 51.5837C85.7274 51.5837 87.2569 53.1132 87.2569 55.0019V83.7139C87.2569 94.6381 87.2568 100.119 89.1184 103.771C90.7676 107.01 93.3476 109.59 96.5862 111.239C100.244 113.101 105.725 113.101 116.649 113.101H127.209C129.097 113.101 130.627 114.63 130.627 116.519C130.627 118.408 129.097 119.937 127.209 119.937V119.948Z" fill="#282169"/>
<path d="M89.1953 89.8655C88.0032 89.8655 86.8167 89.4137 85.9077 88.5048C84.0897 86.6868 84.0897 83.7475 85.9077 81.9296L99.8527 67.9845C108.077 59.7601 121.451 59.7601 129.67 67.9845C134.264 72.5785 141.748 72.5785 146.342 67.9845L162.611 51.7153C164.429 49.8974 167.368 49.8974 169.186 51.7153C171.004 53.5333 171.004 56.4725 169.186 58.2905L152.917 74.5597C144.692 82.7841 131.319 82.7841 123.1 74.5597C118.506 69.9658 111.022 69.9658 106.428 74.5597L92.4828 88.5048C91.5739 89.4137 90.3873 89.8655 89.1953 89.8655Z" fill="#282169"/>
<path d="M69.578 33.1473C70.7591 30.2951 72.9744 28.0744 75.8266 26.8932C77.9493 26.0114 81.2914 26.0115 87.9427 26.0115H111.843C111.631 24.8684 111.511 23.6927 111.511 22.4898C111.511 21.0529 111.674 19.654 111.979 18.3096H87.9427C80.2681 18.3096 76.4144 18.3096 72.8764 19.7737C68.1247 21.7441 64.4234 25.4454 62.4639 30.1917C60.9998 33.7242 60.9998 37.5779 60.9998 45.2526V47.1794C60.9998 49.1552 60.9998 50.2438 61.2229 51.3596C62.1374 55.9535 65.6971 59.5133 70.3019 60.4332C71.4123 60.6509 72.5009 60.6509 74.4712 60.6509C76.4416 60.6509 77.5302 60.6509 78.6515 60.4277C83.2509 59.5133 86.8106 55.9481 87.725 51.3542C87.9482 50.2384 87.9482 49.1498 87.9482 47.1739V45.2471C87.9482 43.1189 86.2227 41.3989 84.1 41.3989C81.9772 41.3989 80.2517 43.1189 80.2517 45.2471V47.1739C80.2517 48.5619 80.2517 49.4763 80.1755 49.8519C79.8707 51.3868 78.6842 52.568 77.1601 52.8728C76.7845 52.949 75.8647 52.949 74.4767 52.949C73.0887 52.949 72.1689 52.949 71.8042 52.8782C70.2747 52.568 69.0827 51.3868 68.7778 49.8519C68.7071 49.4818 68.7071 48.5619 68.7071 47.1739V45.2471C68.7071 38.8026 68.7071 35.2537 69.5889 33.1309L69.578 33.1473Z" fill="#282169"/>
<path d="M163.465 33.8104C162.001 26.4677 156.482 20.7199 149.281 18.9128C149.504 20.0722 149.623 21.2696 149.623 22.4997C149.623 24.0292 149.438 25.5152 149.095 26.9413C152.574 28.4109 155.154 31.508 155.91 35.3126C156.133 36.4339 156.133 38.2029 156.133 41.4197C156.133 43.5479 157.859 45.2679 159.982 45.2679C162.104 45.2679 163.83 43.5479 163.83 41.4197C163.83 37.5987 163.83 35.6773 163.46 33.8158L163.465 33.8104Z" fill="#282169"/>
<path d="M138.361 26.3941H122.778C120.628 26.3941 118.881 24.6523 118.881 22.4968C118.881 20.3414 120.622 18.5996 122.778 18.5996H138.361C140.511 18.5996 142.258 20.3414 142.258 22.4968C142.258 24.6523 140.517 26.3941 138.361 26.3941Z" fill="#282169"/>
<path d="M130.572 34.1879C128.422 34.1879 126.675 32.4461 126.675 30.2907V14.7073C126.675 12.5518 128.417 10.8101 130.572 10.8101C132.728 10.8101 134.469 12.5518 134.469 14.7073V30.2907C134.469 32.4461 132.728 34.1879 130.572 34.1879Z" fill="#282169"/>
<path d="M12.696 166.395H7.61438V175H2.64636V151.069H13.0695C15.4723 151.069 17.3881 151.686 18.8168 152.92C20.2455 154.154 20.9598 156.064 20.9598 158.651C20.9598 161.476 20.2455 163.473 18.8168 164.642C17.3881 165.811 15.3478 166.395 12.696 166.395ZM15.0339 161.411C15.6833 160.837 16.0081 159.928 16.0081 158.683C16.0081 157.439 15.6779 156.551 15.0177 156.021C14.3683 155.491 13.4537 155.225 12.2739 155.225H7.61438V162.271H12.2739C13.4537 162.271 14.3737 161.985 15.0339 161.411ZM38.9811 175V164.317H29.6295V175H24.6777V151.069H29.6295V160.193H38.9811V151.069H43.9491V175H38.9811ZM62.7496 170.081H53.9338L52.2778 175H47.05L55.5898 151.069H61.2397L69.7146 175H64.292L62.7496 170.081ZM61.3534 165.957L58.3661 156.54L55.2814 165.957H61.3534ZM82.9302 165.616H77.7673V175H72.8805V151.069H84.6187C86.2963 151.102 87.5843 151.307 88.4827 151.686C89.3918 152.065 90.1603 152.622 90.7881 153.358C91.3076 153.964 91.7189 154.635 92.022 155.371C92.325 156.107 92.4766 156.946 92.4766 157.888C92.4766 159.024 92.1897 160.145 91.6161 161.249C91.0424 162.342 90.0954 163.116 88.7749 163.57C89.8789 164.014 90.6582 164.647 91.1128 165.47C91.5782 166.282 91.8109 167.526 91.8109 169.204V170.811C91.8109 171.904 91.8542 172.646 91.9408 173.036C92.0707 173.652 92.3737 174.107 92.85 174.399V175H87.3462C87.1947 174.47 87.0864 174.042 87.0215 173.717C86.8916 173.046 86.8212 172.359 86.8104 171.656L86.778 169.431C86.7563 167.905 86.4749 166.888 85.9337 166.379C85.4034 165.87 84.4022 165.616 82.9302 165.616ZM85.9662 161.265C86.962 160.81 87.4598 159.912 87.4598 158.57C87.4598 157.119 86.9782 156.145 86.0149 155.647C85.4737 155.366 84.6619 155.225 83.5796 155.225H77.7673V161.655H83.4335C84.5591 161.655 85.4034 161.525 85.9662 161.265ZM101.374 175H96.714V151.069H103.987L108.339 169.886L112.657 151.069H119.849V175H115.19V158.813C115.19 158.348 115.195 157.699 115.206 156.865C115.217 156.021 115.222 155.371 115.222 154.917L110.693 175H105.838L101.341 154.917C101.341 155.371 101.346 156.021 101.357 156.865C101.368 157.699 101.374 158.348 101.374 158.813V175ZM124.493 151.069H129.493V170.698H141.345V175H124.493V151.069ZM161.087 151.069L153.083 166.006V175H148.083V166.006L139.803 151.069H145.696L150.664 161.492L155.421 151.069H161.087ZM181.333 151.069V155.307H174.173V175H169.14V155.307H161.948V151.069H181.333ZM183.882 151.069H188.85V175H183.882V151.069ZM210.41 173.214C208.624 174.848 206.34 175.666 203.559 175.666C200.117 175.666 197.411 174.562 195.441 172.354C193.471 170.135 192.486 167.093 192.486 163.229C192.486 159.051 193.607 155.831 195.847 153.569C197.795 151.599 200.274 150.615 203.283 150.615C207.309 150.615 210.253 151.935 212.115 154.576C213.143 156.059 213.695 157.547 213.771 159.041H208.77C208.446 157.893 208.029 157.027 207.52 156.443C206.611 155.404 205.264 154.884 203.478 154.884C201.659 154.884 200.225 155.62 199.175 157.092C198.125 158.554 197.6 160.626 197.6 163.311C197.6 165.995 198.152 168.008 199.256 169.35C200.371 170.681 201.784 171.347 203.494 171.347C205.247 171.347 206.584 170.773 207.504 169.626C208.013 169.009 208.435 168.084 208.77 166.85H213.722C213.289 169.458 212.185 171.58 210.41 173.214ZM226.24 171.542C227.419 171.542 228.377 171.412 229.113 171.152C230.51 170.654 231.208 169.729 231.208 168.376C231.208 167.586 230.861 166.974 230.169 166.541C229.476 166.119 228.388 165.746 226.905 165.421L224.373 164.853C221.883 164.29 220.162 163.679 219.21 163.018C217.597 161.914 216.791 160.188 216.791 157.839C216.791 155.696 217.57 153.916 219.129 152.498C220.687 151.08 222.976 150.371 225.996 150.371C228.518 150.371 230.666 151.042 232.442 152.384C234.227 153.715 235.164 155.653 235.25 158.196H230.445C230.358 156.757 229.73 155.734 228.561 155.128C227.782 154.727 226.813 154.527 225.655 154.527C224.367 154.527 223.339 154.787 222.57 155.307C221.802 155.826 221.418 156.551 221.418 157.482C221.418 158.337 221.797 158.976 222.554 159.398C223.041 159.679 224.08 160.009 225.671 160.388L229.795 161.379C231.603 161.811 232.966 162.391 233.886 163.116C235.315 164.241 236.03 165.87 236.03 168.003C236.03 170.189 235.191 172.007 233.513 173.458C231.846 174.897 229.487 175.617 226.434 175.617C223.317 175.617 220.866 174.908 219.08 173.49C217.294 172.061 216.401 170.102 216.401 167.613H221.174C221.326 168.706 221.623 169.523 222.067 170.064C222.879 171.049 224.27 171.542 226.24 171.542Z" fill="#221B64"/>
</svg>
