<svg width="24" height="25" viewBox="0 0 24 25" fill="none" xmlns="http://www.w3.org/2000/svg">
<path d="M10.9232 11.2064V6.50614H13.2733V11.2064H17.9735V13.5565H13.2733V18.2567H10.9232V13.5565H6.22294V11.2064H10.9232ZM12.0982 24.132C5.60838 24.132 0.347656 18.8713 0.347656 12.3814C0.347656 5.89159 5.60838 0.630859 12.0982 0.630859C18.5881 0.630859 23.8488 5.89159 23.8488 12.3814C23.8488 18.8713 18.5881 24.132 12.0982 24.132ZM12.0982 21.7819C14.5914 21.7819 16.9824 20.7915 18.7453 19.0285C20.5083 17.2656 21.4987 14.8746 21.4987 12.3814C21.4987 9.88827 20.5083 7.49722 18.7453 5.7343C16.9824 3.97137 14.5914 2.98097 12.0982 2.98097C9.60506 2.98097 7.21402 3.97137 5.4511 5.7343C3.68817 7.49722 2.69777 9.88827 2.69777 12.3814C2.69777 14.8746 3.68817 17.2656 5.4511 19.0285C7.21402 20.7915 9.60506 21.7819 12.0982 21.7819Z" fill="white"/>
</svg>
