<svg width="20" height="20" viewBox="0 0 20 20" fill="none" xmlns="http://www.w3.org/2000/svg">
<path fill-rule="evenodd" clip-rule="evenodd" d="M3.73052 12.6755C4.82578 11.1487 6.76553 10.0003 9.99996 10.0003C13.2344 10.0003 15.1741 11.1487 16.2694 12.6755C17.3279 14.1511 17.4965 15.8424 17.4999 16.7783C17.5033 17.7194 16.7143 18.3337 15.9054 18.3337H4.0945C3.2856 18.3337 2.49663 17.7194 2.50001 16.7783C2.50338 15.8424 2.67198 14.1511 3.73052 12.6755ZM4.16815 16.667H15.8318C15.8146 15.8736 15.6439 14.6628 14.9151 13.647C14.1862 12.6308 12.7957 11.667 9.99996 11.667C7.2042 11.667 5.81373 12.6308 5.08478 13.647C4.35604 14.6628 4.18536 15.8736 4.16815 16.667Z" fill="#191D23"/>
<path fill-rule="evenodd" clip-rule="evenodd" d="M10 6.66699C10.9205 6.66699 11.6667 5.9208 11.6667 5.00033C11.6667 4.07985 10.9205 3.33366 10 3.33366C9.07957 3.33366 8.33337 4.07985 8.33337 5.00033C8.33337 5.9208 9.07957 6.66699 10 6.66699ZM10 8.33366C11.841 8.33366 13.3334 6.84127 13.3334 5.00033C13.3334 3.15938 11.841 1.66699 10 1.66699C8.15909 1.66699 6.66671 3.15938 6.66671 5.00033C6.66671 6.84127 8.15909 8.33366 10 8.33366Z" fill="#191D23"/>
</svg>
