<svg width="20" height="21" viewBox="0 0 20 21" fill="none" xmlns="http://www.w3.org/2000/svg">
<g id="Icons">
<g id="Group 10669">
<g id="Group 10693">
<path id="Path 41778" d="M4.24386 14.6497C4.32766 15.3142 4.64185 15.9284 5.13175 16.3852C5.62166 16.842 6.25629 17.1125 6.92509 17.1496C8.06257 17.2309 9.28128 17.2309 10.5 17.2309C11.7187 17.2309 12.9374 17.2309 14.0749 17.1496C14.7437 17.1125 15.3784 16.842 15.8683 16.3852C16.3582 15.9284 16.6724 15.3142 16.7562 14.6497C16.8374 13.7559 16.9999 12.8622 16.9999 11.9685C17.0031 11.069 16.9215 10.1714 16.7562 9.28726C16.6712 8.62317 16.3566 8.0097 15.867 7.55313C15.3773 7.09656 14.7433 6.82565 14.0749 6.78731C12.9374 6.70606 11.7187 6.70605 10.5 6.70605C9.28128 6.70605 8.06257 6.70606 6.92509 6.78731C6.25669 6.82565 5.62272 7.09656 5.13305 7.55313C4.64338 8.0097 4.32882 8.62317 4.24386 9.28726C4.16261 10.181 4.00011 11.0747 4.00011 11.9685C3.99663 12.8679 4.07825 13.7656 4.24386 14.6497Z" stroke="#191D23" stroke-width="1.5"/>
<path id="Path 41779" d="M6.84424 6.68742V4.65621C6.84424 3.68653 7.22941 2.75655 7.91508 2.07088C8.60075 1.38521 9.53073 1 10.5004 1C11.4701 1 12.4001 1.38521 13.0857 2.07088C13.7714 2.75655 14.1566 3.68653 14.1566 4.65621V6.68742" stroke="#191D23" stroke-width="1.5" stroke-linecap="round" stroke-linejoin="round"/>
</g>
</g>
</g>
</svg>
