<svg width="20" height="20" viewBox="0 0 20 20" fill="none" xmlns="http://www.w3.org/2000/svg">
<g id="Icons">
<path id="Vector" d="M10.6654 2.00003C8.06001 1.99319 5.76731 3.34114 4.45694 5.37758C4.39886 5.46813 4.46378 5.58772 4.57141 5.58772H5.77243C5.85443 5.58772 5.93131 5.55184 5.98257 5.48863C6.10216 5.34341 6.23029 5.20332 6.36525 5.07006C6.9222 4.51483 7.56969 4.07747 8.29065 3.77337C9.03552 3.45902 9.82823 3.29843 10.6466 3.29843C11.4649 3.29843 12.2576 3.45731 13.0025 3.77337C13.7234 4.07747 14.3709 4.51483 14.9279 5.07006C15.4848 5.6253 15.9205 6.27279 16.2263 6.99204C16.5423 7.73691 16.7012 8.52791 16.7012 9.34625C16.7012 10.1646 16.5406 10.9556 16.2263 11.7005C15.9222 12.4197 15.4848 13.0672 14.9279 13.6224C14.3709 14.1777 13.7234 14.615 13.0025 14.9191C12.257 15.234 11.4558 15.3955 10.6466 15.3941C9.82823 15.3941 9.03552 15.2335 8.29065 14.9191C7.57111 14.6153 6.91726 14.175 6.36525 13.6224C6.23029 13.4875 6.10386 13.3474 5.98257 13.2039C5.93131 13.1407 5.85273 13.1048 5.77243 13.1048H4.57141C4.46378 13.1048 4.39715 13.2244 4.45694 13.3149C5.7656 15.3462 8.04805 16.6925 10.6466 16.6925C14.6819 16.6925 17.9586 13.4448 17.9996 9.42142C18.0406 5.33316 14.7587 2.01028 10.6654 2.00003ZM8.50112 11.2597V9.96128H3.13667C3.0615 9.96128 3 9.89978 3 9.82461V8.86789C3 8.79272 3.0615 8.73122 3.13667 8.73122H8.50112V7.43281C8.50112 7.31835 8.63438 7.25343 8.72322 7.32518L11.1475 9.23862C11.1638 9.2514 11.177 9.26774 11.1861 9.28639C11.1952 9.30503 11.1999 9.3255 11.1999 9.34625C11.1999 9.36699 11.1952 9.38746 11.1861 9.40611C11.177 9.42476 11.1638 9.44109 11.1475 9.45388L8.72322 11.3673C8.63438 11.4374 8.50112 11.3741 8.50112 11.2597Z" fill="#191D23"/>
</g>
</svg>
