<svg width="24" height="25" viewBox="0 0 24 25" fill="none" xmlns="http://www.w3.org/2000/svg">
<g id="mdi:email-resend-outline">
<path id="Vector" d="M3 4.07227C1.9 4.07227 1 4.97227 1 6.07227V18.0723C1 19.1723 1.9 20.0723 3 20.0723H13.5C13.228 19.4364 13.0592 18.7613 13 18.0723H3V8.07227L11 13.0723L19 8.07227V11.0723C19.1666 11.0659 19.3334 11.0659 19.5 11.0723C20.0053 11.0738 20.5087 11.1342 21 11.2523V6.07227C21 4.97227 20.1 4.07227 19 4.07227H3ZM3 6.07227H19L11 11.0723L3 6.07227ZM19 12.0723L16.75 14.3223L19 16.5723V15.0723C19.663 15.0723 20.2989 15.3357 20.7678 15.8045C21.2366 16.2733 21.5 16.9092 21.5 17.5723C21.5 17.9723 21.41 18.3523 21.24 18.6923L22.33 19.7823C22.75 19.1523 23 18.3923 23 17.5723C23 15.3623 21.21 13.5723 19 13.5723V12.0723ZM15.67 15.3623C15.25 15.9923 15 16.7523 15 17.5723C15 19.7823 16.79 21.5723 19 21.5723V23.0723L21.25 20.8223L19 18.5723V20.0723C18.337 20.0723 17.7011 19.8089 17.2322 19.34C16.7634 18.8712 16.5 18.2353 16.5 17.5723C16.5 17.1723 16.59 16.7923 16.76 16.4523L15.67 15.3623Z" fill="#425CDA"/>
</g>
</svg>
