<svg width="55" height="55" viewBox="0 0 55 55" fill="none" xmlns="http://www.w3.org/2000/svg">
<circle cx="27.5" cy="27.5" r="27.5" fill="#2A44C1"/>
<path d="M26.411 26.5914C25.4496 26.5914 24.5098 26.3063 23.7104 25.7721C22.911 25.238 22.2879 24.4788 21.92 23.5905C21.552 22.7023 21.4558 21.7249 21.6433 20.7819C21.8309 19.8389 22.2939 18.9728 22.9737 18.2929C23.6536 17.6131 24.5197 17.1501 25.4627 16.9625C26.4057 16.775 27.3831 16.8712 28.2713 17.2392C29.1596 17.6071 29.9188 18.2302 30.4529 19.0296C30.9871 19.829 31.2722 20.7688 31.2722 21.7303C31.2722 23.0195 30.76 24.2559 29.8484 25.1676C28.9367 26.0792 27.7003 26.5914 26.411 26.5914ZM26.411 18.3136C25.7243 18.3136 25.053 18.5172 24.482 18.8988C23.911 19.2803 23.4659 19.8226 23.2031 20.457C22.9403 21.0915 22.8716 21.7897 23.0055 22.4632C23.1395 23.1368 23.4702 23.7554 23.9558 24.241C24.4414 24.7266 25.0601 25.0573 25.7337 25.1913C26.4072 25.3253 27.1053 25.2565 27.7398 24.9937C28.3743 24.7309 28.9166 24.2859 29.2981 23.7149C29.6796 23.1439 29.8833 22.4726 29.8833 21.7858C29.8833 21.3298 29.7935 20.8783 29.619 20.457C29.4445 20.0358 29.1887 19.653 28.8663 19.3306C28.5439 19.0082 28.1611 18.7524 27.7398 18.5779C27.3185 18.4034 26.867 18.3136 26.411 18.3136ZM30.2791 27.4316C26.5211 26.586 22.5895 26.9933 19.0847 28.5914C18.6026 28.8216 18.196 29.1841 17.912 29.6365C17.6279 30.0889 17.4783 30.6127 17.4805 31.1469V35.2789C17.4805 35.3701 17.4985 35.4604 17.5334 35.5446C17.5683 35.6289 17.6194 35.7054 17.6839 35.7699C17.7484 35.8344 17.8249 35.8856 17.9092 35.9205C17.9934 35.9553 18.0837 35.9733 18.1749 35.9733C18.2661 35.9733 18.3564 35.9553 18.4407 35.9205C18.5249 35.8856 18.6015 35.8344 18.666 35.7699C18.7305 35.7054 18.7816 35.6289 18.8165 35.5446C18.8514 35.4604 18.8694 35.3701 18.8694 35.2789V31.1469C18.8633 30.8766 18.9363 30.6103 19.0794 30.3809C19.2225 30.1514 19.4295 29.9688 19.6749 29.8553C21.7862 28.8804 24.0856 28.3802 26.411 28.39C27.714 28.3883 29.0126 28.5422 30.2791 28.8483V27.4316ZM30.3763 34.0358H34.6402V35.008H30.3763V34.0358Z" fill="white"/>
<path d="M38.0359 29.9106H34.4456V31.2995H37.3415V37.112H27.5012V31.2995H31.8762V31.5911C31.8762 31.7753 31.9494 31.952 32.0796 32.0822C32.2098 32.2124 32.3865 32.2856 32.5706 32.2856C32.7548 32.2856 32.9315 32.2124 33.0617 32.0822C33.1919 31.952 33.2651 31.7753 33.2651 31.5911V28.8898C33.2651 28.7056 33.1919 28.5289 33.0617 28.3987C32.9315 28.2685 32.7548 28.1953 32.5706 28.1953C32.3865 28.1953 32.2098 28.2685 32.0796 28.3987C31.9494 28.5289 31.8762 28.7056 31.8762 28.8898V29.9106H26.8067C26.6226 29.9106 26.4459 29.9838 26.3157 30.114C26.1855 30.2442 26.1123 30.4209 26.1123 30.605V37.8064C26.1123 37.9906 26.1855 38.1672 26.3157 38.2975C26.4459 38.4277 26.6226 38.5009 26.8067 38.5009H38.0359C38.2201 38.5009 38.3967 38.4277 38.527 38.2975C38.6572 38.1672 38.7304 37.9906 38.7304 37.8064V30.605C38.7304 30.4209 38.6572 30.2442 38.527 30.114C38.3967 29.9838 38.2201 29.9106 38.0359 29.9106Z" fill="white"/>
</svg>
