<svg width="33" height="33" viewBox="0 0 33 33" fill="none" xmlns="http://www.w3.org/2000/svg">
<path d="M20.6158 0.982422H13.1964C6.367 0.982422 0.830688 6.34168 0.830688 12.9527V20.1348C0.830688 26.7458 6.367 32.105 13.1964 32.105H20.6158C27.4452 32.105 32.9815 26.7458 32.9815 20.1348V12.9527C32.9815 6.34168 27.4452 0.982422 20.6158 0.982422Z" fill="#425CDA"/>
<path d="M21.8518 15.9332C21.8518 16.9962 21.5261 18.0354 20.9161 18.9192C20.306 19.8031 19.4388 20.4919 18.4243 20.8987C17.4098 21.3055 16.2934 21.412 15.2164 21.2046C14.1394 20.9972 13.1501 20.4853 12.3736 19.7337C11.5971 18.982 11.0683 18.0243 10.8541 16.9818C10.6398 15.9392 10.7498 14.8585 11.17 13.8764C11.5903 12.8944 12.3019 12.055 13.215 11.4644C14.128 10.8738 15.2015 10.5586 16.2996 10.5586C17.7721 10.5586 19.1843 11.1249 20.2256 12.1328C21.2668 13.1407 21.8518 14.5078 21.8518 15.9332Z" stroke="white" stroke-width="1.23657" stroke-linecap="round" stroke-linejoin="round"/>
<path d="M23.0881 22.5285L20.3429 19.8711" stroke="white" stroke-width="1.23657" stroke-linecap="round" stroke-linejoin="round"/>
</svg>
