<svg width="1069" height="1080" viewBox="0 0 1069 1080" fill="none" xmlns="http://www.w3.org/2000/svg">
<g opacity="0.05" clip-path="url(#clip0_1_6)">
<path d="M426.481 1557.96C516.153 1467.1 568.27 1518.54 657.941 1427.68C747.613 1336.82 695.497 1285.38 785.143 1194.55C874.789 1103.72 926.931 1155.13 1016.6 1064.27C1106.27 973.413 1054.16 921.977 1143.83 831.119C1233.5 740.261 1285.62 791.697 1375.32 700.812C1465.01 609.928 1412.87 558.518 1502.54 467.66" stroke="#A0A3BD" stroke-width="1.62" stroke-miterlimit="10"/>
<path d="M-592.915 535.098C-503.243 444.24 -451.127 495.675 -361.455 404.817C-271.783 313.959 -323.899 262.523 -234.253 171.691C-144.607 80.8592 -92.4653 132.269 -2.7934 41.4106C86.8785 -49.4475 34.7622 -100.883 124.434 -191.741C214.106 -282.6 266.222 -231.164 355.92 -322.048C445.618 -412.933 393.475 -464.342 483.147 -555.2" stroke="#A0A3BD" stroke-width="1.62" stroke-miterlimit="10"/>
<path d="M58.4414 1175.92C148.113 1085.06 200.23 1136.49 289.901 1045.63C379.573 954.776 327.457 903.341 417.103 812.509C506.749 721.676 558.891 773.086 648.563 682.228C738.235 591.37 686.119 539.934 775.79 449.076C865.462 358.218 917.579 409.653 1007.28 318.769C1096.97 227.885 1044.83 176.475 1134.5 85.6168" stroke="#A0A3BD" stroke-width="1.62" stroke-miterlimit="10"/>
<path d="M-272.139 850.084C-182.467 759.225 -130.351 810.661 -40.6787 719.803C48.9932 628.945 -3.12308 577.509 86.523 486.677C176.169 395.845 228.311 447.255 317.983 356.396C407.655 265.538 355.539 214.102 445.21 123.244C534.882 32.386 586.999 83.8218 676.696 -7.06254C766.394 -97.9469 714.252 -149.357 803.924 -240.215" stroke="#A0A3BD" stroke-width="1.62" stroke-miterlimit="10"/>
<path d="M377.921 1500.51C467.593 1409.65 519.709 1461.09 609.381 1370.23C699.053 1279.37 646.936 1227.94 736.583 1137.11C826.229 1046.27 878.371 1097.68 968.043 1006.83C1057.71 915.968 1005.6 864.532 1095.27 773.674C1184.94 682.816 1237.06 734.251 1326.76 643.367C1416.45 552.483 1364.31 501.073 1453.98 410.215" stroke="#A0A3BD" stroke-width="1.62" stroke-miterlimit="10"/>
<path d="M-435.283 702.838C-345.611 611.98 -293.495 663.416 -203.823 572.558C-114.151 481.699 -166.268 430.264 -76.6215 339.431C13.0245 248.599 65.1666 300.009 154.838 209.151C244.51 118.293 192.394 66.8569 282.066 -24.0012C371.738 -114.859 423.854 -63.4237 513.552 -154.308C603.249 -245.192 551.107 -296.602 640.779 -387.46" stroke="#A0A3BD" stroke-width="1.62" stroke-miterlimit="10"/>
<path d="M214.776 1342.58C304.448 1251.72 356.564 1303.15 446.236 1212.3C535.908 1121.44 483.792 1070 573.438 979.169C663.084 888.337 715.226 939.747 804.898 848.889C894.57 758.03 842.454 706.595 932.125 615.736C1021.8 524.878 1073.91 576.314 1163.61 485.43C1253.31 394.545 1201.17 343.136 1290.84 252.277" stroke="#A0A3BD" stroke-width="1.62" stroke-miterlimit="10"/>
<path d="M-114.508 1017.82C-24.836 926.966 27.2803 978.402 116.952 887.544C206.624 796.686 154.508 745.25 244.154 654.418C333.8 563.586 385.942 614.995 475.614 524.137C565.286 433.279 513.169 381.843 602.841 290.985C692.513 200.127 744.629 251.563 834.327 160.678C924.025 69.794 871.883 18.3843 961.555 -72.4739" stroke="#A0A3BD" stroke-width="1.62" stroke-miterlimit="10"/>
<path d="M535.552 1668.25C625.224 1577.4 677.34 1628.83 767.012 1537.97C856.684 1447.12 804.567 1395.68 894.213 1304.85C983.859 1214.02 1036 1265.42 1125.67 1174.57C1215.35 1083.71 1163.23 1032.27 1252.9 941.415C1342.57 850.556 1394.69 901.992 1484.39 811.108C1574.08 720.223 1521.94 668.814 1611.61 577.956" stroke="#A0A3BD" stroke-width="1.62" stroke-miterlimit="10"/>
<path d="M-614.703 505.394C-525.031 414.536 -472.915 465.972 -383.243 375.113C-293.571 284.255 -345.688 232.819 -256.041 141.987C-166.395 51.1553 -114.253 102.565 -24.5815 11.7068C65.0904 -79.1514 12.9741 -130.587 102.646 -221.445C192.318 -312.304 244.434 -260.868 334.132 -351.752C423.829 -442.636 371.687 -494.046 461.359 -584.904" stroke="#A0A3BD" stroke-width="1.62" stroke-miterlimit="10"/>
<path d="M36.6523 1146.21C126.324 1055.35 178.44 1106.79 268.112 1015.93C357.784 925.073 305.668 873.637 395.314 782.805C484.96 691.973 537.102 743.383 626.774 652.525C716.446 561.667 664.33 510.231 754.001 419.373C843.673 328.514 895.79 379.95 985.487 289.066C1075.18 198.182 1023.04 146.772 1112.71 55.9137" stroke="#A0A3BD" stroke-width="1.62" stroke-miterlimit="10"/>
<path d="M-293.928 820.38C-204.256 729.522 -152.14 780.958 -62.4677 690.1C27.2041 599.242 -24.9121 547.806 64.7339 456.974C154.38 366.142 206.522 417.551 296.194 326.693C385.866 235.835 333.749 184.399 423.421 93.5411C513.093 2.68292 565.209 54.1187 654.907 -36.7657C744.605 -127.65 692.463 -179.06 782.135 -269.918" stroke="#A0A3BD" stroke-width="1.62" stroke-miterlimit="10"/>
<path d="M356.133 1470.81C445.805 1379.95 497.921 1431.39 587.593 1340.53C677.265 1249.67 625.148 1198.24 714.794 1107.4C804.441 1016.57 856.583 1067.98 946.254 977.123C1035.93 886.265 983.81 834.829 1073.48 743.971C1163.15 653.112 1215.27 704.548 1304.97 613.664C1394.67 522.78 1342.52 471.37 1432.2 380.512" stroke="#A0A3BD" stroke-width="1.62" stroke-miterlimit="10"/>
<path d="M-457.072 673.136C-367.4 582.277 -315.284 633.713 -225.612 542.855C-135.94 451.997 -188.057 400.561 -98.4106 309.729C-8.76455 218.897 43.3775 270.307 133.049 179.448C222.721 88.5902 170.605 37.1544 260.277 -53.7038C349.949 -144.562 402.065 -93.1262 491.763 -184.011C581.46 -274.895 529.318 -326.305 618.99 -417.163" stroke="#A0A3BD" stroke-width="1.62" stroke-miterlimit="10"/>
<path d="M192.987 1312.87C282.659 1222.02 334.775 1273.45 424.447 1182.59C514.119 1091.73 462.003 1040.3 551.649 949.467C641.295 858.635 693.437 910.044 783.109 819.186C872.781 728.328 820.665 676.892 910.336 586.034C1000.01 495.176 1052.12 546.611 1141.82 455.727C1231.52 364.843 1179.38 313.433 1269.05 222.575" stroke="#A0A3BD" stroke-width="1.62" stroke-miterlimit="10"/>
<path d="M-136.297 988.122C-46.625 897.264 5.49125 948.7 95.1631 857.841C184.835 766.983 132.719 715.547 222.365 624.715C312.011 533.883 364.153 585.293 453.825 494.435C543.497 403.577 491.38 352.141 581.052 261.283C670.724 170.424 722.84 221.86 812.538 130.976C902.236 40.0916 850.094 -11.3181 939.765 -102.176" stroke="#A0A3BD" stroke-width="1.62" stroke-miterlimit="10"/>
<path d="M513.764 1638.55C603.436 1547.69 655.552 1599.13 745.224 1508.27C834.896 1417.41 782.779 1365.98 872.425 1275.14C962.071 1184.31 1014.21 1235.72 1103.89 1144.86C1193.56 1054.01 1141.44 1002.57 1231.11 911.712C1320.78 820.853 1372.9 872.289 1462.6 781.405C1552.3 690.521 1500.15 639.111 1589.83 548.253" stroke="#A0A3BD" stroke-width="1.62" stroke-miterlimit="10"/>
<path d="M-675.927 450.52C-586.255 359.662 -534.139 411.098 -444.467 320.239C-354.795 229.381 -406.911 177.945 -317.265 87.1134C-227.619 -3.71868 -175.477 47.691 -85.8051 -43.1672C3.86675 -134.025 -48.2496 -185.461 41.4223 -276.319C131.094 -367.178 183.21 -315.742 272.908 -406.626C362.606 -497.51 310.464 -548.92 400.136 -639.778" stroke="#A0A3BD" stroke-width="1.62" stroke-miterlimit="10"/>
<path d="M-24.5703 1091.34C65.1015 1000.48 117.218 1051.92 206.89 961.057C296.562 870.199 244.445 818.763 334.091 727.931C423.737 637.099 475.879 688.509 565.551 597.651C655.223 506.792 603.107 455.357 692.779 364.499C782.451 273.64 834.567 325.076 924.265 234.192C1013.96 143.307 961.82 91.8978 1051.49 1.03956" stroke="#A0A3BD" stroke-width="1.62" stroke-miterlimit="10"/>
<path d="M-355.15 776.198C-265.479 685.34 -213.362 736.776 -123.69 645.918C-34.0185 555.059 -86.1348 503.624 3.51127 412.792C93.1573 321.96 145.299 373.369 234.971 282.511C324.643 191.653 272.527 140.217 362.199 49.3589C451.871 -41.4993 503.987 9.93642 593.684 -80.9479C683.382 -171.832 631.24 -223.242 720.912 -314.1" stroke="#A0A3BD" stroke-width="1.62" stroke-miterlimit="10"/>
<path d="M294.909 1415.94C384.581 1325.08 436.697 1376.51 526.369 1285.65C616.041 1194.8 563.925 1143.36 653.571 1052.53C743.217 961.697 795.359 1013.11 885.031 922.248C974.703 831.39 922.586 779.954 1012.26 689.096C1101.93 598.238 1154.05 649.673 1243.74 558.789C1333.44 467.905 1281.3 416.495 1370.97 325.637" stroke="#A0A3BD" stroke-width="1.62" stroke-miterlimit="10"/>
<path d="M-518.296 618.262C-428.624 527.403 -376.508 578.839 -286.836 487.981C-197.164 397.123 -249.28 345.687 -159.634 254.855C-69.9882 164.023 -17.8461 215.433 71.8257 124.574C161.498 33.7162 109.381 -17.7196 199.053 -108.578C288.725 -199.436 340.841 -148 430.539 -238.885C520.237 -329.769 468.095 -381.179 557.766 -472.037" stroke="#A0A3BD" stroke-width="1.62" stroke-miterlimit="10"/>
<path d="M133.061 1259.08C222.732 1168.22 274.849 1219.66 364.521 1128.8C454.192 1037.94 402.076 986.504 491.722 895.672C581.368 804.84 633.51 856.25 723.182 765.391C812.854 674.533 760.738 623.098 850.41 532.239C940.081 441.381 992.198 492.817 1081.9 401.933C1171.59 311.048 1119.45 259.639 1209.12 168.78" stroke="#A0A3BD" stroke-width="1.62" stroke-miterlimit="10"/>
<path d="M-197.52 933.247C-107.848 842.389 -55.7314 893.825 33.9405 802.967C123.612 712.109 71.4961 660.673 161.142 569.841C250.788 479.009 302.93 530.418 392.602 439.56C482.274 348.702 430.158 297.266 519.83 206.408C609.501 115.55 661.618 166.985 751.315 76.1012C841.013 -14.7832 788.871 -66.1928 878.543 -157.051" stroke="#A0A3BD" stroke-width="1.62" stroke-miterlimit="10"/>
<path d="M452.54 1583.68C542.212 1492.82 594.328 1544.25 684 1453.4C773.672 1362.54 721.556 1311.1 811.202 1220.27C900.848 1129.44 952.99 1180.85 1042.66 1089.99C1132.33 999.131 1080.22 947.696 1169.89 856.837C1259.56 765.979 1311.68 817.415 1401.37 726.531C1491.07 635.646 1438.93 584.237 1528.6 493.378" stroke="#A0A3BD" stroke-width="1.62" stroke-miterlimit="10"/>
<path d="M-566.856 560.816C-477.185 469.957 -425.068 521.393 -335.396 430.535C-245.725 339.677 -297.841 288.241 -208.195 197.409C-118.549 106.577 -66.4067 157.986 23.2652 67.1283C112.937 -23.7299 60.8208 -75.1656 150.493 -166.024C240.164 -256.882 292.281 -205.446 381.978 -296.331C471.676 -387.215 419.534 -438.625 509.206 -529.483" stroke="#A0A3BD" stroke-width="1.62" stroke-miterlimit="10"/>
<path d="M84.5 1201.63C174.172 1110.77 226.288 1162.21 315.96 1071.35C405.632 980.494 353.516 929.058 443.162 838.226C532.808 747.394 584.95 798.804 674.622 707.946C764.294 617.087 712.177 565.652 801.849 474.793C891.521 383.935 943.637 435.371 1033.33 344.487C1123.03 253.602 1070.89 202.193 1160.56 111.334" stroke="#A0A3BD" stroke-width="1.62" stroke-miterlimit="10"/>
<path d="M-246.081 875.802C-156.409 784.944 -104.293 836.38 -14.6211 745.521C75.0508 654.663 22.9345 603.227 112.581 512.395C202.227 421.563 254.369 472.973 344.041 382.115C433.712 291.257 381.596 239.821 471.268 148.963C560.94 58.1044 613.056 109.54 702.754 18.6558C792.451 -72.2285 740.309 -123.638 829.981 -214.496" stroke="#A0A3BD" stroke-width="1.62" stroke-miterlimit="10"/>
<path d="M403.979 1526.23C493.651 1435.37 545.768 1486.81 635.439 1395.95C725.111 1305.09 672.995 1253.66 762.641 1162.82C852.287 1071.99 904.429 1123.4 994.101 1032.54C1083.77 941.685 1031.66 890.25 1121.33 799.391C1211 708.533 1263.12 759.969 1352.81 669.085C1442.51 578.2 1390.37 526.791 1480.04 435.932" stroke="#A0A3BD" stroke-width="1.62" stroke-miterlimit="10"/>
<path d="M-409.226 728.556C-319.554 637.698 -267.437 689.134 -177.766 598.276C-88.0937 507.418 -140.21 455.982 -50.5639 365.15C39.0821 274.318 91.2242 325.727 180.896 234.869C270.568 144.011 218.452 92.5752 308.123 1.71702C397.795 -89.1412 449.912 -37.7054 539.609 -128.59C629.307 -219.474 577.165 -270.884 666.837 -361.742" stroke="#A0A3BD" stroke-width="1.62" stroke-miterlimit="10"/>
<path d="M240.834 1368.29C330.506 1277.44 382.622 1328.87 472.294 1238.01C561.966 1147.16 509.85 1095.72 599.496 1004.89C689.142 914.055 741.284 965.465 830.956 874.607C920.627 783.749 868.511 732.313 958.183 641.455C1047.85 550.597 1099.97 602.032 1189.67 511.148C1279.37 420.264 1227.22 368.854 1316.9 277.996" stroke="#A0A3BD" stroke-width="1.62" stroke-miterlimit="10"/>
<path d="M-88.4492 1043.54C1.22264 952.685 53.3389 1004.12 143.011 913.262C232.683 822.404 180.566 770.968 270.212 680.136C359.858 589.304 412.001 640.714 501.672 549.856C591.344 458.997 539.228 407.562 628.9 316.703C718.572 225.845 770.688 277.281 860.386 186.397C950.083 95.5124 897.941 44.1027 987.613 -46.7555" stroke="#A0A3BD" stroke-width="1.62" stroke-miterlimit="10"/>
<path d="M561.61 1693.97C651.282 1603.11 703.398 1654.55 793.07 1563.69C882.742 1472.83 830.626 1421.4 920.272 1330.57C1009.92 1239.73 1062.06 1291.14 1151.73 1200.28C1241.4 1109.43 1189.29 1057.99 1278.96 967.132C1368.63 876.274 1420.75 927.71 1510.45 836.826C1600.14 745.941 1548 694.532 1637.67 603.673" stroke="#A0A3BD" stroke-width="1.62" stroke-miterlimit="10"/>
<path d="M-223.578 907.53C-133.906 816.671 -81.79 868.107 7.88186 777.249C97.5537 686.391 45.4375 634.955 135.084 544.123C224.73 453.291 276.872 504.701 366.544 413.842C456.215 322.984 404.099 271.548 493.771 180.69C583.443 89.8321 635.559 141.268 725.257 50.3835C814.954 -40.5008 762.812 -91.9105 852.484 -182.769" stroke="#A0A3BD" stroke-width="1.62" stroke-miterlimit="10"/>
<path d="M-701.984 424.802C-612.313 333.944 -560.196 385.38 -470.524 294.522C-380.853 203.664 -432.969 152.228 -343.323 61.3957C-253.677 -29.4363 -201.535 21.9733 -111.863 -68.8849C-22.1909 -159.743 -74.3072 -211.179 15.3647 -302.037C105.037 -392.895 157.153 -341.459 246.851 -432.344C336.548 -523.228 284.406 -574.638 374.078 -665.496" stroke="#A0A3BD" stroke-width="1.62" stroke-miterlimit="10"/>
<path d="M-50.6289 1065.62C39.043 974.761 91.1592 1026.2 180.831 935.339C270.503 844.481 218.387 793.045 308.033 702.213C397.679 611.381 449.821 662.79 539.493 571.932C629.165 481.074 577.048 429.638 666.72 338.78C756.392 247.922 808.508 299.358 898.206 208.473C987.904 117.589 935.762 66.1794 1025.43 -24.6788" stroke="#A0A3BD" stroke-width="1.62" stroke-miterlimit="10"/>
<path d="M-381.208 750.481C-291.536 659.622 -239.42 711.058 -149.748 620.2C-60.0762 529.342 -112.192 477.906 -22.5464 387.074C67.0997 296.242 119.242 347.652 208.914 256.793C298.585 165.935 246.469 114.499 336.141 23.6412C425.813 -67.217 477.929 -15.7812 567.627 -106.666C657.325 -197.55 605.182 -248.96 694.854 -339.818" stroke="#A0A3BD" stroke-width="1.62" stroke-miterlimit="10"/>
<path d="M268.852 1390.22C358.523 1299.36 410.64 1350.8 500.312 1259.94C589.983 1169.08 537.867 1117.64 627.513 1026.81C717.159 935.979 769.301 987.388 858.973 896.53C948.645 805.672 896.529 754.236 986.201 663.378C1075.87 572.52 1127.99 623.956 1217.69 533.071C1307.38 442.187 1255.24 390.777 1344.91 299.919" stroke="#A0A3BD" stroke-width="1.62" stroke-miterlimit="10"/>
<path d="M-544.354 592.543C-454.682 501.685 -402.565 553.121 -312.894 462.263C-223.222 371.404 -275.338 319.969 -185.692 229.137C-96.0458 138.305 -43.9037 189.714 45.7681 98.856C135.44 7.99777 83.3237 -43.438 172.996 -134.296C262.667 -225.154 314.784 -173.719 404.481 -264.603C494.179 -355.487 442.037 -406.897 531.709 -497.755" stroke="#A0A3BD" stroke-width="1.62" stroke-miterlimit="10"/>
<path d="M107.002 1233.36C196.674 1142.5 248.79 1193.94 338.462 1103.08C428.134 1012.22 376.018 960.786 465.664 869.954C555.31 779.122 607.452 830.531 697.124 739.673C786.795 648.815 734.679 597.379 824.351 506.521C914.023 415.663 966.139 467.099 1055.84 376.214C1145.53 285.33 1093.39 233.92 1183.06 143.062" stroke="#A0A3BD" stroke-width="1.62" stroke-miterlimit="10"/>
<path d="M-640.762 479.676C-551.09 388.818 -498.974 440.254 -409.302 349.396C-319.63 258.538 -371.746 207.102 -282.1 116.27C-192.454 25.4377 -140.312 76.8473 -50.6401 -14.0109C39.0318 -104.869 -13.0845 -156.305 76.5873 -247.163C166.259 -338.021 218.375 -286.585 308.073 -377.47C397.771 -468.354 345.629 -519.764 435.301 -610.622" stroke="#A0A3BD" stroke-width="1.62" stroke-miterlimit="10"/>
<path d="M10.5947 1120.49C100.267 1029.64 152.383 1081.07 242.055 990.213C331.727 899.355 279.61 847.919 369.256 757.087C458.902 666.255 511.045 717.665 600.716 626.806C690.388 535.948 638.272 484.512 727.944 393.654C817.616 302.796 869.732 354.232 959.43 263.347C1049.13 172.463 996.985 121.054 1086.66 30.1953" stroke="#A0A3BD" stroke-width="1.62" stroke-miterlimit="10"/>
<path d="M-319.985 794.663C-230.313 703.805 -178.197 755.24 -88.5254 664.382C1.1465 573.524 -50.9698 522.088 38.6763 431.256C128.322 340.424 180.464 391.834 270.136 300.976C359.808 210.117 307.692 158.682 397.364 67.8235C487.036 -23.0347 539.152 28.401 628.85 -62.4833C718.547 -153.368 666.405 -204.777 756.077 -295.635" stroke="#A0A3BD" stroke-width="1.62" stroke-miterlimit="10"/>
<path d="M330.074 1445.09C419.746 1354.23 471.862 1405.67 561.534 1314.81C651.206 1223.95 599.09 1172.52 688.736 1081.68C778.382 990.853 830.524 1042.26 920.196 951.404C1009.87 860.546 957.751 809.11 1047.42 718.252C1137.1 627.394 1189.21 678.83 1278.91 587.945C1368.61 497.061 1316.46 445.651 1406.14 354.793" stroke="#A0A3BD" stroke-width="1.62" stroke-miterlimit="10"/>
<path d="M-483.131 647.417C-393.459 556.559 -341.343 607.995 -251.671 517.137C-161.999 426.279 -214.115 374.843 -124.469 284.011C-34.8231 193.179 17.3189 244.588 106.991 153.73C196.663 62.8719 144.546 11.4362 234.218 -79.422C323.89 -170.28 376.006 -118.844 465.704 -209.729C555.402 -300.613 503.26 -352.023 592.931 -442.881" stroke="#A0A3BD" stroke-width="1.62" stroke-miterlimit="10"/>
<path d="M166.93 1287.15C256.602 1196.3 308.718 1247.73 398.39 1156.87C488.062 1066.02 435.945 1014.58 525.591 923.748C615.237 832.916 667.379 884.325 757.051 793.467C846.723 702.609 794.607 651.173 884.279 560.315C973.951 469.457 1026.07 520.892 1115.76 430.008C1205.46 339.124 1153.32 287.714 1242.99 196.856" stroke="#A0A3BD" stroke-width="1.62" stroke-miterlimit="10"/>
<path d="M-162.354 962.404C-72.6826 871.545 -20.5664 922.981 69.1055 832.123C158.777 741.265 106.661 689.829 196.307 598.997C285.953 508.165 338.095 559.575 427.767 468.716C517.439 377.858 465.323 326.422 554.995 235.564C644.666 144.706 696.783 196.142 786.48 105.258C876.178 14.3732 824.036 -37.0364 913.708 -127.895" stroke="#A0A3BD" stroke-width="1.62" stroke-miterlimit="10"/>
<path d="M487.705 1612.83C577.377 1521.98 629.493 1573.41 719.165 1482.55C808.837 1391.69 756.721 1340.26 846.367 1249.43C936.013 1158.59 988.155 1210 1077.83 1119.15C1167.5 1028.29 1115.38 976.852 1205.05 885.994C1294.73 795.136 1346.84 846.571 1436.54 755.687C1526.24 664.803 1474.1 613.393 1563.77 522.535" stroke="#A0A3BD" stroke-width="1.62" stroke-miterlimit="10"/>
</g>
<defs>
<clipPath id="clip0_1_6">
<rect width="1080" height="1080" fill="white" transform="translate(-11)"/>
</clipPath>
</defs>
</svg>
