<svg width="22" height="22" viewBox="0 0 22 22" fill="none" xmlns="http://www.w3.org/2000/svg">
<path d="M11.7365 8.30009L15.4655 2.45437C15.7323 2.03628 16.1533 1.74036 16.6371 1.6309C17.1208 1.52144 17.6282 1.60729 18.049 1.8698C18.9431 2.42766 19.2055 3.60937 18.6304 4.49409L16.1554 8.29852M8.25112 14.5874H13.7495M10.9995 11.8405V17.3358M2.40698 13.1762L2.05969 10.0805C2.03493 9.86079 2.05681 9.63831 2.12392 9.42762C2.19102 9.21692 2.30184 9.02277 2.44912 8.85784C2.5964 8.69291 2.77683 8.56091 2.97862 8.47049C3.1804 8.38007 3.399 8.33325 3.62012 8.33309H18.379C18.6001 8.33325 18.8187 8.38007 19.0205 8.47049C19.2223 8.56091 19.4027 8.69291 19.55 8.85784C19.6973 9.02277 19.8081 9.21692 19.8752 9.42762C19.9423 9.63831 19.9642 9.86079 19.9394 10.0805L19.5921 13.1762C19.4827 14.1517 19.1462 15.0879 18.6097 15.9098C18.0732 16.7318 17.3516 17.4166 16.5027 17.9094C16.7698 18.3887 16.9553 18.9229 17.0417 19.4934C17.0665 19.6605 17.0551 19.8311 17.008 19.9934C16.961 20.1557 16.8795 20.306 16.7691 20.4339C16.6588 20.5619 16.5221 20.6646 16.3685 20.7349C16.2148 20.8053 16.0478 20.8417 15.8788 20.8417H6.12026C5.95128 20.8417 5.78427 20.8053 5.63063 20.7349C5.47698 20.6646 5.34032 20.5619 5.22995 20.4339C5.11958 20.306 5.0381 20.1557 4.99107 19.9934C4.94404 19.8311 4.93256 19.6605 4.95741 19.4934C5.04383 18.9229 5.22926 18.3887 5.49484 17.9094C4.64623 17.4164 3.9249 16.7315 3.38867 15.9096C2.85244 15.0877 2.51623 14.1515 2.40698 13.1762Z" stroke="#BABABA" stroke-width="1.57143" stroke-linecap="round" stroke-linejoin="round"/>
</svg>
