<svg width="24" height="24" viewBox="0 0 24 24" fill="none" xmlns="http://www.w3.org/2000/svg">
<path d="M7.00098 7.00073H6.00098C5.47054 7.00073 4.96184 7.21145 4.58676 7.58652C4.21169 7.96159 4.00098 8.4703 4.00098 9.00073V18.0007C4.00098 18.5312 4.21169 19.0399 4.58676 19.4149C4.96184 19.79 5.47054 20.0007 6.00098 20.0007H15.001C15.5314 20.0007 16.0401 19.79 16.4152 19.4149C16.7903 19.0399 17.001 18.5312 17.001 18.0007V17.0007" stroke="white" stroke-width="2" stroke-linecap="round" stroke-linejoin="round"/>
<path d="M16.001 5.00084L19.001 8.00084M20.386 6.58584C20.7798 6.19199 21.0011 5.65782 21.0011 5.10084C21.0011 4.54386 20.7798 4.00969 20.386 3.61584C19.9921 3.22199 19.458 3.00073 18.901 3.00073C18.344 3.00073 17.8098 3.22199 17.416 3.61584L9.00098 12.0008V15.0008H12.001L20.386 6.58584Z" stroke="white" stroke-width="2" stroke-linecap="round" stroke-linejoin="round"/>
</svg>
