<svg width="75" height="51" viewBox="0 0 75 51" fill="none" xmlns="http://www.w3.org/2000/svg">
<path d="M37.5767 16.3286C42.0963 16.3286 45.741 12.6836 45.741 8.1643C45.741 3.64494 42.1252 0 37.5767 0C33.057 0 29.4124 3.64494 29.4124 8.1643C29.4413 12.7131 33.0862 16.3286 37.5767 16.3286ZM18.6237 39.9762H3.95699C-0.795692 39.9762 -1.05819 32.7158 4.04449 32.7158H16.7573L24.0469 21.9854C26.2046 19.0405 28.6541 17.6408 32.1237 17.6408H42.9999C46.4699 17.6408 48.919 18.9238 51.0767 21.9854L58.3955 32.7158H71.1961C76.3279 32.7158 76.0071 39.9762 71.3711 39.9762H56.7044C55.538 39.9762 54.1383 39.5679 53.3219 38.3143L47.7234 30.325L47.6943 50.3277H27.6335L27.6043 30.325L22.0058 38.3143C21.1895 39.5387 19.7901 39.9762 18.6237 39.9762Z" fill="white"/>
<path d="M74.2215 14.9103C73.3209 13.6178 71.7807 12.9163 70.2128 13.0815C69.4908 13.1571 68.7896 13.4184 68.1914 13.8377L59.5899 19.8333C57.6304 21.2014 57.1491 23.9038 58.5173 25.8633C59.4179 27.1559 60.9581 27.8574 62.5259 27.6922C63.248 27.6166 63.9491 27.3553 64.5474 26.936L73.142 20.9404C75.1084 19.572 75.5896 16.8699 74.2215 14.9103ZM60.298 21.8755C59.0533 22.8931 59.0122 23.8488 59.0122 23.8488C59.0122 23.8488 58.6753 22.9482 59.2253 21.9098C59.7753 20.8717 62.0926 19.3794 62.0926 19.3794L62.5944 20.019C62.6015 20.0121 61.5494 20.858 60.298 21.8755ZM72.4063 19.8746L68.6384 22.5011C68.5283 21.8136 68.2465 20.8371 67.559 19.7371C66.6444 18.2726 65.6545 17.7431 65.1182 17.5577L68.9343 14.8967C69.3673 14.594 69.8557 14.4222 70.3506 14.3672C71.4164 14.2571 72.5027 14.7109 73.1629 15.6461C74.1182 17.0279 73.7813 18.919 72.4063 19.8746Z" fill="white"/>
<path d="M8.61817 29.0307C13.3747 29.0307 17.2619 25.1691 17.2619 20.3869C17.2619 15.6048 13.4003 11.7432 8.61817 11.7432C3.83602 11.7432 0 15.6304 0 20.4125C0 25.1691 3.86161 29.0307 8.61817 29.0307ZM8.14078 21.12C6.55537 20.5658 5.56638 19.7646 5.56638 18.3411C5.56638 17.0283 6.43572 15.9967 8.03007 15.6729V14.2494H9.22352V15.6048C10.2122 15.6048 10.9283 15.8092 11.4569 16.0908L10.9708 17.7956C10.5786 17.6336 9.9393 17.3607 9.06132 17.3607C8.18334 17.3607 7.70596 17.7956 7.70596 18.2301C7.70596 18.8268 8.26013 19.0569 9.45358 19.5429C11.0819 20.1396 11.8405 20.9664 11.8405 22.3217C11.8405 23.6771 11.0137 24.7087 9.26608 25.1006V26.456H8.07263V25.1432C7.04108 25.1432 6.0012 24.8703 5.49822 24.589L5.93304 22.8414C6.48721 23.1143 7.35656 23.4381 8.27739 23.4381C9.26608 23.4381 9.7521 23.0033 9.7521 22.4066C9.7521 21.8098 9.28305 21.5634 8.14078 21.12Z" fill="white"/>
</svg>
