<svg width="16" height="16" viewBox="0 0 16 16" fill="none" xmlns="http://www.w3.org/2000/svg">
<path d="M7.99903 11.575C7.71569 11.575 7.47802 11.479 7.28603 11.287C7.09403 11.095 6.99836 10.8577 6.99903 10.575V3.425L5.12403 5.3C4.92403 5.5 4.69069 5.6 4.42403 5.6C4.15736 5.6 3.91569 5.49167 3.69902 5.275C3.49902 5.075 3.40336 4.83767 3.41203 4.563C3.42069 4.28833 3.51636 4.059 3.69902 3.875L7.29903 0.275C7.39903 0.175 7.50736 0.104333 7.62403 0.0629997C7.74069 0.0216664 7.86569 0.000666667 7.99903 0C8.13236 0 8.25736 0.0209997 8.37403 0.0629997C8.49069 0.105 8.59902 0.175666 8.69903 0.275L12.299 3.875C12.499 4.075 12.595 4.31267 12.587 4.588C12.579 4.86333 12.483 5.09233 12.299 5.275C12.099 5.475 11.8614 5.57933 11.586 5.588C11.3107 5.59667 11.0734 5.50067 10.874 5.3L8.99903 3.425V10.575C8.99903 10.8583 8.90303 11.096 8.71103 11.288C8.51902 11.48 8.28169 11.5757 7.99903 11.575ZM1.99903 15.575C1.44903 15.575 0.978025 15.379 0.586025 14.987C0.194025 14.595 -0.00164153 14.1243 -0.000974865 13.575V11.575C-0.000974865 11.2917 0.0950252 11.054 0.287025 10.862C0.479025 10.67 0.716358 10.5743 0.999025 10.575C1.28236 10.575 1.52002 10.671 1.71202 10.863C1.90402 11.055 1.99969 11.2923 1.99903 11.575V13.575H13.999V11.575C13.999 11.2917 14.095 11.054 14.287 10.862C14.479 10.67 14.7164 10.5743 14.999 10.575C15.2824 10.575 15.52 10.671 15.712 10.863C15.904 11.055 15.9997 11.2923 15.999 11.575V13.575C15.999 14.125 15.803 14.596 15.411 14.988C15.019 15.38 14.5484 15.5757 13.999 15.575H1.99903Z" fill="white"/>
</svg>
